G04 #@! TF.GenerationSoftware,KiCad,Pcbnew,5.0.0-fee4fd1~66~ubuntu16.04.1*
G04 #@! TF.CreationDate,2018-12-09T19:38:54+07:00*
G04 #@! TF.ProjectId,master_circuit,6D61737465725F636972637569742E6B,rev?*
G04 #@! TF.SameCoordinates,Original*
G04 #@! TF.FileFunction,Copper,L1,Top,Signal*
G04 #@! TF.FilePolarity,Positive*
%FSLAX46Y46*%
G04 Gerber Fmt 4.6, Leading zero omitted, Abs format (unit mm)*
G04 Created by KiCad (PCBNEW 5.0.0-fee4fd1~66~ubuntu16.04.1) date Sun Dec  9 19:38:54 2018*
%MOMM*%
%LPD*%
G01*
G04 APERTURE LIST*
G04 #@! TA.AperFunction,ComponentPad*
%ADD10C,4.000000*%
G04 #@! TD*
G04 #@! TA.AperFunction,ComponentPad*
%ADD11C,2.000000*%
G04 #@! TD*
G04 #@! TA.AperFunction,ComponentPad*
%ADD12O,2.000000X2.000000*%
G04 #@! TD*
G04 #@! TA.AperFunction,ComponentPad*
%ADD13R,2.000000X2.000000*%
G04 #@! TD*
G04 #@! TA.AperFunction,Conductor*
%ADD14C,0.100000*%
G04 #@! TD*
G04 #@! TA.AperFunction,SMDPad,CuDef*
%ADD15C,0.975000*%
G04 #@! TD*
G04 #@! TA.AperFunction,SMDPad,CuDef*
%ADD16R,1.100000X1.100000*%
G04 #@! TD*
G04 #@! TA.AperFunction,ComponentPad*
%ADD17O,7.500000X6.000000*%
G04 #@! TD*
G04 #@! TA.AperFunction,ComponentPad*
%ADD18C,2.200000*%
G04 #@! TD*
G04 #@! TA.AperFunction,ComponentPad*
%ADD19C,3.200000*%
G04 #@! TD*
G04 #@! TA.AperFunction,SMDPad,CuDef*
%ADD20C,0.875000*%
G04 #@! TD*
G04 #@! TA.AperFunction,ComponentPad*
%ADD21C,1.524000*%
G04 #@! TD*
G04 #@! TA.AperFunction,ComponentPad*
%ADD22C,2.500000*%
G04 #@! TD*
G04 #@! TA.AperFunction,SMDPad,CuDef*
%ADD23R,1.220000X0.650000*%
G04 #@! TD*
G04 #@! TA.AperFunction,SMDPad,CuDef*
%ADD24C,1.350000*%
G04 #@! TD*
G04 #@! TA.AperFunction,Conductor*
%ADD25C,1.000000*%
G04 #@! TD*
G04 #@! TA.AperFunction,Conductor*
%ADD26C,1.500000*%
G04 #@! TD*
G04 #@! TA.AperFunction,Conductor*
%ADD27C,0.500000*%
G04 #@! TD*
G04 #@! TA.AperFunction,Conductor*
%ADD28C,0.254000*%
G04 #@! TD*
G04 APERTURE END LIST*
D10*
G04 #@! TO.P,REF\002A\002A,1*
G04 #@! TO.N,N/C*
X113538000Y-98298000D03*
G04 #@! TD*
G04 #@! TO.P,REF\002A\002A,1*
G04 #@! TO.N,N/C*
X113284000Y-140970000D03*
G04 #@! TD*
G04 #@! TO.P,REF\002A\002A,1*
G04 #@! TO.N,N/C*
X179070000Y-142240000D03*
G04 #@! TD*
G04 #@! TO.P,REF\002A\002A,1*
G04 #@! TO.N,N/C*
X179578000Y-96520000D03*
G04 #@! TD*
D11*
G04 #@! TO.P,F2,1*
G04 #@! TO.N,Net-(F2-Pad1)*
X173736000Y-112776000D03*
D12*
G04 #@! TO.P,F2,2*
G04 #@! TO.N,Net-(F2-Pad2)*
X181236000Y-112776000D03*
G04 #@! TD*
D13*
G04 #@! TO.P,J3,1*
G04 #@! TO.N,Net-(J3-Pad1)*
X181864000Y-101092000D03*
D12*
G04 #@! TO.P,J3,2*
G04 #@! TO.N,Net-(F2-Pad2)*
X181864000Y-106172000D03*
G04 #@! TD*
D11*
G04 #@! TO.P,F1,1*
G04 #@! TO.N,Net-(F1-Pad1)*
X172212000Y-117856000D03*
G04 #@! TO.P,F1,2*
G04 #@! TO.N,Net-(F1-Pad2)*
X172212000Y-141986000D03*
G04 #@! TD*
D14*
G04 #@! TO.N,GND*
G04 #@! TO.C,C2*
G36*
X114780142Y-131926174D02*
X114803803Y-131929684D01*
X114827007Y-131935496D01*
X114849529Y-131943554D01*
X114871153Y-131953782D01*
X114891670Y-131966079D01*
X114910883Y-131980329D01*
X114928607Y-131996393D01*
X114944671Y-132014117D01*
X114958921Y-132033330D01*
X114971218Y-132053847D01*
X114981446Y-132075471D01*
X114989504Y-132097993D01*
X114995316Y-132121197D01*
X114998826Y-132144858D01*
X115000000Y-132168750D01*
X115000000Y-132656250D01*
X114998826Y-132680142D01*
X114995316Y-132703803D01*
X114989504Y-132727007D01*
X114981446Y-132749529D01*
X114971218Y-132771153D01*
X114958921Y-132791670D01*
X114944671Y-132810883D01*
X114928607Y-132828607D01*
X114910883Y-132844671D01*
X114891670Y-132858921D01*
X114871153Y-132871218D01*
X114849529Y-132881446D01*
X114827007Y-132889504D01*
X114803803Y-132895316D01*
X114780142Y-132898826D01*
X114756250Y-132900000D01*
X113843750Y-132900000D01*
X113819858Y-132898826D01*
X113796197Y-132895316D01*
X113772993Y-132889504D01*
X113750471Y-132881446D01*
X113728847Y-132871218D01*
X113708330Y-132858921D01*
X113689117Y-132844671D01*
X113671393Y-132828607D01*
X113655329Y-132810883D01*
X113641079Y-132791670D01*
X113628782Y-132771153D01*
X113618554Y-132749529D01*
X113610496Y-132727007D01*
X113604684Y-132703803D01*
X113601174Y-132680142D01*
X113600000Y-132656250D01*
X113600000Y-132168750D01*
X113601174Y-132144858D01*
X113604684Y-132121197D01*
X113610496Y-132097993D01*
X113618554Y-132075471D01*
X113628782Y-132053847D01*
X113641079Y-132033330D01*
X113655329Y-132014117D01*
X113671393Y-131996393D01*
X113689117Y-131980329D01*
X113708330Y-131966079D01*
X113728847Y-131953782D01*
X113750471Y-131943554D01*
X113772993Y-131935496D01*
X113796197Y-131929684D01*
X113819858Y-131926174D01*
X113843750Y-131925000D01*
X114756250Y-131925000D01*
X114780142Y-131926174D01*
X114780142Y-131926174D01*
G37*
D15*
G04 #@! TD*
G04 #@! TO.P,C2,2*
G04 #@! TO.N,GND*
X114300000Y-132412500D03*
D14*
G04 #@! TO.N,Vin*
G04 #@! TO.C,C2*
G36*
X114780142Y-133801174D02*
X114803803Y-133804684D01*
X114827007Y-133810496D01*
X114849529Y-133818554D01*
X114871153Y-133828782D01*
X114891670Y-133841079D01*
X114910883Y-133855329D01*
X114928607Y-133871393D01*
X114944671Y-133889117D01*
X114958921Y-133908330D01*
X114971218Y-133928847D01*
X114981446Y-133950471D01*
X114989504Y-133972993D01*
X114995316Y-133996197D01*
X114998826Y-134019858D01*
X115000000Y-134043750D01*
X115000000Y-134531250D01*
X114998826Y-134555142D01*
X114995316Y-134578803D01*
X114989504Y-134602007D01*
X114981446Y-134624529D01*
X114971218Y-134646153D01*
X114958921Y-134666670D01*
X114944671Y-134685883D01*
X114928607Y-134703607D01*
X114910883Y-134719671D01*
X114891670Y-134733921D01*
X114871153Y-134746218D01*
X114849529Y-134756446D01*
X114827007Y-134764504D01*
X114803803Y-134770316D01*
X114780142Y-134773826D01*
X114756250Y-134775000D01*
X113843750Y-134775000D01*
X113819858Y-134773826D01*
X113796197Y-134770316D01*
X113772993Y-134764504D01*
X113750471Y-134756446D01*
X113728847Y-134746218D01*
X113708330Y-134733921D01*
X113689117Y-134719671D01*
X113671393Y-134703607D01*
X113655329Y-134685883D01*
X113641079Y-134666670D01*
X113628782Y-134646153D01*
X113618554Y-134624529D01*
X113610496Y-134602007D01*
X113604684Y-134578803D01*
X113601174Y-134555142D01*
X113600000Y-134531250D01*
X113600000Y-134043750D01*
X113601174Y-134019858D01*
X113604684Y-133996197D01*
X113610496Y-133972993D01*
X113618554Y-133950471D01*
X113628782Y-133928847D01*
X113641079Y-133908330D01*
X113655329Y-133889117D01*
X113671393Y-133871393D01*
X113689117Y-133855329D01*
X113708330Y-133841079D01*
X113728847Y-133828782D01*
X113750471Y-133818554D01*
X113772993Y-133810496D01*
X113796197Y-133804684D01*
X113819858Y-133801174D01*
X113843750Y-133800000D01*
X114756250Y-133800000D01*
X114780142Y-133801174D01*
X114780142Y-133801174D01*
G37*
D15*
G04 #@! TD*
G04 #@! TO.P,C2,1*
G04 #@! TO.N,Vin*
X114300000Y-134287500D03*
D16*
G04 #@! TO.P,D1,1*
G04 #@! TO.N,Net-(D1-Pad1)*
X147444000Y-116332000D03*
G04 #@! TO.P,D1,2*
G04 #@! TO.N,Vin*
X150244000Y-116332000D03*
G04 #@! TD*
D17*
G04 #@! TO.P,J1,1*
G04 #@! TO.N,Net-(F1-Pad1)*
X179832000Y-124968000D03*
G04 #@! TD*
G04 #@! TO.P,J2,1*
G04 #@! TO.N,Net-(J2-Pad1)*
X179832000Y-135128000D03*
G04 #@! TD*
D18*
G04 #@! TO.P,K1,1*
G04 #@! TO.N,Vin*
X144526000Y-134874000D03*
G04 #@! TO.P,K1,5*
G04 #@! TO.N,Net-(D1-Pad1)*
X144526000Y-124714000D03*
D19*
G04 #@! TO.P,K1,2*
G04 #@! TO.N,Net-(F1-Pad2)*
X159766000Y-138684000D03*
G04 #@! TO.P,K1,3*
G04 #@! TO.N,Net-(J2-Pad1)*
X157226000Y-120904000D03*
G04 #@! TD*
D14*
G04 #@! TO.N,Net-(Q1-Pad1)*
G04 #@! TO.C,R1*
G36*
X141235691Y-116620053D02*
X141256926Y-116623203D01*
X141277750Y-116628419D01*
X141297962Y-116635651D01*
X141317368Y-116644830D01*
X141335781Y-116655866D01*
X141353024Y-116668654D01*
X141368930Y-116683070D01*
X141383346Y-116698976D01*
X141396134Y-116716219D01*
X141407170Y-116734632D01*
X141416349Y-116754038D01*
X141423581Y-116774250D01*
X141428797Y-116795074D01*
X141431947Y-116816309D01*
X141433000Y-116837750D01*
X141433000Y-117350250D01*
X141431947Y-117371691D01*
X141428797Y-117392926D01*
X141423581Y-117413750D01*
X141416349Y-117433962D01*
X141407170Y-117453368D01*
X141396134Y-117471781D01*
X141383346Y-117489024D01*
X141368930Y-117504930D01*
X141353024Y-117519346D01*
X141335781Y-117532134D01*
X141317368Y-117543170D01*
X141297962Y-117552349D01*
X141277750Y-117559581D01*
X141256926Y-117564797D01*
X141235691Y-117567947D01*
X141214250Y-117569000D01*
X140776750Y-117569000D01*
X140755309Y-117567947D01*
X140734074Y-117564797D01*
X140713250Y-117559581D01*
X140693038Y-117552349D01*
X140673632Y-117543170D01*
X140655219Y-117532134D01*
X140637976Y-117519346D01*
X140622070Y-117504930D01*
X140607654Y-117489024D01*
X140594866Y-117471781D01*
X140583830Y-117453368D01*
X140574651Y-117433962D01*
X140567419Y-117413750D01*
X140562203Y-117392926D01*
X140559053Y-117371691D01*
X140558000Y-117350250D01*
X140558000Y-116837750D01*
X140559053Y-116816309D01*
X140562203Y-116795074D01*
X140567419Y-116774250D01*
X140574651Y-116754038D01*
X140583830Y-116734632D01*
X140594866Y-116716219D01*
X140607654Y-116698976D01*
X140622070Y-116683070D01*
X140637976Y-116668654D01*
X140655219Y-116655866D01*
X140673632Y-116644830D01*
X140693038Y-116635651D01*
X140713250Y-116628419D01*
X140734074Y-116623203D01*
X140755309Y-116620053D01*
X140776750Y-116619000D01*
X141214250Y-116619000D01*
X141235691Y-116620053D01*
X141235691Y-116620053D01*
G37*
D20*
G04 #@! TD*
G04 #@! TO.P,R1,1*
G04 #@! TO.N,Net-(Q1-Pad1)*
X140995500Y-117094000D03*
D14*
G04 #@! TO.N,IO14*
G04 #@! TO.C,R1*
G36*
X139660691Y-116620053D02*
X139681926Y-116623203D01*
X139702750Y-116628419D01*
X139722962Y-116635651D01*
X139742368Y-116644830D01*
X139760781Y-116655866D01*
X139778024Y-116668654D01*
X139793930Y-116683070D01*
X139808346Y-116698976D01*
X139821134Y-116716219D01*
X139832170Y-116734632D01*
X139841349Y-116754038D01*
X139848581Y-116774250D01*
X139853797Y-116795074D01*
X139856947Y-116816309D01*
X139858000Y-116837750D01*
X139858000Y-117350250D01*
X139856947Y-117371691D01*
X139853797Y-117392926D01*
X139848581Y-117413750D01*
X139841349Y-117433962D01*
X139832170Y-117453368D01*
X139821134Y-117471781D01*
X139808346Y-117489024D01*
X139793930Y-117504930D01*
X139778024Y-117519346D01*
X139760781Y-117532134D01*
X139742368Y-117543170D01*
X139722962Y-117552349D01*
X139702750Y-117559581D01*
X139681926Y-117564797D01*
X139660691Y-117567947D01*
X139639250Y-117569000D01*
X139201750Y-117569000D01*
X139180309Y-117567947D01*
X139159074Y-117564797D01*
X139138250Y-117559581D01*
X139118038Y-117552349D01*
X139098632Y-117543170D01*
X139080219Y-117532134D01*
X139062976Y-117519346D01*
X139047070Y-117504930D01*
X139032654Y-117489024D01*
X139019866Y-117471781D01*
X139008830Y-117453368D01*
X138999651Y-117433962D01*
X138992419Y-117413750D01*
X138987203Y-117392926D01*
X138984053Y-117371691D01*
X138983000Y-117350250D01*
X138983000Y-116837750D01*
X138984053Y-116816309D01*
X138987203Y-116795074D01*
X138992419Y-116774250D01*
X138999651Y-116754038D01*
X139008830Y-116734632D01*
X139019866Y-116716219D01*
X139032654Y-116698976D01*
X139047070Y-116683070D01*
X139062976Y-116668654D01*
X139080219Y-116655866D01*
X139098632Y-116644830D01*
X139118038Y-116635651D01*
X139138250Y-116628419D01*
X139159074Y-116623203D01*
X139180309Y-116620053D01*
X139201750Y-116619000D01*
X139639250Y-116619000D01*
X139660691Y-116620053D01*
X139660691Y-116620053D01*
G37*
D20*
G04 #@! TD*
G04 #@! TO.P,R1,2*
G04 #@! TO.N,IO14*
X139420500Y-117094000D03*
D21*
G04 #@! TO.P,U1,1*
G04 #@! TO.N,N/C*
X108025001Y-99135001D03*
G04 #@! TO.P,U1,2*
X108025001Y-101675001D03*
G04 #@! TO.P,U1,3*
X108025001Y-104215001D03*
G04 #@! TO.P,U1,4*
X108025001Y-106755001D03*
G04 #@! TO.P,U1,5*
X108025001Y-109295001D03*
G04 #@! TO.P,U1,6*
X108025001Y-111835001D03*
G04 #@! TO.P,U1,7*
X108025001Y-114375001D03*
G04 #@! TO.P,U1,8*
X108025001Y-116915001D03*
G04 #@! TO.P,U1,9*
X108025001Y-119455001D03*
G04 #@! TO.P,U1,10*
G04 #@! TO.N,GND*
X108025001Y-121995001D03*
G04 #@! TO.P,U1,11*
G04 #@! TO.N,N/C*
X108025001Y-124535001D03*
G04 #@! TO.P,U1,12*
X108025001Y-127075001D03*
G04 #@! TO.P,U1,13*
X108025001Y-129615001D03*
G04 #@! TO.P,U1,14*
G04 #@! TO.N,GND*
X108025001Y-132155001D03*
G04 #@! TO.P,U1,15*
G04 #@! TO.N,Vin*
X108025001Y-134695001D03*
G04 #@! TO.P,U1,16*
G04 #@! TO.N,N/C*
X135965001Y-134695001D03*
G04 #@! TO.P,U1,17*
G04 #@! TO.N,GND*
X135965001Y-132155001D03*
G04 #@! TO.P,U1,18*
G04 #@! TO.N,N/C*
X135965001Y-129615001D03*
G04 #@! TO.P,U1,19*
X135965001Y-127075001D03*
G04 #@! TO.P,U1,20*
X135965001Y-124535001D03*
G04 #@! TO.P,U1,21*
X135965001Y-121995001D03*
G04 #@! TO.P,U1,22*
G04 #@! TO.N,GND*
X135965001Y-119455001D03*
G04 #@! TO.P,U1,23*
G04 #@! TO.N,IO14*
X135965001Y-116915001D03*
G04 #@! TO.P,U1,24*
G04 #@! TO.N,GND*
X135965001Y-114375001D03*
G04 #@! TO.P,U1,25*
G04 #@! TO.N,N/C*
X135965001Y-111835001D03*
G04 #@! TO.P,U1,26*
X135965001Y-109295001D03*
G04 #@! TO.P,U1,27*
X135965001Y-106755001D03*
G04 #@! TO.P,U1,28*
X135965001Y-104215001D03*
G04 #@! TO.P,U1,29*
X135965001Y-101675001D03*
G04 #@! TO.P,U1,30*
X135965001Y-99135001D03*
G04 #@! TD*
D22*
G04 #@! TO.P,U2,1*
G04 #@! TO.N,Net-(F2-Pad1)*
X169640000Y-106640000D03*
G04 #@! TO.P,U2,2*
G04 #@! TO.N,Net-(J3-Pad1)*
X169640000Y-101640000D03*
G04 #@! TO.P,U2,3*
G04 #@! TO.N,GND*
X140240000Y-111840000D03*
G04 #@! TO.P,U2,4*
G04 #@! TO.N,Vin*
X140240000Y-96440000D03*
G04 #@! TD*
D14*
G04 #@! TO.N,GND*
G04 #@! TO.C,R2*
G36*
X139635191Y-114842053D02*
X139656426Y-114845203D01*
X139677250Y-114850419D01*
X139697462Y-114857651D01*
X139716868Y-114866830D01*
X139735281Y-114877866D01*
X139752524Y-114890654D01*
X139768430Y-114905070D01*
X139782846Y-114920976D01*
X139795634Y-114938219D01*
X139806670Y-114956632D01*
X139815849Y-114976038D01*
X139823081Y-114996250D01*
X139828297Y-115017074D01*
X139831447Y-115038309D01*
X139832500Y-115059750D01*
X139832500Y-115572250D01*
X139831447Y-115593691D01*
X139828297Y-115614926D01*
X139823081Y-115635750D01*
X139815849Y-115655962D01*
X139806670Y-115675368D01*
X139795634Y-115693781D01*
X139782846Y-115711024D01*
X139768430Y-115726930D01*
X139752524Y-115741346D01*
X139735281Y-115754134D01*
X139716868Y-115765170D01*
X139697462Y-115774349D01*
X139677250Y-115781581D01*
X139656426Y-115786797D01*
X139635191Y-115789947D01*
X139613750Y-115791000D01*
X139176250Y-115791000D01*
X139154809Y-115789947D01*
X139133574Y-115786797D01*
X139112750Y-115781581D01*
X139092538Y-115774349D01*
X139073132Y-115765170D01*
X139054719Y-115754134D01*
X139037476Y-115741346D01*
X139021570Y-115726930D01*
X139007154Y-115711024D01*
X138994366Y-115693781D01*
X138983330Y-115675368D01*
X138974151Y-115655962D01*
X138966919Y-115635750D01*
X138961703Y-115614926D01*
X138958553Y-115593691D01*
X138957500Y-115572250D01*
X138957500Y-115059750D01*
X138958553Y-115038309D01*
X138961703Y-115017074D01*
X138966919Y-114996250D01*
X138974151Y-114976038D01*
X138983330Y-114956632D01*
X138994366Y-114938219D01*
X139007154Y-114920976D01*
X139021570Y-114905070D01*
X139037476Y-114890654D01*
X139054719Y-114877866D01*
X139073132Y-114866830D01*
X139092538Y-114857651D01*
X139112750Y-114850419D01*
X139133574Y-114845203D01*
X139154809Y-114842053D01*
X139176250Y-114841000D01*
X139613750Y-114841000D01*
X139635191Y-114842053D01*
X139635191Y-114842053D01*
G37*
D20*
G04 #@! TD*
G04 #@! TO.P,R2,1*
G04 #@! TO.N,GND*
X139395000Y-115316000D03*
D14*
G04 #@! TO.N,Net-(Q1-Pad1)*
G04 #@! TO.C,R2*
G36*
X141210191Y-114842053D02*
X141231426Y-114845203D01*
X141252250Y-114850419D01*
X141272462Y-114857651D01*
X141291868Y-114866830D01*
X141310281Y-114877866D01*
X141327524Y-114890654D01*
X141343430Y-114905070D01*
X141357846Y-114920976D01*
X141370634Y-114938219D01*
X141381670Y-114956632D01*
X141390849Y-114976038D01*
X141398081Y-114996250D01*
X141403297Y-115017074D01*
X141406447Y-115038309D01*
X141407500Y-115059750D01*
X141407500Y-115572250D01*
X141406447Y-115593691D01*
X141403297Y-115614926D01*
X141398081Y-115635750D01*
X141390849Y-115655962D01*
X141381670Y-115675368D01*
X141370634Y-115693781D01*
X141357846Y-115711024D01*
X141343430Y-115726930D01*
X141327524Y-115741346D01*
X141310281Y-115754134D01*
X141291868Y-115765170D01*
X141272462Y-115774349D01*
X141252250Y-115781581D01*
X141231426Y-115786797D01*
X141210191Y-115789947D01*
X141188750Y-115791000D01*
X140751250Y-115791000D01*
X140729809Y-115789947D01*
X140708574Y-115786797D01*
X140687750Y-115781581D01*
X140667538Y-115774349D01*
X140648132Y-115765170D01*
X140629719Y-115754134D01*
X140612476Y-115741346D01*
X140596570Y-115726930D01*
X140582154Y-115711024D01*
X140569366Y-115693781D01*
X140558330Y-115675368D01*
X140549151Y-115655962D01*
X140541919Y-115635750D01*
X140536703Y-115614926D01*
X140533553Y-115593691D01*
X140532500Y-115572250D01*
X140532500Y-115059750D01*
X140533553Y-115038309D01*
X140536703Y-115017074D01*
X140541919Y-114996250D01*
X140549151Y-114976038D01*
X140558330Y-114956632D01*
X140569366Y-114938219D01*
X140582154Y-114920976D01*
X140596570Y-114905070D01*
X140612476Y-114890654D01*
X140629719Y-114877866D01*
X140648132Y-114866830D01*
X140667538Y-114857651D01*
X140687750Y-114850419D01*
X140708574Y-114845203D01*
X140729809Y-114842053D01*
X140751250Y-114841000D01*
X141188750Y-114841000D01*
X141210191Y-114842053D01*
X141210191Y-114842053D01*
G37*
D20*
G04 #@! TD*
G04 #@! TO.P,R2,2*
G04 #@! TO.N,Net-(Q1-Pad1)*
X140970000Y-115316000D03*
D11*
G04 #@! TO.P,RV1,1*
G04 #@! TO.N,Net-(F2-Pad1)*
X174752000Y-107696000D03*
G04 #@! TO.P,RV1,2*
G04 #@! TO.N,Net-(J3-Pad1)*
X174752000Y-100196000D03*
G04 #@! TD*
D23*
G04 #@! TO.P,Q1,1*
G04 #@! TO.N,Net-(Q1-Pad1)*
X142708000Y-115382000D03*
G04 #@! TO.P,Q1,2*
G04 #@! TO.N,GND*
X142708000Y-117282000D03*
G04 #@! TO.P,Q1,3*
G04 #@! TO.N,Net-(D1-Pad1)*
X145328000Y-116332000D03*
G04 #@! TD*
D14*
G04 #@! TO.N,Vin*
G04 #@! TO.C,C1*
G36*
X112209505Y-134001204D02*
X112233773Y-134004804D01*
X112257572Y-134010765D01*
X112280671Y-134019030D01*
X112302850Y-134029520D01*
X112323893Y-134042132D01*
X112343599Y-134056747D01*
X112361777Y-134073223D01*
X112378253Y-134091401D01*
X112392868Y-134111107D01*
X112405480Y-134132150D01*
X112415970Y-134154329D01*
X112424235Y-134177428D01*
X112430196Y-134201227D01*
X112433796Y-134225495D01*
X112435000Y-134249999D01*
X112435000Y-135150001D01*
X112433796Y-135174505D01*
X112430196Y-135198773D01*
X112424235Y-135222572D01*
X112415970Y-135245671D01*
X112405480Y-135267850D01*
X112392868Y-135288893D01*
X112378253Y-135308599D01*
X112361777Y-135326777D01*
X112343599Y-135343253D01*
X112323893Y-135357868D01*
X112302850Y-135370480D01*
X112280671Y-135380970D01*
X112257572Y-135389235D01*
X112233773Y-135395196D01*
X112209505Y-135398796D01*
X112185001Y-135400000D01*
X111334999Y-135400000D01*
X111310495Y-135398796D01*
X111286227Y-135395196D01*
X111262428Y-135389235D01*
X111239329Y-135380970D01*
X111217150Y-135370480D01*
X111196107Y-135357868D01*
X111176401Y-135343253D01*
X111158223Y-135326777D01*
X111141747Y-135308599D01*
X111127132Y-135288893D01*
X111114520Y-135267850D01*
X111104030Y-135245671D01*
X111095765Y-135222572D01*
X111089804Y-135198773D01*
X111086204Y-135174505D01*
X111085000Y-135150001D01*
X111085000Y-134249999D01*
X111086204Y-134225495D01*
X111089804Y-134201227D01*
X111095765Y-134177428D01*
X111104030Y-134154329D01*
X111114520Y-134132150D01*
X111127132Y-134111107D01*
X111141747Y-134091401D01*
X111158223Y-134073223D01*
X111176401Y-134056747D01*
X111196107Y-134042132D01*
X111217150Y-134029520D01*
X111239329Y-134019030D01*
X111262428Y-134010765D01*
X111286227Y-134004804D01*
X111310495Y-134001204D01*
X111334999Y-134000000D01*
X112185001Y-134000000D01*
X112209505Y-134001204D01*
X112209505Y-134001204D01*
G37*
D24*
G04 #@! TD*
G04 #@! TO.P,C1,1*
G04 #@! TO.N,Vin*
X111760000Y-134700000D03*
D14*
G04 #@! TO.N,GND*
G04 #@! TO.C,C1*
G36*
X112209505Y-131301204D02*
X112233773Y-131304804D01*
X112257572Y-131310765D01*
X112280671Y-131319030D01*
X112302850Y-131329520D01*
X112323893Y-131342132D01*
X112343599Y-131356747D01*
X112361777Y-131373223D01*
X112378253Y-131391401D01*
X112392868Y-131411107D01*
X112405480Y-131432150D01*
X112415970Y-131454329D01*
X112424235Y-131477428D01*
X112430196Y-131501227D01*
X112433796Y-131525495D01*
X112435000Y-131549999D01*
X112435000Y-132450001D01*
X112433796Y-132474505D01*
X112430196Y-132498773D01*
X112424235Y-132522572D01*
X112415970Y-132545671D01*
X112405480Y-132567850D01*
X112392868Y-132588893D01*
X112378253Y-132608599D01*
X112361777Y-132626777D01*
X112343599Y-132643253D01*
X112323893Y-132657868D01*
X112302850Y-132670480D01*
X112280671Y-132680970D01*
X112257572Y-132689235D01*
X112233773Y-132695196D01*
X112209505Y-132698796D01*
X112185001Y-132700000D01*
X111334999Y-132700000D01*
X111310495Y-132698796D01*
X111286227Y-132695196D01*
X111262428Y-132689235D01*
X111239329Y-132680970D01*
X111217150Y-132670480D01*
X111196107Y-132657868D01*
X111176401Y-132643253D01*
X111158223Y-132626777D01*
X111141747Y-132608599D01*
X111127132Y-132588893D01*
X111114520Y-132567850D01*
X111104030Y-132545671D01*
X111095765Y-132522572D01*
X111089804Y-132498773D01*
X111086204Y-132474505D01*
X111085000Y-132450001D01*
X111085000Y-131549999D01*
X111086204Y-131525495D01*
X111089804Y-131501227D01*
X111095765Y-131477428D01*
X111104030Y-131454329D01*
X111114520Y-131432150D01*
X111127132Y-131411107D01*
X111141747Y-131391401D01*
X111158223Y-131373223D01*
X111176401Y-131356747D01*
X111196107Y-131342132D01*
X111217150Y-131329520D01*
X111239329Y-131319030D01*
X111262428Y-131310765D01*
X111286227Y-131304804D01*
X111310495Y-131301204D01*
X111334999Y-131300000D01*
X112185001Y-131300000D01*
X112209505Y-131301204D01*
X112209505Y-131301204D01*
G37*
D24*
G04 #@! TD*
G04 #@! TO.P,C1,2*
G04 #@! TO.N,GND*
X111760000Y-132000000D03*
D25*
G04 #@! TO.N,Vin*
X150244000Y-100714000D02*
X150244000Y-116332000D01*
X145970000Y-96440000D02*
X150244000Y-100714000D01*
X140240000Y-96440000D02*
X145970000Y-96440000D01*
X147066000Y-134874000D02*
X144526000Y-134874000D01*
X150244000Y-131696000D02*
X147066000Y-134874000D01*
X150244000Y-116332000D02*
X150244000Y-131696000D01*
D26*
X108030000Y-134700000D02*
X108025001Y-134695001D01*
X111760000Y-134700000D02*
X108030000Y-134700000D01*
X113887500Y-134700000D02*
X114300000Y-134287500D01*
X111760000Y-134700000D02*
X113887500Y-134700000D01*
X140240000Y-96440000D02*
X133430000Y-96440000D01*
X133430000Y-96440000D02*
X129540000Y-100330000D01*
X129540000Y-100330000D02*
X129540000Y-130302000D01*
X125142000Y-134700000D02*
X111760000Y-134700000D01*
X129540000Y-130302000D02*
X125142000Y-134700000D01*
D27*
G04 #@! TO.N,GND*
X135965001Y-114375001D02*
X138454001Y-114375001D01*
X138684000Y-113396000D02*
X138684000Y-114605000D01*
X138684000Y-114605000D02*
X139395000Y-115316000D01*
X140240000Y-111840000D02*
X138684000Y-113396000D01*
X138454001Y-114375001D02*
X138684000Y-114605000D01*
D25*
X134695001Y-119455001D02*
X135965001Y-119455001D01*
X135965001Y-114375001D02*
X134887371Y-114375001D01*
X134887371Y-114375001D02*
X133350000Y-115912372D01*
X133350000Y-115912372D02*
X133350000Y-118110000D01*
X133350000Y-118110000D02*
X134695001Y-119455001D01*
X135890000Y-132080000D02*
X135965001Y-132155001D01*
X133858000Y-132080000D02*
X135890000Y-132080000D01*
X133350000Y-131572000D02*
X133858000Y-132080000D01*
X133350000Y-118110000D02*
X133350000Y-131572000D01*
X108180002Y-132000000D02*
X108025001Y-132155001D01*
X111760000Y-132000000D02*
X108180002Y-132000000D01*
X113887500Y-132000000D02*
X114300000Y-132412500D01*
X111760000Y-132000000D02*
X113887500Y-132000000D01*
D27*
X137042631Y-119455001D02*
X135965001Y-119455001D01*
X142164999Y-119455001D02*
X137042631Y-119455001D01*
X142708000Y-118912000D02*
X142164999Y-119455001D01*
X142708000Y-117282000D02*
X142708000Y-118912000D01*
X111760000Y-123698000D02*
X111760000Y-132000000D01*
X110057001Y-121995001D02*
X111760000Y-123698000D01*
X108025001Y-121995001D02*
X110057001Y-121995001D01*
D25*
G04 #@! TO.N,Net-(D1-Pad1)*
X147444000Y-116332000D02*
X145328000Y-116332000D01*
X145328000Y-123912000D02*
X144526000Y-124714000D01*
X145328000Y-116332000D02*
X145328000Y-123912000D01*
D26*
G04 #@! TO.N,Net-(F1-Pad1)*
X173228000Y-117856000D02*
X180340000Y-124968000D01*
X172212000Y-117856000D02*
X173228000Y-117856000D01*
G04 #@! TO.N,Net-(F1-Pad2)*
X168910000Y-138684000D02*
X172212000Y-141986000D01*
X159766000Y-138684000D02*
X168910000Y-138684000D01*
G04 #@! TO.N,Net-(F2-Pad1)*
X170696000Y-107696000D02*
X169640000Y-106640000D01*
X174752000Y-107696000D02*
X170696000Y-107696000D01*
X173736000Y-108712000D02*
X174752000Y-107696000D01*
X173736000Y-112776000D02*
X173736000Y-108712000D01*
G04 #@! TO.N,Net-(F2-Pad2)*
X181864000Y-112148000D02*
X181236000Y-112776000D01*
X181864000Y-106172000D02*
X181864000Y-112148000D01*
G04 #@! TO.N,Net-(J2-Pad1)*
X178308000Y-133096000D02*
X180340000Y-135128000D01*
X170180000Y-133096000D02*
X178308000Y-133096000D01*
X157988000Y-120904000D02*
X170180000Y-133096000D01*
X157226000Y-120904000D02*
X157988000Y-120904000D01*
G04 #@! TO.N,Net-(J3-Pad1)*
X180968000Y-100196000D02*
X181864000Y-101092000D01*
X174752000Y-100196000D02*
X180968000Y-100196000D01*
X171084000Y-100196000D02*
X169640000Y-101640000D01*
X174752000Y-100196000D02*
X171084000Y-100196000D01*
D27*
G04 #@! TO.N,Net-(Q1-Pad1)*
X141036000Y-115382000D02*
X140970000Y-115316000D01*
X142708000Y-115382000D02*
X141036000Y-115382000D01*
X140995500Y-115341500D02*
X140970000Y-115316000D01*
X140995500Y-117094000D02*
X140995500Y-115341500D01*
G04 #@! TO.N,IO14*
X136144000Y-117094000D02*
X135965001Y-116915001D01*
X139420500Y-117094000D02*
X136144000Y-117094000D01*
G04 #@! TD*
D28*
G04 #@! TO.N,Net-(F1-Pad1)*
G36*
X172921566Y-116956392D02*
X182514118Y-122509975D01*
X183004209Y-124715380D01*
X182515920Y-127156823D01*
X180319390Y-127889000D01*
X178100981Y-127889000D01*
X176372691Y-126407608D01*
X171323000Y-118580587D01*
X171323000Y-117640452D01*
X171778172Y-116957694D01*
X172581282Y-116842964D01*
X172921566Y-116956392D01*
X172921566Y-116956392D01*
G37*
X172921566Y-116956392D02*
X182514118Y-122509975D01*
X183004209Y-124715380D01*
X182515920Y-127156823D01*
X180319390Y-127889000D01*
X178100981Y-127889000D01*
X176372691Y-126407608D01*
X171323000Y-118580587D01*
X171323000Y-117640452D01*
X171778172Y-116957694D01*
X172581282Y-116842964D01*
X172921566Y-116956392D01*
G04 #@! TO.N,Net-(F1-Pad2)*
G36*
X168744640Y-137282810D02*
X170235180Y-138028080D01*
X171362827Y-139030433D01*
X172361626Y-140029232D01*
X172974000Y-141253980D01*
X172974000Y-142656463D01*
X171937390Y-143002000D01*
X162442029Y-143002000D01*
X160709572Y-142754506D01*
X159852354Y-142019748D01*
X158977029Y-141144423D01*
X158359192Y-140155884D01*
X158115000Y-139301211D01*
X158115000Y-138858376D01*
X159696992Y-137033000D01*
X166995971Y-137033000D01*
X168744640Y-137282810D01*
X168744640Y-137282810D01*
G37*
X168744640Y-137282810D02*
X170235180Y-138028080D01*
X171362827Y-139030433D01*
X172361626Y-140029232D01*
X172974000Y-141253980D01*
X172974000Y-142656463D01*
X171937390Y-143002000D01*
X162442029Y-143002000D01*
X160709572Y-142754506D01*
X159852354Y-142019748D01*
X158977029Y-141144423D01*
X158359192Y-140155884D01*
X158115000Y-139301211D01*
X158115000Y-138858376D01*
X159696992Y-137033000D01*
X166995971Y-137033000D01*
X168744640Y-137282810D01*
G04 #@! TO.N,Net-(J2-Pad1)*
G36*
X158175361Y-119456294D02*
X171875718Y-128209300D01*
X171884510Y-128214434D01*
X175948510Y-130373434D01*
X175970450Y-130382571D01*
X179649935Y-131524480D01*
X181642592Y-132271726D01*
X183241118Y-134485071D01*
X183000702Y-136167989D01*
X181160645Y-137885375D01*
X178181480Y-138133639D01*
X175796864Y-137380603D01*
X173899749Y-136621757D01*
X169602685Y-134599609D01*
X155802051Y-121938477D01*
X155570060Y-121010511D01*
X155912926Y-120439067D01*
X157368791Y-119225846D01*
X158175361Y-119456294D01*
X158175361Y-119456294D01*
G37*
X158175361Y-119456294D02*
X171875718Y-128209300D01*
X171884510Y-128214434D01*
X175948510Y-130373434D01*
X175970450Y-130382571D01*
X179649935Y-131524480D01*
X181642592Y-132271726D01*
X183241118Y-134485071D01*
X183000702Y-136167989D01*
X181160645Y-137885375D01*
X178181480Y-138133639D01*
X175796864Y-137380603D01*
X173899749Y-136621757D01*
X169602685Y-134599609D01*
X155802051Y-121938477D01*
X155570060Y-121010511D01*
X155912926Y-120439067D01*
X157368791Y-119225846D01*
X158175361Y-119456294D01*
G04 #@! TO.N,GND*
G36*
X152273000Y-144070000D02*
X107390000Y-144070000D01*
X107390000Y-140445866D01*
X110649000Y-140445866D01*
X110649000Y-141494134D01*
X111050155Y-142462608D01*
X111791392Y-143203845D01*
X112759866Y-143605000D01*
X113808134Y-143605000D01*
X114776608Y-143203845D01*
X115517845Y-142462608D01*
X115919000Y-141494134D01*
X115919000Y-140445866D01*
X115517845Y-139477392D01*
X114776608Y-138736155D01*
X113808134Y-138335000D01*
X112759866Y-138335000D01*
X111791392Y-138736155D01*
X111050155Y-139477392D01*
X110649000Y-140445866D01*
X107390000Y-140445866D01*
X107390000Y-135944077D01*
X107413574Y-135953842D01*
X107489600Y-136004641D01*
X107579279Y-136022479D01*
X107747120Y-136092001D01*
X107928790Y-136092001D01*
X108030000Y-136112133D01*
X108131211Y-136092001D01*
X108302882Y-136092001D01*
X108319784Y-136085000D01*
X113751093Y-136085000D01*
X113887500Y-136112133D01*
X114023907Y-136085000D01*
X125005593Y-136085000D01*
X125142000Y-136112133D01*
X125278407Y-136085000D01*
X125682400Y-136004641D01*
X126140529Y-135698529D01*
X126217799Y-135582886D01*
X127383565Y-134417120D01*
X134568001Y-134417120D01*
X134568001Y-134972882D01*
X134780681Y-135486338D01*
X135173664Y-135879321D01*
X135687120Y-136092001D01*
X136242882Y-136092001D01*
X136756338Y-135879321D01*
X137149321Y-135486338D01*
X137362001Y-134972882D01*
X137362001Y-134417120D01*
X137149321Y-133903664D01*
X136756338Y-133510681D01*
X136242882Y-133298001D01*
X135687120Y-133298001D01*
X135173664Y-133510681D01*
X134780681Y-133903664D01*
X134568001Y-134417120D01*
X127383565Y-134417120D01*
X130422888Y-131377798D01*
X130538529Y-131300529D01*
X130844641Y-130842400D01*
X130925000Y-130438407D01*
X130952133Y-130302001D01*
X130925000Y-130165595D01*
X130925000Y-121717120D01*
X134568001Y-121717120D01*
X134568001Y-122272882D01*
X134780681Y-122786338D01*
X135173664Y-123179321D01*
X135380514Y-123265001D01*
X135173664Y-123350681D01*
X134780681Y-123743664D01*
X134568001Y-124257120D01*
X134568001Y-124812882D01*
X134780681Y-125326338D01*
X135173664Y-125719321D01*
X135380514Y-125805001D01*
X135173664Y-125890681D01*
X134780681Y-126283664D01*
X134568001Y-126797120D01*
X134568001Y-127352882D01*
X134780681Y-127866338D01*
X135173664Y-128259321D01*
X135380514Y-128345001D01*
X135173664Y-128430681D01*
X134780681Y-128823664D01*
X134568001Y-129337120D01*
X134568001Y-129892882D01*
X134780681Y-130406338D01*
X135173664Y-130799321D01*
X135687120Y-131012001D01*
X136242882Y-131012001D01*
X136756338Y-130799321D01*
X137149321Y-130406338D01*
X137362001Y-129892882D01*
X137362001Y-129337120D01*
X137149321Y-128823664D01*
X136756338Y-128430681D01*
X136549488Y-128345001D01*
X136756338Y-128259321D01*
X137149321Y-127866338D01*
X137362001Y-127352882D01*
X137362001Y-126797120D01*
X137149321Y-126283664D01*
X136756338Y-125890681D01*
X136549488Y-125805001D01*
X136756338Y-125719321D01*
X137149321Y-125326338D01*
X137362001Y-124812882D01*
X137362001Y-124368887D01*
X142791000Y-124368887D01*
X142791000Y-125059113D01*
X143055138Y-125696799D01*
X143543201Y-126184862D01*
X144180887Y-126449000D01*
X144871113Y-126449000D01*
X145508799Y-126184862D01*
X145996862Y-125696799D01*
X146261000Y-125059113D01*
X146261000Y-124558612D01*
X146397146Y-124354855D01*
X146463000Y-124023783D01*
X146485235Y-123912001D01*
X146463000Y-123800219D01*
X146463000Y-117467000D01*
X146626544Y-117467000D01*
X146646235Y-117480157D01*
X146894000Y-117529440D01*
X147994000Y-117529440D01*
X148241765Y-117480157D01*
X148451809Y-117339809D01*
X148592157Y-117129765D01*
X148641440Y-116882000D01*
X148641440Y-115782000D01*
X148592157Y-115534235D01*
X148451809Y-115324191D01*
X148241765Y-115183843D01*
X147994000Y-115134560D01*
X146894000Y-115134560D01*
X146646235Y-115183843D01*
X146626544Y-115197000D01*
X145439783Y-115197000D01*
X145328000Y-115174765D01*
X145216217Y-115197000D01*
X144885145Y-115262854D01*
X144740414Y-115359560D01*
X144718000Y-115359560D01*
X144470235Y-115408843D01*
X144260191Y-115549191D01*
X144119843Y-115759235D01*
X144070560Y-116007000D01*
X144070560Y-116657000D01*
X144119843Y-116904765D01*
X144193000Y-117014251D01*
X144193001Y-122979000D01*
X144180887Y-122979000D01*
X143543201Y-123243138D01*
X143055138Y-123731201D01*
X142791000Y-124368887D01*
X137362001Y-124368887D01*
X137362001Y-124257120D01*
X137149321Y-123743664D01*
X136756338Y-123350681D01*
X136549488Y-123265001D01*
X136756338Y-123179321D01*
X137149321Y-122786338D01*
X137362001Y-122272882D01*
X137362001Y-121717120D01*
X137149321Y-121203664D01*
X136756338Y-120810681D01*
X136242882Y-120598001D01*
X135687120Y-120598001D01*
X135173664Y-120810681D01*
X134780681Y-121203664D01*
X134568001Y-121717120D01*
X130925000Y-121717120D01*
X130925000Y-116637120D01*
X134568001Y-116637120D01*
X134568001Y-117192882D01*
X134780681Y-117706338D01*
X135173664Y-118099321D01*
X135687120Y-118312001D01*
X136242882Y-118312001D01*
X136756338Y-118099321D01*
X136876659Y-117979000D01*
X138613597Y-117979000D01*
X138870273Y-118150505D01*
X139201750Y-118216440D01*
X139639250Y-118216440D01*
X139970727Y-118150505D01*
X140208000Y-117991964D01*
X140445273Y-118150505D01*
X140776750Y-118216440D01*
X141214250Y-118216440D01*
X141545727Y-118150505D01*
X141826739Y-117962739D01*
X142014505Y-117681727D01*
X142080440Y-117350250D01*
X142080440Y-116837750D01*
X142014505Y-116506273D01*
X141884705Y-116312013D01*
X142098000Y-116354440D01*
X143318000Y-116354440D01*
X143565765Y-116305157D01*
X143775809Y-116164809D01*
X143916157Y-115954765D01*
X143965440Y-115707000D01*
X143965440Y-115057000D01*
X143916157Y-114809235D01*
X143775809Y-114599191D01*
X143565765Y-114458843D01*
X143318000Y-114409560D01*
X142098000Y-114409560D01*
X141850235Y-114458843D01*
X141821712Y-114477901D01*
X141801239Y-114447261D01*
X141520227Y-114259495D01*
X141188750Y-114193560D01*
X140751250Y-114193560D01*
X140419773Y-114259495D01*
X140138761Y-114447261D01*
X139950995Y-114728273D01*
X139885060Y-115059750D01*
X139885060Y-115572250D01*
X139950995Y-115903727D01*
X140096552Y-116121568D01*
X139970727Y-116037495D01*
X139639250Y-115971560D01*
X139201750Y-115971560D01*
X138870273Y-116037495D01*
X138613597Y-116209000D01*
X137184668Y-116209000D01*
X137149321Y-116123664D01*
X136756338Y-115730681D01*
X136242882Y-115518001D01*
X135687120Y-115518001D01*
X135173664Y-115730681D01*
X134780681Y-116123664D01*
X134568001Y-116637120D01*
X130925000Y-116637120D01*
X130925000Y-100903685D01*
X134003686Y-97825000D01*
X135477085Y-97825000D01*
X135173664Y-97950681D01*
X134780681Y-98343664D01*
X134568001Y-98857120D01*
X134568001Y-99412882D01*
X134780681Y-99926338D01*
X135173664Y-100319321D01*
X135380514Y-100405001D01*
X135173664Y-100490681D01*
X134780681Y-100883664D01*
X134568001Y-101397120D01*
X134568001Y-101952882D01*
X134780681Y-102466338D01*
X135173664Y-102859321D01*
X135380514Y-102945001D01*
X135173664Y-103030681D01*
X134780681Y-103423664D01*
X134568001Y-103937120D01*
X134568001Y-104492882D01*
X134780681Y-105006338D01*
X135173664Y-105399321D01*
X135380514Y-105485001D01*
X135173664Y-105570681D01*
X134780681Y-105963664D01*
X134568001Y-106477120D01*
X134568001Y-107032882D01*
X134780681Y-107546338D01*
X135173664Y-107939321D01*
X135380514Y-108025001D01*
X135173664Y-108110681D01*
X134780681Y-108503664D01*
X134568001Y-109017120D01*
X134568001Y-109572882D01*
X134780681Y-110086338D01*
X135173664Y-110479321D01*
X135380514Y-110565001D01*
X135173664Y-110650681D01*
X134780681Y-111043664D01*
X134568001Y-111557120D01*
X134568001Y-112112882D01*
X134780681Y-112626338D01*
X135173664Y-113019321D01*
X135687120Y-113232001D01*
X136242882Y-113232001D01*
X136756338Y-113019321D01*
X137149321Y-112626338D01*
X137362001Y-112112882D01*
X137362001Y-111557120D01*
X137149321Y-111043664D01*
X136756338Y-110650681D01*
X136549488Y-110565001D01*
X136756338Y-110479321D01*
X137149321Y-110086338D01*
X137362001Y-109572882D01*
X137362001Y-109017120D01*
X137149321Y-108503664D01*
X136756338Y-108110681D01*
X136549488Y-108025001D01*
X136756338Y-107939321D01*
X137149321Y-107546338D01*
X137362001Y-107032882D01*
X137362001Y-106477120D01*
X137149321Y-105963664D01*
X136756338Y-105570681D01*
X136549488Y-105485001D01*
X136756338Y-105399321D01*
X137149321Y-105006338D01*
X137362001Y-104492882D01*
X137362001Y-103937120D01*
X137149321Y-103423664D01*
X136756338Y-103030681D01*
X136549488Y-102945001D01*
X136756338Y-102859321D01*
X137149321Y-102466338D01*
X137362001Y-101952882D01*
X137362001Y-101397120D01*
X137149321Y-100883664D01*
X136756338Y-100490681D01*
X136549488Y-100405001D01*
X136756338Y-100319321D01*
X137149321Y-99926338D01*
X137362001Y-99412882D01*
X137362001Y-98857120D01*
X137149321Y-98343664D01*
X136756338Y-97950681D01*
X136452917Y-97825000D01*
X138959207Y-97825000D01*
X139172233Y-98038026D01*
X139865050Y-98325000D01*
X140614950Y-98325000D01*
X141307767Y-98038026D01*
X141770793Y-97575000D01*
X145499869Y-97575000D01*
X149109000Y-101184132D01*
X149109001Y-115514543D01*
X149095843Y-115534235D01*
X149046560Y-115782000D01*
X149046560Y-116882000D01*
X149095843Y-117129765D01*
X149109000Y-117149456D01*
X149109001Y-131225867D01*
X146595869Y-133739000D01*
X145844661Y-133739000D01*
X145508799Y-133403138D01*
X144871113Y-133139000D01*
X144180887Y-133139000D01*
X143543201Y-133403138D01*
X143055138Y-133891201D01*
X142791000Y-134528887D01*
X142791000Y-135219113D01*
X143055138Y-135856799D01*
X143543201Y-136344862D01*
X144180887Y-136609000D01*
X144871113Y-136609000D01*
X145508799Y-136344862D01*
X145844661Y-136009000D01*
X146954217Y-136009000D01*
X147066000Y-136031235D01*
X147177783Y-136009000D01*
X147508855Y-135943146D01*
X147884289Y-135692289D01*
X147947613Y-135597518D01*
X150967521Y-132577611D01*
X151062289Y-132514289D01*
X151313146Y-132138855D01*
X151379000Y-131807783D01*
X151401235Y-131696000D01*
X151379000Y-131584217D01*
X151379000Y-117149456D01*
X151392157Y-117129765D01*
X151441440Y-116882000D01*
X151441440Y-115782000D01*
X151392157Y-115534235D01*
X151379000Y-115514544D01*
X151379000Y-100825783D01*
X151401235Y-100714000D01*
X151313146Y-100271145D01*
X151261327Y-100193593D01*
X151062289Y-99895711D01*
X150967522Y-99832390D01*
X146851613Y-95716482D01*
X146788289Y-95621711D01*
X146412855Y-95370854D01*
X146081783Y-95305000D01*
X145970000Y-95282765D01*
X145858217Y-95305000D01*
X141770793Y-95305000D01*
X141307767Y-94841974D01*
X140940869Y-94690000D01*
X152273000Y-94690000D01*
X152273000Y-144070000D01*
X152273000Y-144070000D01*
G37*
X152273000Y-144070000D02*
X107390000Y-144070000D01*
X107390000Y-140445866D01*
X110649000Y-140445866D01*
X110649000Y-141494134D01*
X111050155Y-142462608D01*
X111791392Y-143203845D01*
X112759866Y-143605000D01*
X113808134Y-143605000D01*
X114776608Y-143203845D01*
X115517845Y-142462608D01*
X115919000Y-141494134D01*
X115919000Y-140445866D01*
X115517845Y-139477392D01*
X114776608Y-138736155D01*
X113808134Y-138335000D01*
X112759866Y-138335000D01*
X111791392Y-138736155D01*
X111050155Y-139477392D01*
X110649000Y-140445866D01*
X107390000Y-140445866D01*
X107390000Y-135944077D01*
X107413574Y-135953842D01*
X107489600Y-136004641D01*
X107579279Y-136022479D01*
X107747120Y-136092001D01*
X107928790Y-136092001D01*
X108030000Y-136112133D01*
X108131211Y-136092001D01*
X108302882Y-136092001D01*
X108319784Y-136085000D01*
X113751093Y-136085000D01*
X113887500Y-136112133D01*
X114023907Y-136085000D01*
X125005593Y-136085000D01*
X125142000Y-136112133D01*
X125278407Y-136085000D01*
X125682400Y-136004641D01*
X126140529Y-135698529D01*
X126217799Y-135582886D01*
X127383565Y-134417120D01*
X134568001Y-134417120D01*
X134568001Y-134972882D01*
X134780681Y-135486338D01*
X135173664Y-135879321D01*
X135687120Y-136092001D01*
X136242882Y-136092001D01*
X136756338Y-135879321D01*
X137149321Y-135486338D01*
X137362001Y-134972882D01*
X137362001Y-134417120D01*
X137149321Y-133903664D01*
X136756338Y-133510681D01*
X136242882Y-133298001D01*
X135687120Y-133298001D01*
X135173664Y-133510681D01*
X134780681Y-133903664D01*
X134568001Y-134417120D01*
X127383565Y-134417120D01*
X130422888Y-131377798D01*
X130538529Y-131300529D01*
X130844641Y-130842400D01*
X130925000Y-130438407D01*
X130952133Y-130302001D01*
X130925000Y-130165595D01*
X130925000Y-121717120D01*
X134568001Y-121717120D01*
X134568001Y-122272882D01*
X134780681Y-122786338D01*
X135173664Y-123179321D01*
X135380514Y-123265001D01*
X135173664Y-123350681D01*
X134780681Y-123743664D01*
X134568001Y-124257120D01*
X134568001Y-124812882D01*
X134780681Y-125326338D01*
X135173664Y-125719321D01*
X135380514Y-125805001D01*
X135173664Y-125890681D01*
X134780681Y-126283664D01*
X134568001Y-126797120D01*
X134568001Y-127352882D01*
X134780681Y-127866338D01*
X135173664Y-128259321D01*
X135380514Y-128345001D01*
X135173664Y-128430681D01*
X134780681Y-128823664D01*
X134568001Y-129337120D01*
X134568001Y-129892882D01*
X134780681Y-130406338D01*
X135173664Y-130799321D01*
X135687120Y-131012001D01*
X136242882Y-131012001D01*
X136756338Y-130799321D01*
X137149321Y-130406338D01*
X137362001Y-129892882D01*
X137362001Y-129337120D01*
X137149321Y-128823664D01*
X136756338Y-128430681D01*
X136549488Y-128345001D01*
X136756338Y-128259321D01*
X137149321Y-127866338D01*
X137362001Y-127352882D01*
X137362001Y-126797120D01*
X137149321Y-126283664D01*
X136756338Y-125890681D01*
X136549488Y-125805001D01*
X136756338Y-125719321D01*
X137149321Y-125326338D01*
X137362001Y-124812882D01*
X137362001Y-124368887D01*
X142791000Y-124368887D01*
X142791000Y-125059113D01*
X143055138Y-125696799D01*
X143543201Y-126184862D01*
X144180887Y-126449000D01*
X144871113Y-126449000D01*
X145508799Y-126184862D01*
X145996862Y-125696799D01*
X146261000Y-125059113D01*
X146261000Y-124558612D01*
X146397146Y-124354855D01*
X146463000Y-124023783D01*
X146485235Y-123912001D01*
X146463000Y-123800219D01*
X146463000Y-117467000D01*
X146626544Y-117467000D01*
X146646235Y-117480157D01*
X146894000Y-117529440D01*
X147994000Y-117529440D01*
X148241765Y-117480157D01*
X148451809Y-117339809D01*
X148592157Y-117129765D01*
X148641440Y-116882000D01*
X148641440Y-115782000D01*
X148592157Y-115534235D01*
X148451809Y-115324191D01*
X148241765Y-115183843D01*
X147994000Y-115134560D01*
X146894000Y-115134560D01*
X146646235Y-115183843D01*
X146626544Y-115197000D01*
X145439783Y-115197000D01*
X145328000Y-115174765D01*
X145216217Y-115197000D01*
X144885145Y-115262854D01*
X144740414Y-115359560D01*
X144718000Y-115359560D01*
X144470235Y-115408843D01*
X144260191Y-115549191D01*
X144119843Y-115759235D01*
X144070560Y-116007000D01*
X144070560Y-116657000D01*
X144119843Y-116904765D01*
X144193000Y-117014251D01*
X144193001Y-122979000D01*
X144180887Y-122979000D01*
X143543201Y-123243138D01*
X143055138Y-123731201D01*
X142791000Y-124368887D01*
X137362001Y-124368887D01*
X137362001Y-124257120D01*
X137149321Y-123743664D01*
X136756338Y-123350681D01*
X136549488Y-123265001D01*
X136756338Y-123179321D01*
X137149321Y-122786338D01*
X137362001Y-122272882D01*
X137362001Y-121717120D01*
X137149321Y-121203664D01*
X136756338Y-120810681D01*
X136242882Y-120598001D01*
X135687120Y-120598001D01*
X135173664Y-120810681D01*
X134780681Y-121203664D01*
X134568001Y-121717120D01*
X130925000Y-121717120D01*
X130925000Y-116637120D01*
X134568001Y-116637120D01*
X134568001Y-117192882D01*
X134780681Y-117706338D01*
X135173664Y-118099321D01*
X135687120Y-118312001D01*
X136242882Y-118312001D01*
X136756338Y-118099321D01*
X136876659Y-117979000D01*
X138613597Y-117979000D01*
X138870273Y-118150505D01*
X139201750Y-118216440D01*
X139639250Y-118216440D01*
X139970727Y-118150505D01*
X140208000Y-117991964D01*
X140445273Y-118150505D01*
X140776750Y-118216440D01*
X141214250Y-118216440D01*
X141545727Y-118150505D01*
X141826739Y-117962739D01*
X142014505Y-117681727D01*
X142080440Y-117350250D01*
X142080440Y-116837750D01*
X142014505Y-116506273D01*
X141884705Y-116312013D01*
X142098000Y-116354440D01*
X143318000Y-116354440D01*
X143565765Y-116305157D01*
X143775809Y-116164809D01*
X143916157Y-115954765D01*
X143965440Y-115707000D01*
X143965440Y-115057000D01*
X143916157Y-114809235D01*
X143775809Y-114599191D01*
X143565765Y-114458843D01*
X143318000Y-114409560D01*
X142098000Y-114409560D01*
X141850235Y-114458843D01*
X141821712Y-114477901D01*
X141801239Y-114447261D01*
X141520227Y-114259495D01*
X141188750Y-114193560D01*
X140751250Y-114193560D01*
X140419773Y-114259495D01*
X140138761Y-114447261D01*
X139950995Y-114728273D01*
X139885060Y-115059750D01*
X139885060Y-115572250D01*
X139950995Y-115903727D01*
X140096552Y-116121568D01*
X139970727Y-116037495D01*
X139639250Y-115971560D01*
X139201750Y-115971560D01*
X138870273Y-116037495D01*
X138613597Y-116209000D01*
X137184668Y-116209000D01*
X137149321Y-116123664D01*
X136756338Y-115730681D01*
X136242882Y-115518001D01*
X135687120Y-115518001D01*
X135173664Y-115730681D01*
X134780681Y-116123664D01*
X134568001Y-116637120D01*
X130925000Y-116637120D01*
X130925000Y-100903685D01*
X134003686Y-97825000D01*
X135477085Y-97825000D01*
X135173664Y-97950681D01*
X134780681Y-98343664D01*
X134568001Y-98857120D01*
X134568001Y-99412882D01*
X134780681Y-99926338D01*
X135173664Y-100319321D01*
X135380514Y-100405001D01*
X135173664Y-100490681D01*
X134780681Y-100883664D01*
X134568001Y-101397120D01*
X134568001Y-101952882D01*
X134780681Y-102466338D01*
X135173664Y-102859321D01*
X135380514Y-102945001D01*
X135173664Y-103030681D01*
X134780681Y-103423664D01*
X134568001Y-103937120D01*
X134568001Y-104492882D01*
X134780681Y-105006338D01*
X135173664Y-105399321D01*
X135380514Y-105485001D01*
X135173664Y-105570681D01*
X134780681Y-105963664D01*
X134568001Y-106477120D01*
X134568001Y-107032882D01*
X134780681Y-107546338D01*
X135173664Y-107939321D01*
X135380514Y-108025001D01*
X135173664Y-108110681D01*
X134780681Y-108503664D01*
X134568001Y-109017120D01*
X134568001Y-109572882D01*
X134780681Y-110086338D01*
X135173664Y-110479321D01*
X135380514Y-110565001D01*
X135173664Y-110650681D01*
X134780681Y-111043664D01*
X134568001Y-111557120D01*
X134568001Y-112112882D01*
X134780681Y-112626338D01*
X135173664Y-113019321D01*
X135687120Y-113232001D01*
X136242882Y-113232001D01*
X136756338Y-113019321D01*
X137149321Y-112626338D01*
X137362001Y-112112882D01*
X137362001Y-111557120D01*
X137149321Y-111043664D01*
X136756338Y-110650681D01*
X136549488Y-110565001D01*
X136756338Y-110479321D01*
X137149321Y-110086338D01*
X137362001Y-109572882D01*
X137362001Y-109017120D01*
X137149321Y-108503664D01*
X136756338Y-108110681D01*
X136549488Y-108025001D01*
X136756338Y-107939321D01*
X137149321Y-107546338D01*
X137362001Y-107032882D01*
X137362001Y-106477120D01*
X137149321Y-105963664D01*
X136756338Y-105570681D01*
X136549488Y-105485001D01*
X136756338Y-105399321D01*
X137149321Y-105006338D01*
X137362001Y-104492882D01*
X137362001Y-103937120D01*
X137149321Y-103423664D01*
X136756338Y-103030681D01*
X136549488Y-102945001D01*
X136756338Y-102859321D01*
X137149321Y-102466338D01*
X137362001Y-101952882D01*
X137362001Y-101397120D01*
X137149321Y-100883664D01*
X136756338Y-100490681D01*
X136549488Y-100405001D01*
X136756338Y-100319321D01*
X137149321Y-99926338D01*
X137362001Y-99412882D01*
X137362001Y-98857120D01*
X137149321Y-98343664D01*
X136756338Y-97950681D01*
X136452917Y-97825000D01*
X138959207Y-97825000D01*
X139172233Y-98038026D01*
X139865050Y-98325000D01*
X140614950Y-98325000D01*
X141307767Y-98038026D01*
X141770793Y-97575000D01*
X145499869Y-97575000D01*
X149109000Y-101184132D01*
X149109001Y-115514543D01*
X149095843Y-115534235D01*
X149046560Y-115782000D01*
X149046560Y-116882000D01*
X149095843Y-117129765D01*
X149109000Y-117149456D01*
X149109001Y-131225867D01*
X146595869Y-133739000D01*
X145844661Y-133739000D01*
X145508799Y-133403138D01*
X144871113Y-133139000D01*
X144180887Y-133139000D01*
X143543201Y-133403138D01*
X143055138Y-133891201D01*
X142791000Y-134528887D01*
X142791000Y-135219113D01*
X143055138Y-135856799D01*
X143543201Y-136344862D01*
X144180887Y-136609000D01*
X144871113Y-136609000D01*
X145508799Y-136344862D01*
X145844661Y-136009000D01*
X146954217Y-136009000D01*
X147066000Y-136031235D01*
X147177783Y-136009000D01*
X147508855Y-135943146D01*
X147884289Y-135692289D01*
X147947613Y-135597518D01*
X150967521Y-132577611D01*
X151062289Y-132514289D01*
X151313146Y-132138855D01*
X151379000Y-131807783D01*
X151401235Y-131696000D01*
X151379000Y-131584217D01*
X151379000Y-117149456D01*
X151392157Y-117129765D01*
X151441440Y-116882000D01*
X151441440Y-115782000D01*
X151392157Y-115534235D01*
X151379000Y-115514544D01*
X151379000Y-100825783D01*
X151401235Y-100714000D01*
X151313146Y-100271145D01*
X151261327Y-100193593D01*
X151062289Y-99895711D01*
X150967522Y-99832390D01*
X146851613Y-95716482D01*
X146788289Y-95621711D01*
X146412855Y-95370854D01*
X146081783Y-95305000D01*
X145970000Y-95282765D01*
X145858217Y-95305000D01*
X141770793Y-95305000D01*
X141307767Y-94841974D01*
X140940869Y-94690000D01*
X152273000Y-94690000D01*
X152273000Y-144070000D01*
G36*
X116332000Y-99949000D02*
X116341667Y-99997601D01*
X116369197Y-100038803D01*
X116410399Y-100066333D01*
X116459000Y-100076000D01*
X127508000Y-100076000D01*
X127556601Y-100066333D01*
X127597803Y-100038803D01*
X127625333Y-99997601D01*
X127635000Y-99949000D01*
X127635000Y-94690000D01*
X139539131Y-94690000D01*
X139172233Y-94841974D01*
X138959207Y-95055000D01*
X133566407Y-95055000D01*
X133430000Y-95027867D01*
X133293593Y-95055000D01*
X132889600Y-95135359D01*
X132431471Y-95441471D01*
X132354202Y-95557112D01*
X128657112Y-99254203D01*
X128541471Y-99331472D01*
X128464203Y-99447112D01*
X128235359Y-99789601D01*
X128127867Y-100330000D01*
X128155000Y-100466407D01*
X128155001Y-129728313D01*
X124568315Y-133315000D01*
X115315919Y-133315000D01*
X115298528Y-133288972D01*
X114840399Y-132982860D01*
X114299999Y-132875367D01*
X113759600Y-132982860D01*
X113417112Y-133211703D01*
X113313815Y-133315000D01*
X108343921Y-133315000D01*
X108302882Y-133298001D01*
X108101080Y-133298001D01*
X108025001Y-133282868D01*
X107948922Y-133298001D01*
X107747120Y-133298001D01*
X107560678Y-133375227D01*
X107484602Y-133390360D01*
X107420108Y-133433453D01*
X107390000Y-133445925D01*
X107390000Y-130864077D01*
X107747120Y-131012001D01*
X108302882Y-131012001D01*
X108816338Y-130799321D01*
X109209321Y-130406338D01*
X109422001Y-129892882D01*
X109422001Y-129337120D01*
X109209321Y-128823664D01*
X108816338Y-128430681D01*
X108609488Y-128345001D01*
X108816338Y-128259321D01*
X109209321Y-127866338D01*
X109422001Y-127352882D01*
X109422001Y-126797120D01*
X109209321Y-126283664D01*
X108816338Y-125890681D01*
X108609488Y-125805001D01*
X108816338Y-125719321D01*
X109209321Y-125326338D01*
X109422001Y-124812882D01*
X109422001Y-124257120D01*
X109209321Y-123743664D01*
X108816338Y-123350681D01*
X108302882Y-123138001D01*
X107747120Y-123138001D01*
X107390000Y-123285925D01*
X107390000Y-120704077D01*
X107747120Y-120852001D01*
X108302882Y-120852001D01*
X108816338Y-120639321D01*
X109209321Y-120246338D01*
X109422001Y-119732882D01*
X109422001Y-119177120D01*
X109209321Y-118663664D01*
X108816338Y-118270681D01*
X108609488Y-118185001D01*
X108816338Y-118099321D01*
X109209321Y-117706338D01*
X109422001Y-117192882D01*
X109422001Y-116637120D01*
X109209321Y-116123664D01*
X108816338Y-115730681D01*
X108609488Y-115645001D01*
X108816338Y-115559321D01*
X109209321Y-115166338D01*
X109422001Y-114652882D01*
X109422001Y-114097120D01*
X109209321Y-113583664D01*
X108816338Y-113190681D01*
X108609488Y-113105001D01*
X108816338Y-113019321D01*
X109209321Y-112626338D01*
X109422001Y-112112882D01*
X109422001Y-111557120D01*
X109209321Y-111043664D01*
X108816338Y-110650681D01*
X108609488Y-110565001D01*
X108816338Y-110479321D01*
X109209321Y-110086338D01*
X109422001Y-109572882D01*
X109422001Y-109017120D01*
X109209321Y-108503664D01*
X108816338Y-108110681D01*
X108609488Y-108025001D01*
X108816338Y-107939321D01*
X109209321Y-107546338D01*
X109422001Y-107032882D01*
X109422001Y-106477120D01*
X109209321Y-105963664D01*
X108816338Y-105570681D01*
X108609488Y-105485001D01*
X108816338Y-105399321D01*
X109209321Y-105006338D01*
X109422001Y-104492882D01*
X109422001Y-103937120D01*
X109209321Y-103423664D01*
X108816338Y-103030681D01*
X108609488Y-102945001D01*
X108816338Y-102859321D01*
X109209321Y-102466338D01*
X109422001Y-101952882D01*
X109422001Y-101397120D01*
X109209321Y-100883664D01*
X108816338Y-100490681D01*
X108609488Y-100405001D01*
X108816338Y-100319321D01*
X109209321Y-99926338D01*
X109422001Y-99412882D01*
X109422001Y-98857120D01*
X109209321Y-98343664D01*
X108816338Y-97950681D01*
X108389468Y-97773866D01*
X110903000Y-97773866D01*
X110903000Y-98822134D01*
X111304155Y-99790608D01*
X112045392Y-100531845D01*
X113013866Y-100933000D01*
X114062134Y-100933000D01*
X115030608Y-100531845D01*
X115771845Y-99790608D01*
X116173000Y-98822134D01*
X116173000Y-97773866D01*
X115771845Y-96805392D01*
X115030608Y-96064155D01*
X114062134Y-95663000D01*
X113013866Y-95663000D01*
X112045392Y-96064155D01*
X111304155Y-96805392D01*
X110903000Y-97773866D01*
X108389468Y-97773866D01*
X108302882Y-97738001D01*
X107747120Y-97738001D01*
X107390000Y-97885925D01*
X107390000Y-94690000D01*
X116332000Y-94690000D01*
X116332000Y-99949000D01*
X116332000Y-99949000D01*
G37*
X116332000Y-99949000D02*
X116341667Y-99997601D01*
X116369197Y-100038803D01*
X116410399Y-100066333D01*
X116459000Y-100076000D01*
X127508000Y-100076000D01*
X127556601Y-100066333D01*
X127597803Y-100038803D01*
X127625333Y-99997601D01*
X127635000Y-99949000D01*
X127635000Y-94690000D01*
X139539131Y-94690000D01*
X139172233Y-94841974D01*
X138959207Y-95055000D01*
X133566407Y-95055000D01*
X133430000Y-95027867D01*
X133293593Y-95055000D01*
X132889600Y-95135359D01*
X132431471Y-95441471D01*
X132354202Y-95557112D01*
X128657112Y-99254203D01*
X128541471Y-99331472D01*
X128464203Y-99447112D01*
X128235359Y-99789601D01*
X128127867Y-100330000D01*
X128155000Y-100466407D01*
X128155001Y-129728313D01*
X124568315Y-133315000D01*
X115315919Y-133315000D01*
X115298528Y-133288972D01*
X114840399Y-132982860D01*
X114299999Y-132875367D01*
X113759600Y-132982860D01*
X113417112Y-133211703D01*
X113313815Y-133315000D01*
X108343921Y-133315000D01*
X108302882Y-133298001D01*
X108101080Y-133298001D01*
X108025001Y-133282868D01*
X107948922Y-133298001D01*
X107747120Y-133298001D01*
X107560678Y-133375227D01*
X107484602Y-133390360D01*
X107420108Y-133433453D01*
X107390000Y-133445925D01*
X107390000Y-130864077D01*
X107747120Y-131012001D01*
X108302882Y-131012001D01*
X108816338Y-130799321D01*
X109209321Y-130406338D01*
X109422001Y-129892882D01*
X109422001Y-129337120D01*
X109209321Y-128823664D01*
X108816338Y-128430681D01*
X108609488Y-128345001D01*
X108816338Y-128259321D01*
X109209321Y-127866338D01*
X109422001Y-127352882D01*
X109422001Y-126797120D01*
X109209321Y-126283664D01*
X108816338Y-125890681D01*
X108609488Y-125805001D01*
X108816338Y-125719321D01*
X109209321Y-125326338D01*
X109422001Y-124812882D01*
X109422001Y-124257120D01*
X109209321Y-123743664D01*
X108816338Y-123350681D01*
X108302882Y-123138001D01*
X107747120Y-123138001D01*
X107390000Y-123285925D01*
X107390000Y-120704077D01*
X107747120Y-120852001D01*
X108302882Y-120852001D01*
X108816338Y-120639321D01*
X109209321Y-120246338D01*
X109422001Y-119732882D01*
X109422001Y-119177120D01*
X109209321Y-118663664D01*
X108816338Y-118270681D01*
X108609488Y-118185001D01*
X108816338Y-118099321D01*
X109209321Y-117706338D01*
X109422001Y-117192882D01*
X109422001Y-116637120D01*
X109209321Y-116123664D01*
X108816338Y-115730681D01*
X108609488Y-115645001D01*
X108816338Y-115559321D01*
X109209321Y-115166338D01*
X109422001Y-114652882D01*
X109422001Y-114097120D01*
X109209321Y-113583664D01*
X108816338Y-113190681D01*
X108609488Y-113105001D01*
X108816338Y-113019321D01*
X109209321Y-112626338D01*
X109422001Y-112112882D01*
X109422001Y-111557120D01*
X109209321Y-111043664D01*
X108816338Y-110650681D01*
X108609488Y-110565001D01*
X108816338Y-110479321D01*
X109209321Y-110086338D01*
X109422001Y-109572882D01*
X109422001Y-109017120D01*
X109209321Y-108503664D01*
X108816338Y-108110681D01*
X108609488Y-108025001D01*
X108816338Y-107939321D01*
X109209321Y-107546338D01*
X109422001Y-107032882D01*
X109422001Y-106477120D01*
X109209321Y-105963664D01*
X108816338Y-105570681D01*
X108609488Y-105485001D01*
X108816338Y-105399321D01*
X109209321Y-105006338D01*
X109422001Y-104492882D01*
X109422001Y-103937120D01*
X109209321Y-103423664D01*
X108816338Y-103030681D01*
X108609488Y-102945001D01*
X108816338Y-102859321D01*
X109209321Y-102466338D01*
X109422001Y-101952882D01*
X109422001Y-101397120D01*
X109209321Y-100883664D01*
X108816338Y-100490681D01*
X108609488Y-100405001D01*
X108816338Y-100319321D01*
X109209321Y-99926338D01*
X109422001Y-99412882D01*
X109422001Y-98857120D01*
X109209321Y-98343664D01*
X108816338Y-97950681D01*
X108389468Y-97773866D01*
X110903000Y-97773866D01*
X110903000Y-98822134D01*
X111304155Y-99790608D01*
X112045392Y-100531845D01*
X113013866Y-100933000D01*
X114062134Y-100933000D01*
X115030608Y-100531845D01*
X115771845Y-99790608D01*
X116173000Y-98822134D01*
X116173000Y-97773866D01*
X115771845Y-96805392D01*
X115030608Y-96064155D01*
X114062134Y-95663000D01*
X113013866Y-95663000D01*
X112045392Y-96064155D01*
X111304155Y-96805392D01*
X110903000Y-97773866D01*
X108389468Y-97773866D01*
X108302882Y-97738001D01*
X107747120Y-97738001D01*
X107390000Y-97885925D01*
X107390000Y-94690000D01*
X116332000Y-94690000D01*
X116332000Y-99949000D01*
G04 #@! TD*
M02*
