G04 #@! TF.GenerationSoftware,KiCad,Pcbnew,5.0.0-fee4fd1~66~ubuntu16.04.1*
G04 #@! TF.CreationDate,2018-12-09T19:38:54+07:00*
G04 #@! TF.ProjectId,master_circuit,6D61737465725F636972637569742E6B,rev?*
G04 #@! TF.SameCoordinates,Original*
G04 #@! TF.FileFunction,Soldermask,Bot*
G04 #@! TF.FilePolarity,Negative*
%FSLAX46Y46*%
G04 Gerber Fmt 4.6, Leading zero omitted, Abs format (unit mm)*
G04 Created by KiCad (PCBNEW 5.0.0-fee4fd1~66~ubuntu16.04.1) date Sun Dec  9 19:38:54 2018*
%MOMM*%
%LPD*%
G01*
G04 APERTURE LIST*
%ADD10C,4.400000*%
%ADD11C,2.400000*%
%ADD12O,2.400000X2.400000*%
%ADD13R,2.400000X2.400000*%
%ADD14O,7.900000X6.400000*%
%ADD15C,2.600000*%
%ADD16C,3.600000*%
%ADD17C,1.924000*%
%ADD18C,2.900000*%
G04 APERTURE END LIST*
D10*
G04 #@! TO.C,REF\002A\002A*
X113538000Y-98298000D03*
G04 #@! TD*
G04 #@! TO.C,REF\002A\002A*
X113284000Y-140970000D03*
G04 #@! TD*
G04 #@! TO.C,REF\002A\002A*
X179070000Y-142240000D03*
G04 #@! TD*
G04 #@! TO.C,REF\002A\002A*
X179578000Y-96520000D03*
G04 #@! TD*
D11*
G04 #@! TO.C,F2*
X173736000Y-112776000D03*
D12*
X181236000Y-112776000D03*
G04 #@! TD*
D13*
G04 #@! TO.C,J3*
X181864000Y-101092000D03*
D12*
X181864000Y-106172000D03*
G04 #@! TD*
D11*
G04 #@! TO.C,F1*
X172212000Y-117856000D03*
X172212000Y-141986000D03*
G04 #@! TD*
D14*
G04 #@! TO.C,J1*
X179832000Y-124968000D03*
G04 #@! TD*
G04 #@! TO.C,J2*
X179832000Y-135128000D03*
G04 #@! TD*
D15*
G04 #@! TO.C,K1*
X144526000Y-134874000D03*
X144526000Y-124714000D03*
D16*
X159766000Y-138684000D03*
X157226000Y-120904000D03*
G04 #@! TD*
D17*
G04 #@! TO.C,U1*
X108025001Y-99135001D03*
X108025001Y-101675001D03*
X108025001Y-104215001D03*
X108025001Y-106755001D03*
X108025001Y-109295001D03*
X108025001Y-111835001D03*
X108025001Y-114375001D03*
X108025001Y-116915001D03*
X108025001Y-119455001D03*
X108025001Y-121995001D03*
X108025001Y-124535001D03*
X108025001Y-127075001D03*
X108025001Y-129615001D03*
X108025001Y-132155001D03*
X108025001Y-134695001D03*
X135965001Y-134695001D03*
X135965001Y-132155001D03*
X135965001Y-129615001D03*
X135965001Y-127075001D03*
X135965001Y-124535001D03*
X135965001Y-121995001D03*
X135965001Y-119455001D03*
X135965001Y-116915001D03*
X135965001Y-114375001D03*
X135965001Y-111835001D03*
X135965001Y-109295001D03*
X135965001Y-106755001D03*
X135965001Y-104215001D03*
X135965001Y-101675001D03*
X135965001Y-99135001D03*
G04 #@! TD*
D18*
G04 #@! TO.C,U2*
X169640000Y-106640000D03*
X169640000Y-101640000D03*
X140240000Y-111840000D03*
X140240000Y-96440000D03*
G04 #@! TD*
D11*
G04 #@! TO.C,RV1*
X174752000Y-107696000D03*
X174752000Y-100196000D03*
G04 #@! TD*
M02*
