G04 #@! TF.GenerationSoftware,KiCad,Pcbnew,5.0.0-fee4fd1~66~ubuntu16.04.1*
G04 #@! TF.CreationDate,2018-12-09T19:38:54+07:00*
G04 #@! TF.ProjectId,master_circuit,6D61737465725F636972637569742E6B,rev?*
G04 #@! TF.SameCoordinates,Original*
G04 #@! TF.FileFunction,Paste,Top*
G04 #@! TF.FilePolarity,Positive*
%FSLAX46Y46*%
G04 Gerber Fmt 4.6, Leading zero omitted, Abs format (unit mm)*
G04 Created by KiCad (PCBNEW 5.0.0-fee4fd1~66~ubuntu16.04.1) date Sun Dec  9 19:38:54 2018*
%MOMM*%
%LPD*%
G01*
G04 APERTURE LIST*
%ADD10C,0.100000*%
%ADD11C,0.975000*%
%ADD12R,1.100000X1.100000*%
%ADD13C,0.875000*%
%ADD14R,1.220000X0.650000*%
%ADD15C,1.350000*%
G04 APERTURE END LIST*
D10*
G04 #@! TO.C,C2*
G36*
X114780142Y-131926174D02*
X114803803Y-131929684D01*
X114827007Y-131935496D01*
X114849529Y-131943554D01*
X114871153Y-131953782D01*
X114891670Y-131966079D01*
X114910883Y-131980329D01*
X114928607Y-131996393D01*
X114944671Y-132014117D01*
X114958921Y-132033330D01*
X114971218Y-132053847D01*
X114981446Y-132075471D01*
X114989504Y-132097993D01*
X114995316Y-132121197D01*
X114998826Y-132144858D01*
X115000000Y-132168750D01*
X115000000Y-132656250D01*
X114998826Y-132680142D01*
X114995316Y-132703803D01*
X114989504Y-132727007D01*
X114981446Y-132749529D01*
X114971218Y-132771153D01*
X114958921Y-132791670D01*
X114944671Y-132810883D01*
X114928607Y-132828607D01*
X114910883Y-132844671D01*
X114891670Y-132858921D01*
X114871153Y-132871218D01*
X114849529Y-132881446D01*
X114827007Y-132889504D01*
X114803803Y-132895316D01*
X114780142Y-132898826D01*
X114756250Y-132900000D01*
X113843750Y-132900000D01*
X113819858Y-132898826D01*
X113796197Y-132895316D01*
X113772993Y-132889504D01*
X113750471Y-132881446D01*
X113728847Y-132871218D01*
X113708330Y-132858921D01*
X113689117Y-132844671D01*
X113671393Y-132828607D01*
X113655329Y-132810883D01*
X113641079Y-132791670D01*
X113628782Y-132771153D01*
X113618554Y-132749529D01*
X113610496Y-132727007D01*
X113604684Y-132703803D01*
X113601174Y-132680142D01*
X113600000Y-132656250D01*
X113600000Y-132168750D01*
X113601174Y-132144858D01*
X113604684Y-132121197D01*
X113610496Y-132097993D01*
X113618554Y-132075471D01*
X113628782Y-132053847D01*
X113641079Y-132033330D01*
X113655329Y-132014117D01*
X113671393Y-131996393D01*
X113689117Y-131980329D01*
X113708330Y-131966079D01*
X113728847Y-131953782D01*
X113750471Y-131943554D01*
X113772993Y-131935496D01*
X113796197Y-131929684D01*
X113819858Y-131926174D01*
X113843750Y-131925000D01*
X114756250Y-131925000D01*
X114780142Y-131926174D01*
X114780142Y-131926174D01*
G37*
D11*
X114300000Y-132412500D03*
D10*
G36*
X114780142Y-133801174D02*
X114803803Y-133804684D01*
X114827007Y-133810496D01*
X114849529Y-133818554D01*
X114871153Y-133828782D01*
X114891670Y-133841079D01*
X114910883Y-133855329D01*
X114928607Y-133871393D01*
X114944671Y-133889117D01*
X114958921Y-133908330D01*
X114971218Y-133928847D01*
X114981446Y-133950471D01*
X114989504Y-133972993D01*
X114995316Y-133996197D01*
X114998826Y-134019858D01*
X115000000Y-134043750D01*
X115000000Y-134531250D01*
X114998826Y-134555142D01*
X114995316Y-134578803D01*
X114989504Y-134602007D01*
X114981446Y-134624529D01*
X114971218Y-134646153D01*
X114958921Y-134666670D01*
X114944671Y-134685883D01*
X114928607Y-134703607D01*
X114910883Y-134719671D01*
X114891670Y-134733921D01*
X114871153Y-134746218D01*
X114849529Y-134756446D01*
X114827007Y-134764504D01*
X114803803Y-134770316D01*
X114780142Y-134773826D01*
X114756250Y-134775000D01*
X113843750Y-134775000D01*
X113819858Y-134773826D01*
X113796197Y-134770316D01*
X113772993Y-134764504D01*
X113750471Y-134756446D01*
X113728847Y-134746218D01*
X113708330Y-134733921D01*
X113689117Y-134719671D01*
X113671393Y-134703607D01*
X113655329Y-134685883D01*
X113641079Y-134666670D01*
X113628782Y-134646153D01*
X113618554Y-134624529D01*
X113610496Y-134602007D01*
X113604684Y-134578803D01*
X113601174Y-134555142D01*
X113600000Y-134531250D01*
X113600000Y-134043750D01*
X113601174Y-134019858D01*
X113604684Y-133996197D01*
X113610496Y-133972993D01*
X113618554Y-133950471D01*
X113628782Y-133928847D01*
X113641079Y-133908330D01*
X113655329Y-133889117D01*
X113671393Y-133871393D01*
X113689117Y-133855329D01*
X113708330Y-133841079D01*
X113728847Y-133828782D01*
X113750471Y-133818554D01*
X113772993Y-133810496D01*
X113796197Y-133804684D01*
X113819858Y-133801174D01*
X113843750Y-133800000D01*
X114756250Y-133800000D01*
X114780142Y-133801174D01*
X114780142Y-133801174D01*
G37*
D11*
X114300000Y-134287500D03*
G04 #@! TD*
D12*
G04 #@! TO.C,D1*
X147444000Y-116332000D03*
X150244000Y-116332000D03*
G04 #@! TD*
D10*
G04 #@! TO.C,R1*
G36*
X141235691Y-116620053D02*
X141256926Y-116623203D01*
X141277750Y-116628419D01*
X141297962Y-116635651D01*
X141317368Y-116644830D01*
X141335781Y-116655866D01*
X141353024Y-116668654D01*
X141368930Y-116683070D01*
X141383346Y-116698976D01*
X141396134Y-116716219D01*
X141407170Y-116734632D01*
X141416349Y-116754038D01*
X141423581Y-116774250D01*
X141428797Y-116795074D01*
X141431947Y-116816309D01*
X141433000Y-116837750D01*
X141433000Y-117350250D01*
X141431947Y-117371691D01*
X141428797Y-117392926D01*
X141423581Y-117413750D01*
X141416349Y-117433962D01*
X141407170Y-117453368D01*
X141396134Y-117471781D01*
X141383346Y-117489024D01*
X141368930Y-117504930D01*
X141353024Y-117519346D01*
X141335781Y-117532134D01*
X141317368Y-117543170D01*
X141297962Y-117552349D01*
X141277750Y-117559581D01*
X141256926Y-117564797D01*
X141235691Y-117567947D01*
X141214250Y-117569000D01*
X140776750Y-117569000D01*
X140755309Y-117567947D01*
X140734074Y-117564797D01*
X140713250Y-117559581D01*
X140693038Y-117552349D01*
X140673632Y-117543170D01*
X140655219Y-117532134D01*
X140637976Y-117519346D01*
X140622070Y-117504930D01*
X140607654Y-117489024D01*
X140594866Y-117471781D01*
X140583830Y-117453368D01*
X140574651Y-117433962D01*
X140567419Y-117413750D01*
X140562203Y-117392926D01*
X140559053Y-117371691D01*
X140558000Y-117350250D01*
X140558000Y-116837750D01*
X140559053Y-116816309D01*
X140562203Y-116795074D01*
X140567419Y-116774250D01*
X140574651Y-116754038D01*
X140583830Y-116734632D01*
X140594866Y-116716219D01*
X140607654Y-116698976D01*
X140622070Y-116683070D01*
X140637976Y-116668654D01*
X140655219Y-116655866D01*
X140673632Y-116644830D01*
X140693038Y-116635651D01*
X140713250Y-116628419D01*
X140734074Y-116623203D01*
X140755309Y-116620053D01*
X140776750Y-116619000D01*
X141214250Y-116619000D01*
X141235691Y-116620053D01*
X141235691Y-116620053D01*
G37*
D13*
X140995500Y-117094000D03*
D10*
G36*
X139660691Y-116620053D02*
X139681926Y-116623203D01*
X139702750Y-116628419D01*
X139722962Y-116635651D01*
X139742368Y-116644830D01*
X139760781Y-116655866D01*
X139778024Y-116668654D01*
X139793930Y-116683070D01*
X139808346Y-116698976D01*
X139821134Y-116716219D01*
X139832170Y-116734632D01*
X139841349Y-116754038D01*
X139848581Y-116774250D01*
X139853797Y-116795074D01*
X139856947Y-116816309D01*
X139858000Y-116837750D01*
X139858000Y-117350250D01*
X139856947Y-117371691D01*
X139853797Y-117392926D01*
X139848581Y-117413750D01*
X139841349Y-117433962D01*
X139832170Y-117453368D01*
X139821134Y-117471781D01*
X139808346Y-117489024D01*
X139793930Y-117504930D01*
X139778024Y-117519346D01*
X139760781Y-117532134D01*
X139742368Y-117543170D01*
X139722962Y-117552349D01*
X139702750Y-117559581D01*
X139681926Y-117564797D01*
X139660691Y-117567947D01*
X139639250Y-117569000D01*
X139201750Y-117569000D01*
X139180309Y-117567947D01*
X139159074Y-117564797D01*
X139138250Y-117559581D01*
X139118038Y-117552349D01*
X139098632Y-117543170D01*
X139080219Y-117532134D01*
X139062976Y-117519346D01*
X139047070Y-117504930D01*
X139032654Y-117489024D01*
X139019866Y-117471781D01*
X139008830Y-117453368D01*
X138999651Y-117433962D01*
X138992419Y-117413750D01*
X138987203Y-117392926D01*
X138984053Y-117371691D01*
X138983000Y-117350250D01*
X138983000Y-116837750D01*
X138984053Y-116816309D01*
X138987203Y-116795074D01*
X138992419Y-116774250D01*
X138999651Y-116754038D01*
X139008830Y-116734632D01*
X139019866Y-116716219D01*
X139032654Y-116698976D01*
X139047070Y-116683070D01*
X139062976Y-116668654D01*
X139080219Y-116655866D01*
X139098632Y-116644830D01*
X139118038Y-116635651D01*
X139138250Y-116628419D01*
X139159074Y-116623203D01*
X139180309Y-116620053D01*
X139201750Y-116619000D01*
X139639250Y-116619000D01*
X139660691Y-116620053D01*
X139660691Y-116620053D01*
G37*
D13*
X139420500Y-117094000D03*
G04 #@! TD*
D10*
G04 #@! TO.C,R2*
G36*
X139635191Y-114842053D02*
X139656426Y-114845203D01*
X139677250Y-114850419D01*
X139697462Y-114857651D01*
X139716868Y-114866830D01*
X139735281Y-114877866D01*
X139752524Y-114890654D01*
X139768430Y-114905070D01*
X139782846Y-114920976D01*
X139795634Y-114938219D01*
X139806670Y-114956632D01*
X139815849Y-114976038D01*
X139823081Y-114996250D01*
X139828297Y-115017074D01*
X139831447Y-115038309D01*
X139832500Y-115059750D01*
X139832500Y-115572250D01*
X139831447Y-115593691D01*
X139828297Y-115614926D01*
X139823081Y-115635750D01*
X139815849Y-115655962D01*
X139806670Y-115675368D01*
X139795634Y-115693781D01*
X139782846Y-115711024D01*
X139768430Y-115726930D01*
X139752524Y-115741346D01*
X139735281Y-115754134D01*
X139716868Y-115765170D01*
X139697462Y-115774349D01*
X139677250Y-115781581D01*
X139656426Y-115786797D01*
X139635191Y-115789947D01*
X139613750Y-115791000D01*
X139176250Y-115791000D01*
X139154809Y-115789947D01*
X139133574Y-115786797D01*
X139112750Y-115781581D01*
X139092538Y-115774349D01*
X139073132Y-115765170D01*
X139054719Y-115754134D01*
X139037476Y-115741346D01*
X139021570Y-115726930D01*
X139007154Y-115711024D01*
X138994366Y-115693781D01*
X138983330Y-115675368D01*
X138974151Y-115655962D01*
X138966919Y-115635750D01*
X138961703Y-115614926D01*
X138958553Y-115593691D01*
X138957500Y-115572250D01*
X138957500Y-115059750D01*
X138958553Y-115038309D01*
X138961703Y-115017074D01*
X138966919Y-114996250D01*
X138974151Y-114976038D01*
X138983330Y-114956632D01*
X138994366Y-114938219D01*
X139007154Y-114920976D01*
X139021570Y-114905070D01*
X139037476Y-114890654D01*
X139054719Y-114877866D01*
X139073132Y-114866830D01*
X139092538Y-114857651D01*
X139112750Y-114850419D01*
X139133574Y-114845203D01*
X139154809Y-114842053D01*
X139176250Y-114841000D01*
X139613750Y-114841000D01*
X139635191Y-114842053D01*
X139635191Y-114842053D01*
G37*
D13*
X139395000Y-115316000D03*
D10*
G36*
X141210191Y-114842053D02*
X141231426Y-114845203D01*
X141252250Y-114850419D01*
X141272462Y-114857651D01*
X141291868Y-114866830D01*
X141310281Y-114877866D01*
X141327524Y-114890654D01*
X141343430Y-114905070D01*
X141357846Y-114920976D01*
X141370634Y-114938219D01*
X141381670Y-114956632D01*
X141390849Y-114976038D01*
X141398081Y-114996250D01*
X141403297Y-115017074D01*
X141406447Y-115038309D01*
X141407500Y-115059750D01*
X141407500Y-115572250D01*
X141406447Y-115593691D01*
X141403297Y-115614926D01*
X141398081Y-115635750D01*
X141390849Y-115655962D01*
X141381670Y-115675368D01*
X141370634Y-115693781D01*
X141357846Y-115711024D01*
X141343430Y-115726930D01*
X141327524Y-115741346D01*
X141310281Y-115754134D01*
X141291868Y-115765170D01*
X141272462Y-115774349D01*
X141252250Y-115781581D01*
X141231426Y-115786797D01*
X141210191Y-115789947D01*
X141188750Y-115791000D01*
X140751250Y-115791000D01*
X140729809Y-115789947D01*
X140708574Y-115786797D01*
X140687750Y-115781581D01*
X140667538Y-115774349D01*
X140648132Y-115765170D01*
X140629719Y-115754134D01*
X140612476Y-115741346D01*
X140596570Y-115726930D01*
X140582154Y-115711024D01*
X140569366Y-115693781D01*
X140558330Y-115675368D01*
X140549151Y-115655962D01*
X140541919Y-115635750D01*
X140536703Y-115614926D01*
X140533553Y-115593691D01*
X140532500Y-115572250D01*
X140532500Y-115059750D01*
X140533553Y-115038309D01*
X140536703Y-115017074D01*
X140541919Y-114996250D01*
X140549151Y-114976038D01*
X140558330Y-114956632D01*
X140569366Y-114938219D01*
X140582154Y-114920976D01*
X140596570Y-114905070D01*
X140612476Y-114890654D01*
X140629719Y-114877866D01*
X140648132Y-114866830D01*
X140667538Y-114857651D01*
X140687750Y-114850419D01*
X140708574Y-114845203D01*
X140729809Y-114842053D01*
X140751250Y-114841000D01*
X141188750Y-114841000D01*
X141210191Y-114842053D01*
X141210191Y-114842053D01*
G37*
D13*
X140970000Y-115316000D03*
G04 #@! TD*
D14*
G04 #@! TO.C,Q1*
X142708000Y-115382000D03*
X142708000Y-117282000D03*
X145328000Y-116332000D03*
G04 #@! TD*
D10*
G04 #@! TO.C,C1*
G36*
X112209505Y-134001204D02*
X112233773Y-134004804D01*
X112257572Y-134010765D01*
X112280671Y-134019030D01*
X112302850Y-134029520D01*
X112323893Y-134042132D01*
X112343599Y-134056747D01*
X112361777Y-134073223D01*
X112378253Y-134091401D01*
X112392868Y-134111107D01*
X112405480Y-134132150D01*
X112415970Y-134154329D01*
X112424235Y-134177428D01*
X112430196Y-134201227D01*
X112433796Y-134225495D01*
X112435000Y-134249999D01*
X112435000Y-135150001D01*
X112433796Y-135174505D01*
X112430196Y-135198773D01*
X112424235Y-135222572D01*
X112415970Y-135245671D01*
X112405480Y-135267850D01*
X112392868Y-135288893D01*
X112378253Y-135308599D01*
X112361777Y-135326777D01*
X112343599Y-135343253D01*
X112323893Y-135357868D01*
X112302850Y-135370480D01*
X112280671Y-135380970D01*
X112257572Y-135389235D01*
X112233773Y-135395196D01*
X112209505Y-135398796D01*
X112185001Y-135400000D01*
X111334999Y-135400000D01*
X111310495Y-135398796D01*
X111286227Y-135395196D01*
X111262428Y-135389235D01*
X111239329Y-135380970D01*
X111217150Y-135370480D01*
X111196107Y-135357868D01*
X111176401Y-135343253D01*
X111158223Y-135326777D01*
X111141747Y-135308599D01*
X111127132Y-135288893D01*
X111114520Y-135267850D01*
X111104030Y-135245671D01*
X111095765Y-135222572D01*
X111089804Y-135198773D01*
X111086204Y-135174505D01*
X111085000Y-135150001D01*
X111085000Y-134249999D01*
X111086204Y-134225495D01*
X111089804Y-134201227D01*
X111095765Y-134177428D01*
X111104030Y-134154329D01*
X111114520Y-134132150D01*
X111127132Y-134111107D01*
X111141747Y-134091401D01*
X111158223Y-134073223D01*
X111176401Y-134056747D01*
X111196107Y-134042132D01*
X111217150Y-134029520D01*
X111239329Y-134019030D01*
X111262428Y-134010765D01*
X111286227Y-134004804D01*
X111310495Y-134001204D01*
X111334999Y-134000000D01*
X112185001Y-134000000D01*
X112209505Y-134001204D01*
X112209505Y-134001204D01*
G37*
D15*
X111760000Y-134700000D03*
D10*
G36*
X112209505Y-131301204D02*
X112233773Y-131304804D01*
X112257572Y-131310765D01*
X112280671Y-131319030D01*
X112302850Y-131329520D01*
X112323893Y-131342132D01*
X112343599Y-131356747D01*
X112361777Y-131373223D01*
X112378253Y-131391401D01*
X112392868Y-131411107D01*
X112405480Y-131432150D01*
X112415970Y-131454329D01*
X112424235Y-131477428D01*
X112430196Y-131501227D01*
X112433796Y-131525495D01*
X112435000Y-131549999D01*
X112435000Y-132450001D01*
X112433796Y-132474505D01*
X112430196Y-132498773D01*
X112424235Y-132522572D01*
X112415970Y-132545671D01*
X112405480Y-132567850D01*
X112392868Y-132588893D01*
X112378253Y-132608599D01*
X112361777Y-132626777D01*
X112343599Y-132643253D01*
X112323893Y-132657868D01*
X112302850Y-132670480D01*
X112280671Y-132680970D01*
X112257572Y-132689235D01*
X112233773Y-132695196D01*
X112209505Y-132698796D01*
X112185001Y-132700000D01*
X111334999Y-132700000D01*
X111310495Y-132698796D01*
X111286227Y-132695196D01*
X111262428Y-132689235D01*
X111239329Y-132680970D01*
X111217150Y-132670480D01*
X111196107Y-132657868D01*
X111176401Y-132643253D01*
X111158223Y-132626777D01*
X111141747Y-132608599D01*
X111127132Y-132588893D01*
X111114520Y-132567850D01*
X111104030Y-132545671D01*
X111095765Y-132522572D01*
X111089804Y-132498773D01*
X111086204Y-132474505D01*
X111085000Y-132450001D01*
X111085000Y-131549999D01*
X111086204Y-131525495D01*
X111089804Y-131501227D01*
X111095765Y-131477428D01*
X111104030Y-131454329D01*
X111114520Y-131432150D01*
X111127132Y-131411107D01*
X111141747Y-131391401D01*
X111158223Y-131373223D01*
X111176401Y-131356747D01*
X111196107Y-131342132D01*
X111217150Y-131329520D01*
X111239329Y-131319030D01*
X111262428Y-131310765D01*
X111286227Y-131304804D01*
X111310495Y-131301204D01*
X111334999Y-131300000D01*
X112185001Y-131300000D01*
X112209505Y-131301204D01*
X112209505Y-131301204D01*
G37*
D15*
X111760000Y-132000000D03*
G04 #@! TD*
M02*
