G04 #@! TF.GenerationSoftware,KiCad,Pcbnew,5.0.0-fee4fd1~66~ubuntu16.04.1*
G04 #@! TF.CreationDate,2018-12-09T19:38:54+07:00*
G04 #@! TF.ProjectId,master_circuit,6D61737465725F636972637569742E6B,rev?*
G04 #@! TF.SameCoordinates,Original*
G04 #@! TF.FileFunction,Soldermask,Top*
G04 #@! TF.FilePolarity,Negative*
%FSLAX46Y46*%
G04 Gerber Fmt 4.6, Leading zero omitted, Abs format (unit mm)*
G04 Created by KiCad (PCBNEW 5.0.0-fee4fd1~66~ubuntu16.04.1) date Sun Dec  9 19:38:54 2018*
%MOMM*%
%LPD*%
G01*
G04 APERTURE LIST*
%ADD10C,4.400000*%
%ADD11C,2.400000*%
%ADD12O,2.400000X2.400000*%
%ADD13R,2.400000X2.400000*%
%ADD14C,0.100000*%
%ADD15C,1.375000*%
%ADD16R,1.500000X1.500000*%
%ADD17O,7.900000X6.400000*%
%ADD18C,2.600000*%
%ADD19C,3.600000*%
%ADD20C,1.275000*%
%ADD21C,1.924000*%
%ADD22C,2.900000*%
%ADD23R,1.620000X1.050000*%
%ADD24C,1.750000*%
G04 APERTURE END LIST*
D10*
G04 #@! TO.C,REF\002A\002A*
X113538000Y-98298000D03*
G04 #@! TD*
G04 #@! TO.C,REF\002A\002A*
X113284000Y-140970000D03*
G04 #@! TD*
G04 #@! TO.C,REF\002A\002A*
X179070000Y-142240000D03*
G04 #@! TD*
G04 #@! TO.C,REF\002A\002A*
X179578000Y-96520000D03*
G04 #@! TD*
D11*
G04 #@! TO.C,F2*
X173736000Y-112776000D03*
D12*
X181236000Y-112776000D03*
G04 #@! TD*
D13*
G04 #@! TO.C,J3*
X181864000Y-101092000D03*
D12*
X181864000Y-106172000D03*
G04 #@! TD*
D11*
G04 #@! TO.C,F1*
X172212000Y-117856000D03*
X172212000Y-141986000D03*
G04 #@! TD*
D14*
G04 #@! TO.C,C2*
G36*
X114889943Y-131726655D02*
X114923312Y-131731605D01*
X114956035Y-131739802D01*
X114987797Y-131751166D01*
X115018293Y-131765590D01*
X115047227Y-131782932D01*
X115074323Y-131803028D01*
X115099318Y-131825682D01*
X115121972Y-131850677D01*
X115142068Y-131877773D01*
X115159410Y-131906707D01*
X115173834Y-131937203D01*
X115185198Y-131968965D01*
X115193395Y-132001688D01*
X115198345Y-132035057D01*
X115200000Y-132068750D01*
X115200000Y-132756250D01*
X115198345Y-132789943D01*
X115193395Y-132823312D01*
X115185198Y-132856035D01*
X115173834Y-132887797D01*
X115159410Y-132918293D01*
X115142068Y-132947227D01*
X115121972Y-132974323D01*
X115099318Y-132999318D01*
X115074323Y-133021972D01*
X115047227Y-133042068D01*
X115018293Y-133059410D01*
X114987797Y-133073834D01*
X114956035Y-133085198D01*
X114923312Y-133093395D01*
X114889943Y-133098345D01*
X114856250Y-133100000D01*
X113743750Y-133100000D01*
X113710057Y-133098345D01*
X113676688Y-133093395D01*
X113643965Y-133085198D01*
X113612203Y-133073834D01*
X113581707Y-133059410D01*
X113552773Y-133042068D01*
X113525677Y-133021972D01*
X113500682Y-132999318D01*
X113478028Y-132974323D01*
X113457932Y-132947227D01*
X113440590Y-132918293D01*
X113426166Y-132887797D01*
X113414802Y-132856035D01*
X113406605Y-132823312D01*
X113401655Y-132789943D01*
X113400000Y-132756250D01*
X113400000Y-132068750D01*
X113401655Y-132035057D01*
X113406605Y-132001688D01*
X113414802Y-131968965D01*
X113426166Y-131937203D01*
X113440590Y-131906707D01*
X113457932Y-131877773D01*
X113478028Y-131850677D01*
X113500682Y-131825682D01*
X113525677Y-131803028D01*
X113552773Y-131782932D01*
X113581707Y-131765590D01*
X113612203Y-131751166D01*
X113643965Y-131739802D01*
X113676688Y-131731605D01*
X113710057Y-131726655D01*
X113743750Y-131725000D01*
X114856250Y-131725000D01*
X114889943Y-131726655D01*
X114889943Y-131726655D01*
G37*
D15*
X114300000Y-132412500D03*
D14*
G36*
X114889943Y-133601655D02*
X114923312Y-133606605D01*
X114956035Y-133614802D01*
X114987797Y-133626166D01*
X115018293Y-133640590D01*
X115047227Y-133657932D01*
X115074323Y-133678028D01*
X115099318Y-133700682D01*
X115121972Y-133725677D01*
X115142068Y-133752773D01*
X115159410Y-133781707D01*
X115173834Y-133812203D01*
X115185198Y-133843965D01*
X115193395Y-133876688D01*
X115198345Y-133910057D01*
X115200000Y-133943750D01*
X115200000Y-134631250D01*
X115198345Y-134664943D01*
X115193395Y-134698312D01*
X115185198Y-134731035D01*
X115173834Y-134762797D01*
X115159410Y-134793293D01*
X115142068Y-134822227D01*
X115121972Y-134849323D01*
X115099318Y-134874318D01*
X115074323Y-134896972D01*
X115047227Y-134917068D01*
X115018293Y-134934410D01*
X114987797Y-134948834D01*
X114956035Y-134960198D01*
X114923312Y-134968395D01*
X114889943Y-134973345D01*
X114856250Y-134975000D01*
X113743750Y-134975000D01*
X113710057Y-134973345D01*
X113676688Y-134968395D01*
X113643965Y-134960198D01*
X113612203Y-134948834D01*
X113581707Y-134934410D01*
X113552773Y-134917068D01*
X113525677Y-134896972D01*
X113500682Y-134874318D01*
X113478028Y-134849323D01*
X113457932Y-134822227D01*
X113440590Y-134793293D01*
X113426166Y-134762797D01*
X113414802Y-134731035D01*
X113406605Y-134698312D01*
X113401655Y-134664943D01*
X113400000Y-134631250D01*
X113400000Y-133943750D01*
X113401655Y-133910057D01*
X113406605Y-133876688D01*
X113414802Y-133843965D01*
X113426166Y-133812203D01*
X113440590Y-133781707D01*
X113457932Y-133752773D01*
X113478028Y-133725677D01*
X113500682Y-133700682D01*
X113525677Y-133678028D01*
X113552773Y-133657932D01*
X113581707Y-133640590D01*
X113612203Y-133626166D01*
X113643965Y-133614802D01*
X113676688Y-133606605D01*
X113710057Y-133601655D01*
X113743750Y-133600000D01*
X114856250Y-133600000D01*
X114889943Y-133601655D01*
X114889943Y-133601655D01*
G37*
D15*
X114300000Y-134287500D03*
G04 #@! TD*
D16*
G04 #@! TO.C,D1*
X147444000Y-116332000D03*
X150244000Y-116332000D03*
G04 #@! TD*
D17*
G04 #@! TO.C,J1*
X179832000Y-124968000D03*
G04 #@! TD*
G04 #@! TO.C,J2*
X179832000Y-135128000D03*
G04 #@! TD*
D18*
G04 #@! TO.C,K1*
X144526000Y-134874000D03*
X144526000Y-124714000D03*
D19*
X159766000Y-138684000D03*
X157226000Y-120904000D03*
G04 #@! TD*
D14*
G04 #@! TO.C,R1*
G36*
X141345493Y-116420535D02*
X141376435Y-116425125D01*
X141406778Y-116432725D01*
X141436230Y-116443263D01*
X141464508Y-116456638D01*
X141491338Y-116472719D01*
X141516463Y-116491353D01*
X141539640Y-116512360D01*
X141560647Y-116535537D01*
X141579281Y-116560662D01*
X141595362Y-116587492D01*
X141608737Y-116615770D01*
X141619275Y-116645222D01*
X141626875Y-116675565D01*
X141631465Y-116706507D01*
X141633000Y-116737750D01*
X141633000Y-117450250D01*
X141631465Y-117481493D01*
X141626875Y-117512435D01*
X141619275Y-117542778D01*
X141608737Y-117572230D01*
X141595362Y-117600508D01*
X141579281Y-117627338D01*
X141560647Y-117652463D01*
X141539640Y-117675640D01*
X141516463Y-117696647D01*
X141491338Y-117715281D01*
X141464508Y-117731362D01*
X141436230Y-117744737D01*
X141406778Y-117755275D01*
X141376435Y-117762875D01*
X141345493Y-117767465D01*
X141314250Y-117769000D01*
X140676750Y-117769000D01*
X140645507Y-117767465D01*
X140614565Y-117762875D01*
X140584222Y-117755275D01*
X140554770Y-117744737D01*
X140526492Y-117731362D01*
X140499662Y-117715281D01*
X140474537Y-117696647D01*
X140451360Y-117675640D01*
X140430353Y-117652463D01*
X140411719Y-117627338D01*
X140395638Y-117600508D01*
X140382263Y-117572230D01*
X140371725Y-117542778D01*
X140364125Y-117512435D01*
X140359535Y-117481493D01*
X140358000Y-117450250D01*
X140358000Y-116737750D01*
X140359535Y-116706507D01*
X140364125Y-116675565D01*
X140371725Y-116645222D01*
X140382263Y-116615770D01*
X140395638Y-116587492D01*
X140411719Y-116560662D01*
X140430353Y-116535537D01*
X140451360Y-116512360D01*
X140474537Y-116491353D01*
X140499662Y-116472719D01*
X140526492Y-116456638D01*
X140554770Y-116443263D01*
X140584222Y-116432725D01*
X140614565Y-116425125D01*
X140645507Y-116420535D01*
X140676750Y-116419000D01*
X141314250Y-116419000D01*
X141345493Y-116420535D01*
X141345493Y-116420535D01*
G37*
D20*
X140995500Y-117094000D03*
D14*
G36*
X139770493Y-116420535D02*
X139801435Y-116425125D01*
X139831778Y-116432725D01*
X139861230Y-116443263D01*
X139889508Y-116456638D01*
X139916338Y-116472719D01*
X139941463Y-116491353D01*
X139964640Y-116512360D01*
X139985647Y-116535537D01*
X140004281Y-116560662D01*
X140020362Y-116587492D01*
X140033737Y-116615770D01*
X140044275Y-116645222D01*
X140051875Y-116675565D01*
X140056465Y-116706507D01*
X140058000Y-116737750D01*
X140058000Y-117450250D01*
X140056465Y-117481493D01*
X140051875Y-117512435D01*
X140044275Y-117542778D01*
X140033737Y-117572230D01*
X140020362Y-117600508D01*
X140004281Y-117627338D01*
X139985647Y-117652463D01*
X139964640Y-117675640D01*
X139941463Y-117696647D01*
X139916338Y-117715281D01*
X139889508Y-117731362D01*
X139861230Y-117744737D01*
X139831778Y-117755275D01*
X139801435Y-117762875D01*
X139770493Y-117767465D01*
X139739250Y-117769000D01*
X139101750Y-117769000D01*
X139070507Y-117767465D01*
X139039565Y-117762875D01*
X139009222Y-117755275D01*
X138979770Y-117744737D01*
X138951492Y-117731362D01*
X138924662Y-117715281D01*
X138899537Y-117696647D01*
X138876360Y-117675640D01*
X138855353Y-117652463D01*
X138836719Y-117627338D01*
X138820638Y-117600508D01*
X138807263Y-117572230D01*
X138796725Y-117542778D01*
X138789125Y-117512435D01*
X138784535Y-117481493D01*
X138783000Y-117450250D01*
X138783000Y-116737750D01*
X138784535Y-116706507D01*
X138789125Y-116675565D01*
X138796725Y-116645222D01*
X138807263Y-116615770D01*
X138820638Y-116587492D01*
X138836719Y-116560662D01*
X138855353Y-116535537D01*
X138876360Y-116512360D01*
X138899537Y-116491353D01*
X138924662Y-116472719D01*
X138951492Y-116456638D01*
X138979770Y-116443263D01*
X139009222Y-116432725D01*
X139039565Y-116425125D01*
X139070507Y-116420535D01*
X139101750Y-116419000D01*
X139739250Y-116419000D01*
X139770493Y-116420535D01*
X139770493Y-116420535D01*
G37*
D20*
X139420500Y-117094000D03*
G04 #@! TD*
D21*
G04 #@! TO.C,U1*
X108025001Y-99135001D03*
X108025001Y-101675001D03*
X108025001Y-104215001D03*
X108025001Y-106755001D03*
X108025001Y-109295001D03*
X108025001Y-111835001D03*
X108025001Y-114375001D03*
X108025001Y-116915001D03*
X108025001Y-119455001D03*
X108025001Y-121995001D03*
X108025001Y-124535001D03*
X108025001Y-127075001D03*
X108025001Y-129615001D03*
X108025001Y-132155001D03*
X108025001Y-134695001D03*
X135965001Y-134695001D03*
X135965001Y-132155001D03*
X135965001Y-129615001D03*
X135965001Y-127075001D03*
X135965001Y-124535001D03*
X135965001Y-121995001D03*
X135965001Y-119455001D03*
X135965001Y-116915001D03*
X135965001Y-114375001D03*
X135965001Y-111835001D03*
X135965001Y-109295001D03*
X135965001Y-106755001D03*
X135965001Y-104215001D03*
X135965001Y-101675001D03*
X135965001Y-99135001D03*
G04 #@! TD*
D22*
G04 #@! TO.C,U2*
X169640000Y-106640000D03*
X169640000Y-101640000D03*
X140240000Y-111840000D03*
X140240000Y-96440000D03*
G04 #@! TD*
D14*
G04 #@! TO.C,R2*
G36*
X139744993Y-114642535D02*
X139775935Y-114647125D01*
X139806278Y-114654725D01*
X139835730Y-114665263D01*
X139864008Y-114678638D01*
X139890838Y-114694719D01*
X139915963Y-114713353D01*
X139939140Y-114734360D01*
X139960147Y-114757537D01*
X139978781Y-114782662D01*
X139994862Y-114809492D01*
X140008237Y-114837770D01*
X140018775Y-114867222D01*
X140026375Y-114897565D01*
X140030965Y-114928507D01*
X140032500Y-114959750D01*
X140032500Y-115672250D01*
X140030965Y-115703493D01*
X140026375Y-115734435D01*
X140018775Y-115764778D01*
X140008237Y-115794230D01*
X139994862Y-115822508D01*
X139978781Y-115849338D01*
X139960147Y-115874463D01*
X139939140Y-115897640D01*
X139915963Y-115918647D01*
X139890838Y-115937281D01*
X139864008Y-115953362D01*
X139835730Y-115966737D01*
X139806278Y-115977275D01*
X139775935Y-115984875D01*
X139744993Y-115989465D01*
X139713750Y-115991000D01*
X139076250Y-115991000D01*
X139045007Y-115989465D01*
X139014065Y-115984875D01*
X138983722Y-115977275D01*
X138954270Y-115966737D01*
X138925992Y-115953362D01*
X138899162Y-115937281D01*
X138874037Y-115918647D01*
X138850860Y-115897640D01*
X138829853Y-115874463D01*
X138811219Y-115849338D01*
X138795138Y-115822508D01*
X138781763Y-115794230D01*
X138771225Y-115764778D01*
X138763625Y-115734435D01*
X138759035Y-115703493D01*
X138757500Y-115672250D01*
X138757500Y-114959750D01*
X138759035Y-114928507D01*
X138763625Y-114897565D01*
X138771225Y-114867222D01*
X138781763Y-114837770D01*
X138795138Y-114809492D01*
X138811219Y-114782662D01*
X138829853Y-114757537D01*
X138850860Y-114734360D01*
X138874037Y-114713353D01*
X138899162Y-114694719D01*
X138925992Y-114678638D01*
X138954270Y-114665263D01*
X138983722Y-114654725D01*
X139014065Y-114647125D01*
X139045007Y-114642535D01*
X139076250Y-114641000D01*
X139713750Y-114641000D01*
X139744993Y-114642535D01*
X139744993Y-114642535D01*
G37*
D20*
X139395000Y-115316000D03*
D14*
G36*
X141319993Y-114642535D02*
X141350935Y-114647125D01*
X141381278Y-114654725D01*
X141410730Y-114665263D01*
X141439008Y-114678638D01*
X141465838Y-114694719D01*
X141490963Y-114713353D01*
X141514140Y-114734360D01*
X141535147Y-114757537D01*
X141553781Y-114782662D01*
X141569862Y-114809492D01*
X141583237Y-114837770D01*
X141593775Y-114867222D01*
X141601375Y-114897565D01*
X141605965Y-114928507D01*
X141607500Y-114959750D01*
X141607500Y-115672250D01*
X141605965Y-115703493D01*
X141601375Y-115734435D01*
X141593775Y-115764778D01*
X141583237Y-115794230D01*
X141569862Y-115822508D01*
X141553781Y-115849338D01*
X141535147Y-115874463D01*
X141514140Y-115897640D01*
X141490963Y-115918647D01*
X141465838Y-115937281D01*
X141439008Y-115953362D01*
X141410730Y-115966737D01*
X141381278Y-115977275D01*
X141350935Y-115984875D01*
X141319993Y-115989465D01*
X141288750Y-115991000D01*
X140651250Y-115991000D01*
X140620007Y-115989465D01*
X140589065Y-115984875D01*
X140558722Y-115977275D01*
X140529270Y-115966737D01*
X140500992Y-115953362D01*
X140474162Y-115937281D01*
X140449037Y-115918647D01*
X140425860Y-115897640D01*
X140404853Y-115874463D01*
X140386219Y-115849338D01*
X140370138Y-115822508D01*
X140356763Y-115794230D01*
X140346225Y-115764778D01*
X140338625Y-115734435D01*
X140334035Y-115703493D01*
X140332500Y-115672250D01*
X140332500Y-114959750D01*
X140334035Y-114928507D01*
X140338625Y-114897565D01*
X140346225Y-114867222D01*
X140356763Y-114837770D01*
X140370138Y-114809492D01*
X140386219Y-114782662D01*
X140404853Y-114757537D01*
X140425860Y-114734360D01*
X140449037Y-114713353D01*
X140474162Y-114694719D01*
X140500992Y-114678638D01*
X140529270Y-114665263D01*
X140558722Y-114654725D01*
X140589065Y-114647125D01*
X140620007Y-114642535D01*
X140651250Y-114641000D01*
X141288750Y-114641000D01*
X141319993Y-114642535D01*
X141319993Y-114642535D01*
G37*
D20*
X140970000Y-115316000D03*
G04 #@! TD*
D11*
G04 #@! TO.C,RV1*
X174752000Y-107696000D03*
X174752000Y-100196000D03*
G04 #@! TD*
D23*
G04 #@! TO.C,Q1*
X142708000Y-115382000D03*
X142708000Y-117282000D03*
X145328000Y-116332000D03*
G04 #@! TD*
D14*
G04 #@! TO.C,C1*
G36*
X112342692Y-133801561D02*
X112374151Y-133806227D01*
X112405000Y-133813954D01*
X112434944Y-133824669D01*
X112463694Y-133838266D01*
X112490972Y-133854616D01*
X112516517Y-133873561D01*
X112540081Y-133894919D01*
X112561439Y-133918483D01*
X112580384Y-133944028D01*
X112596734Y-133971306D01*
X112610331Y-134000056D01*
X112621046Y-134030000D01*
X112628773Y-134060849D01*
X112633439Y-134092308D01*
X112635000Y-134124073D01*
X112635000Y-135275927D01*
X112633439Y-135307692D01*
X112628773Y-135339151D01*
X112621046Y-135370000D01*
X112610331Y-135399944D01*
X112596734Y-135428694D01*
X112580384Y-135455972D01*
X112561439Y-135481517D01*
X112540081Y-135505081D01*
X112516517Y-135526439D01*
X112490972Y-135545384D01*
X112463694Y-135561734D01*
X112434944Y-135575331D01*
X112405000Y-135586046D01*
X112374151Y-135593773D01*
X112342692Y-135598439D01*
X112310927Y-135600000D01*
X111209073Y-135600000D01*
X111177308Y-135598439D01*
X111145849Y-135593773D01*
X111115000Y-135586046D01*
X111085056Y-135575331D01*
X111056306Y-135561734D01*
X111029028Y-135545384D01*
X111003483Y-135526439D01*
X110979919Y-135505081D01*
X110958561Y-135481517D01*
X110939616Y-135455972D01*
X110923266Y-135428694D01*
X110909669Y-135399944D01*
X110898954Y-135370000D01*
X110891227Y-135339151D01*
X110886561Y-135307692D01*
X110885000Y-135275927D01*
X110885000Y-134124073D01*
X110886561Y-134092308D01*
X110891227Y-134060849D01*
X110898954Y-134030000D01*
X110909669Y-134000056D01*
X110923266Y-133971306D01*
X110939616Y-133944028D01*
X110958561Y-133918483D01*
X110979919Y-133894919D01*
X111003483Y-133873561D01*
X111029028Y-133854616D01*
X111056306Y-133838266D01*
X111085056Y-133824669D01*
X111115000Y-133813954D01*
X111145849Y-133806227D01*
X111177308Y-133801561D01*
X111209073Y-133800000D01*
X112310927Y-133800000D01*
X112342692Y-133801561D01*
X112342692Y-133801561D01*
G37*
D24*
X111760000Y-134700000D03*
D14*
G36*
X112342692Y-131101561D02*
X112374151Y-131106227D01*
X112405000Y-131113954D01*
X112434944Y-131124669D01*
X112463694Y-131138266D01*
X112490972Y-131154616D01*
X112516517Y-131173561D01*
X112540081Y-131194919D01*
X112561439Y-131218483D01*
X112580384Y-131244028D01*
X112596734Y-131271306D01*
X112610331Y-131300056D01*
X112621046Y-131330000D01*
X112628773Y-131360849D01*
X112633439Y-131392308D01*
X112635000Y-131424073D01*
X112635000Y-132575927D01*
X112633439Y-132607692D01*
X112628773Y-132639151D01*
X112621046Y-132670000D01*
X112610331Y-132699944D01*
X112596734Y-132728694D01*
X112580384Y-132755972D01*
X112561439Y-132781517D01*
X112540081Y-132805081D01*
X112516517Y-132826439D01*
X112490972Y-132845384D01*
X112463694Y-132861734D01*
X112434944Y-132875331D01*
X112405000Y-132886046D01*
X112374151Y-132893773D01*
X112342692Y-132898439D01*
X112310927Y-132900000D01*
X111209073Y-132900000D01*
X111177308Y-132898439D01*
X111145849Y-132893773D01*
X111115000Y-132886046D01*
X111085056Y-132875331D01*
X111056306Y-132861734D01*
X111029028Y-132845384D01*
X111003483Y-132826439D01*
X110979919Y-132805081D01*
X110958561Y-132781517D01*
X110939616Y-132755972D01*
X110923266Y-132728694D01*
X110909669Y-132699944D01*
X110898954Y-132670000D01*
X110891227Y-132639151D01*
X110886561Y-132607692D01*
X110885000Y-132575927D01*
X110885000Y-131424073D01*
X110886561Y-131392308D01*
X110891227Y-131360849D01*
X110898954Y-131330000D01*
X110909669Y-131300056D01*
X110923266Y-131271306D01*
X110939616Y-131244028D01*
X110958561Y-131218483D01*
X110979919Y-131194919D01*
X111003483Y-131173561D01*
X111029028Y-131154616D01*
X111056306Y-131138266D01*
X111085056Y-131124669D01*
X111115000Y-131113954D01*
X111145849Y-131106227D01*
X111177308Y-131101561D01*
X111209073Y-131100000D01*
X112310927Y-131100000D01*
X112342692Y-131101561D01*
X112342692Y-131101561D01*
G37*
D24*
X111760000Y-132000000D03*
G04 #@! TD*
M02*
