G04 #@! TF.GenerationSoftware,KiCad,Pcbnew,5.0.0-fee4fd1~66~ubuntu16.04.1*
G04 #@! TF.CreationDate,2018-12-09T19:38:54+07:00*
G04 #@! TF.ProjectId,master_circuit,6D61737465725F636972637569742E6B,rev?*
G04 #@! TF.SameCoordinates,Original*
G04 #@! TF.FileFunction,Copper,L2,Bot,Signal*
G04 #@! TF.FilePolarity,Positive*
%FSLAX46Y46*%
G04 Gerber Fmt 4.6, Leading zero omitted, Abs format (unit mm)*
G04 Created by KiCad (PCBNEW 5.0.0-fee4fd1~66~ubuntu16.04.1) date Sun Dec  9 19:38:54 2018*
%MOMM*%
%LPD*%
G01*
G04 APERTURE LIST*
G04 #@! TA.AperFunction,NonConductor*
%ADD10C,0.500000*%
G04 #@! TD*
G04 #@! TA.AperFunction,ComponentPad*
%ADD11C,4.000000*%
G04 #@! TD*
G04 #@! TA.AperFunction,ComponentPad*
%ADD12C,2.000000*%
G04 #@! TD*
G04 #@! TA.AperFunction,ComponentPad*
%ADD13O,2.000000X2.000000*%
G04 #@! TD*
G04 #@! TA.AperFunction,ComponentPad*
%ADD14R,2.000000X2.000000*%
G04 #@! TD*
G04 #@! TA.AperFunction,ComponentPad*
%ADD15O,7.500000X6.000000*%
G04 #@! TD*
G04 #@! TA.AperFunction,ComponentPad*
%ADD16C,2.200000*%
G04 #@! TD*
G04 #@! TA.AperFunction,ComponentPad*
%ADD17C,3.200000*%
G04 #@! TD*
G04 #@! TA.AperFunction,ComponentPad*
%ADD18C,1.524000*%
G04 #@! TD*
G04 #@! TA.AperFunction,ComponentPad*
%ADD19C,2.500000*%
G04 #@! TD*
G04 #@! TA.AperFunction,Conductor*
%ADD20C,1.000000*%
G04 #@! TD*
G04 #@! TA.AperFunction,Conductor*
%ADD21C,0.254000*%
G04 #@! TD*
G04 APERTURE END LIST*
D10*
X135666666Y-138124761D02*
X135000000Y-140124761D01*
X134333333Y-138124761D01*
X133380952Y-140124761D02*
X133571428Y-140029523D01*
X133666666Y-139934285D01*
X133761904Y-139743809D01*
X133761904Y-139172380D01*
X133666666Y-138981904D01*
X133571428Y-138886666D01*
X133380952Y-138791428D01*
X133095238Y-138791428D01*
X132904761Y-138886666D01*
X132809523Y-138981904D01*
X132714285Y-139172380D01*
X132714285Y-139743809D01*
X132809523Y-139934285D01*
X132904761Y-140029523D01*
X133095238Y-140124761D01*
X133380952Y-140124761D01*
X130619047Y-138124761D02*
X129476190Y-138124761D01*
X130047619Y-140124761D02*
X130047619Y-138124761D01*
X128809523Y-140124761D02*
X128809523Y-138791428D01*
X128809523Y-139172380D02*
X128714285Y-138981904D01*
X128619047Y-138886666D01*
X128428571Y-138791428D01*
X128238095Y-138791428D01*
X127571428Y-140124761D02*
X127571428Y-138791428D01*
X127571428Y-138124761D02*
X127666666Y-138220000D01*
X127571428Y-138315238D01*
X127476190Y-138220000D01*
X127571428Y-138124761D01*
X127571428Y-138315238D01*
X125095238Y-140124761D02*
X125095238Y-138124761D01*
X124619047Y-138124761D01*
X124333333Y-138220000D01*
X124142857Y-138410476D01*
X124047619Y-138600952D01*
X123952380Y-138981904D01*
X123952380Y-139267619D01*
X124047619Y-139648571D01*
X124142857Y-139839047D01*
X124333333Y-140029523D01*
X124619047Y-140124761D01*
X125095238Y-140124761D01*
X122238095Y-138791428D02*
X122238095Y-140124761D01*
X123095238Y-138791428D02*
X123095238Y-139839047D01*
X123000000Y-140029523D01*
X122809523Y-140124761D01*
X122523809Y-140124761D01*
X122333333Y-140029523D01*
X122238095Y-139934285D01*
X121285714Y-138791428D02*
X121285714Y-140124761D01*
X121285714Y-138981904D02*
X121190476Y-138886666D01*
X121000000Y-138791428D01*
X120714285Y-138791428D01*
X120523809Y-138886666D01*
X120428571Y-139077142D01*
X120428571Y-140124761D01*
X118619047Y-138791428D02*
X118619047Y-140410476D01*
X118714285Y-140600952D01*
X118809523Y-140696190D01*
X119000000Y-140791428D01*
X119285714Y-140791428D01*
X119476190Y-140696190D01*
X118619047Y-140029523D02*
X118809523Y-140124761D01*
X119190476Y-140124761D01*
X119380952Y-140029523D01*
X119476190Y-139934285D01*
X119571428Y-139743809D01*
X119571428Y-139172380D01*
X119476190Y-138981904D01*
X119380952Y-138886666D01*
X119190476Y-138791428D01*
X118809523Y-138791428D01*
X118619047Y-138886666D01*
X136238095Y-141624761D02*
X135000000Y-141624761D01*
X135666666Y-142386666D01*
X135380952Y-142386666D01*
X135190476Y-142481904D01*
X135095238Y-142577142D01*
X135000000Y-142767619D01*
X135000000Y-143243809D01*
X135095238Y-143434285D01*
X135190476Y-143529523D01*
X135380952Y-143624761D01*
X135952380Y-143624761D01*
X136142857Y-143529523D01*
X136238095Y-143434285D01*
X133095238Y-143624761D02*
X134238095Y-143624761D01*
X133666666Y-143624761D02*
X133666666Y-141624761D01*
X133857142Y-141910476D01*
X134047619Y-142100952D01*
X134238095Y-142196190D01*
X131190476Y-143624761D02*
X132333333Y-143624761D01*
X131761904Y-143624761D02*
X131761904Y-141624761D01*
X131952380Y-141910476D01*
X132142857Y-142100952D01*
X132333333Y-142196190D01*
X129476190Y-142291428D02*
X129476190Y-143624761D01*
X129952380Y-141529523D02*
X130428571Y-142958095D01*
X129190476Y-142958095D01*
X127571428Y-142291428D02*
X127571428Y-143624761D01*
X128047619Y-141529523D02*
X128523809Y-142958095D01*
X127285714Y-142958095D01*
X126428571Y-143624761D02*
X126047619Y-143624761D01*
X125857142Y-143529523D01*
X125761904Y-143434285D01*
X125571428Y-143148571D01*
X125476190Y-142767619D01*
X125476190Y-142005714D01*
X125571428Y-141815238D01*
X125666666Y-141720000D01*
X125857142Y-141624761D01*
X126238095Y-141624761D01*
X126428571Y-141720000D01*
X126523809Y-141815238D01*
X126619047Y-142005714D01*
X126619047Y-142481904D01*
X126523809Y-142672380D01*
X126428571Y-142767619D01*
X126238095Y-142862857D01*
X125857142Y-142862857D01*
X125666666Y-142767619D01*
X125571428Y-142672380D01*
X125476190Y-142481904D01*
X124238095Y-141624761D02*
X124047619Y-141624761D01*
X123857142Y-141720000D01*
X123761904Y-141815238D01*
X123666666Y-142005714D01*
X123571428Y-142386666D01*
X123571428Y-142862857D01*
X123666666Y-143243809D01*
X123761904Y-143434285D01*
X123857142Y-143529523D01*
X124047619Y-143624761D01*
X124238095Y-143624761D01*
X124428571Y-143529523D01*
X124523809Y-143434285D01*
X124619047Y-143243809D01*
X124714285Y-142862857D01*
X124714285Y-142386666D01*
X124619047Y-142005714D01*
X124523809Y-141815238D01*
X124428571Y-141720000D01*
X124238095Y-141624761D01*
X122333333Y-141624761D02*
X122142857Y-141624761D01*
X121952380Y-141720000D01*
X121857142Y-141815238D01*
X121761904Y-142005714D01*
X121666666Y-142386666D01*
X121666666Y-142862857D01*
X121761904Y-143243809D01*
X121857142Y-143434285D01*
X121952380Y-143529523D01*
X122142857Y-143624761D01*
X122333333Y-143624761D01*
X122523809Y-143529523D01*
X122619047Y-143434285D01*
X122714285Y-143243809D01*
X122809523Y-142862857D01*
X122809523Y-142386666D01*
X122714285Y-142005714D01*
X122619047Y-141815238D01*
X122523809Y-141720000D01*
X122333333Y-141624761D01*
X119761904Y-143624761D02*
X120904761Y-143624761D01*
X120333333Y-143624761D02*
X120333333Y-141624761D01*
X120523809Y-141910476D01*
X120714285Y-142100952D01*
X120904761Y-142196190D01*
X117952380Y-141624761D02*
X118904761Y-141624761D01*
X119000000Y-142577142D01*
X118904761Y-142481904D01*
X118714285Y-142386666D01*
X118238095Y-142386666D01*
X118047619Y-142481904D01*
X117952380Y-142577142D01*
X117857142Y-142767619D01*
X117857142Y-143243809D01*
X117952380Y-143434285D01*
X118047619Y-143529523D01*
X118238095Y-143624761D01*
X118714285Y-143624761D01*
X118904761Y-143529523D01*
X119000000Y-143434285D01*
D11*
G04 #@! TO.P,REF\002A\002A,1*
G04 #@! TO.N,N/C*
X113538000Y-98298000D03*
G04 #@! TD*
G04 #@! TO.P,REF\002A\002A,1*
G04 #@! TO.N,N/C*
X113284000Y-140970000D03*
G04 #@! TD*
G04 #@! TO.P,REF\002A\002A,1*
G04 #@! TO.N,N/C*
X179070000Y-142240000D03*
G04 #@! TD*
G04 #@! TO.P,REF\002A\002A,1*
G04 #@! TO.N,N/C*
X179578000Y-96520000D03*
G04 #@! TD*
D12*
G04 #@! TO.P,F2,1*
G04 #@! TO.N,Net-(F2-Pad1)*
X173736000Y-112776000D03*
D13*
G04 #@! TO.P,F2,2*
G04 #@! TO.N,Net-(F2-Pad2)*
X181236000Y-112776000D03*
G04 #@! TD*
D14*
G04 #@! TO.P,J3,1*
G04 #@! TO.N,Net-(J3-Pad1)*
X181864000Y-101092000D03*
D13*
G04 #@! TO.P,J3,2*
G04 #@! TO.N,Net-(F2-Pad2)*
X181864000Y-106172000D03*
G04 #@! TD*
D12*
G04 #@! TO.P,F1,1*
G04 #@! TO.N,Net-(F1-Pad1)*
X172212000Y-117856000D03*
G04 #@! TO.P,F1,2*
G04 #@! TO.N,Net-(F1-Pad2)*
X172212000Y-141986000D03*
G04 #@! TD*
D15*
G04 #@! TO.P,J1,1*
G04 #@! TO.N,Net-(F1-Pad1)*
X179832000Y-124968000D03*
G04 #@! TD*
G04 #@! TO.P,J2,1*
G04 #@! TO.N,Net-(J2-Pad1)*
X179832000Y-135128000D03*
G04 #@! TD*
D16*
G04 #@! TO.P,K1,1*
G04 #@! TO.N,Vin*
X144526000Y-134874000D03*
G04 #@! TO.P,K1,5*
G04 #@! TO.N,Net-(D1-Pad1)*
X144526000Y-124714000D03*
D17*
G04 #@! TO.P,K1,2*
G04 #@! TO.N,Net-(F1-Pad2)*
X159766000Y-138684000D03*
G04 #@! TO.P,K1,3*
G04 #@! TO.N,Net-(J2-Pad1)*
X157226000Y-120904000D03*
G04 #@! TD*
D18*
G04 #@! TO.P,U1,1*
G04 #@! TO.N,N/C*
X108025001Y-99135001D03*
G04 #@! TO.P,U1,2*
X108025001Y-101675001D03*
G04 #@! TO.P,U1,3*
X108025001Y-104215001D03*
G04 #@! TO.P,U1,4*
X108025001Y-106755001D03*
G04 #@! TO.P,U1,5*
X108025001Y-109295001D03*
G04 #@! TO.P,U1,6*
X108025001Y-111835001D03*
G04 #@! TO.P,U1,7*
X108025001Y-114375001D03*
G04 #@! TO.P,U1,8*
X108025001Y-116915001D03*
G04 #@! TO.P,U1,9*
X108025001Y-119455001D03*
G04 #@! TO.P,U1,10*
G04 #@! TO.N,GND*
X108025001Y-121995001D03*
G04 #@! TO.P,U1,11*
G04 #@! TO.N,N/C*
X108025001Y-124535001D03*
G04 #@! TO.P,U1,12*
X108025001Y-127075001D03*
G04 #@! TO.P,U1,13*
X108025001Y-129615001D03*
G04 #@! TO.P,U1,14*
G04 #@! TO.N,GND*
X108025001Y-132155001D03*
G04 #@! TO.P,U1,15*
G04 #@! TO.N,Vin*
X108025001Y-134695001D03*
G04 #@! TO.P,U1,16*
G04 #@! TO.N,N/C*
X135965001Y-134695001D03*
G04 #@! TO.P,U1,17*
G04 #@! TO.N,GND*
X135965001Y-132155001D03*
G04 #@! TO.P,U1,18*
G04 #@! TO.N,N/C*
X135965001Y-129615001D03*
G04 #@! TO.P,U1,19*
X135965001Y-127075001D03*
G04 #@! TO.P,U1,20*
X135965001Y-124535001D03*
G04 #@! TO.P,U1,21*
X135965001Y-121995001D03*
G04 #@! TO.P,U1,22*
G04 #@! TO.N,GND*
X135965001Y-119455001D03*
G04 #@! TO.P,U1,23*
G04 #@! TO.N,IO14*
X135965001Y-116915001D03*
G04 #@! TO.P,U1,24*
G04 #@! TO.N,GND*
X135965001Y-114375001D03*
G04 #@! TO.P,U1,25*
G04 #@! TO.N,N/C*
X135965001Y-111835001D03*
G04 #@! TO.P,U1,26*
X135965001Y-109295001D03*
G04 #@! TO.P,U1,27*
X135965001Y-106755001D03*
G04 #@! TO.P,U1,28*
X135965001Y-104215001D03*
G04 #@! TO.P,U1,29*
X135965001Y-101675001D03*
G04 #@! TO.P,U1,30*
X135965001Y-99135001D03*
G04 #@! TD*
D19*
G04 #@! TO.P,U2,1*
G04 #@! TO.N,Net-(F2-Pad1)*
X169640000Y-106640000D03*
G04 #@! TO.P,U2,2*
G04 #@! TO.N,Net-(J3-Pad1)*
X169640000Y-101640000D03*
G04 #@! TO.P,U2,3*
G04 #@! TO.N,GND*
X140240000Y-111840000D03*
G04 #@! TO.P,U2,4*
G04 #@! TO.N,Vin*
X140240000Y-96440000D03*
G04 #@! TD*
D12*
G04 #@! TO.P,RV1,1*
G04 #@! TO.N,Net-(F2-Pad1)*
X174752000Y-107696000D03*
G04 #@! TO.P,RV1,2*
G04 #@! TO.N,Net-(J3-Pad1)*
X174752000Y-100196000D03*
G04 #@! TD*
D20*
G04 #@! TO.N,GND*
X109102631Y-132155001D02*
X135965001Y-132155001D01*
X108025001Y-132155001D02*
X109102631Y-132155001D01*
G04 #@! TD*
D21*
G04 #@! TO.N,Net-(F1-Pad1)*
G36*
X172921566Y-116956392D02*
X182514118Y-122509975D01*
X183004209Y-124715380D01*
X182515920Y-127156823D01*
X180319390Y-127889000D01*
X178100981Y-127889000D01*
X176372691Y-126407608D01*
X171323000Y-118580587D01*
X171323000Y-117640452D01*
X171778172Y-116957694D01*
X172581282Y-116842964D01*
X172921566Y-116956392D01*
X172921566Y-116956392D01*
G37*
X172921566Y-116956392D02*
X182514118Y-122509975D01*
X183004209Y-124715380D01*
X182515920Y-127156823D01*
X180319390Y-127889000D01*
X178100981Y-127889000D01*
X176372691Y-126407608D01*
X171323000Y-118580587D01*
X171323000Y-117640452D01*
X171778172Y-116957694D01*
X172581282Y-116842964D01*
X172921566Y-116956392D01*
G04 #@! TO.N,Net-(F1-Pad2)*
G36*
X168744640Y-137282810D02*
X170235180Y-138028080D01*
X171362827Y-139030433D01*
X172361626Y-140029232D01*
X172974000Y-141253980D01*
X172974000Y-142656463D01*
X171937390Y-143002000D01*
X162442029Y-143002000D01*
X160709572Y-142754506D01*
X159852354Y-142019748D01*
X158977029Y-141144423D01*
X158359192Y-140155884D01*
X158115000Y-139301211D01*
X158115000Y-138858376D01*
X159696992Y-137033000D01*
X166995971Y-137033000D01*
X168744640Y-137282810D01*
X168744640Y-137282810D01*
G37*
X168744640Y-137282810D02*
X170235180Y-138028080D01*
X171362827Y-139030433D01*
X172361626Y-140029232D01*
X172974000Y-141253980D01*
X172974000Y-142656463D01*
X171937390Y-143002000D01*
X162442029Y-143002000D01*
X160709572Y-142754506D01*
X159852354Y-142019748D01*
X158977029Y-141144423D01*
X158359192Y-140155884D01*
X158115000Y-139301211D01*
X158115000Y-138858376D01*
X159696992Y-137033000D01*
X166995971Y-137033000D01*
X168744640Y-137282810D01*
G04 #@! TO.N,Net-(J2-Pad1)*
G36*
X158189268Y-119497016D02*
X171889625Y-128250022D01*
X171898417Y-128255156D01*
X175962417Y-130414156D01*
X175984357Y-130423293D01*
X179663842Y-131565202D01*
X181656499Y-132312448D01*
X183255025Y-134525793D01*
X183014609Y-136208711D01*
X181174552Y-137926097D01*
X178195387Y-138174361D01*
X175810771Y-137421325D01*
X173913656Y-136662479D01*
X169616592Y-134640331D01*
X155815958Y-121979199D01*
X155583967Y-121051233D01*
X155926833Y-120479789D01*
X157382698Y-119266568D01*
X158189268Y-119497016D01*
X158189268Y-119497016D01*
G37*
X158189268Y-119497016D02*
X171889625Y-128250022D01*
X171898417Y-128255156D01*
X175962417Y-130414156D01*
X175984357Y-130423293D01*
X179663842Y-131565202D01*
X181656499Y-132312448D01*
X183255025Y-134525793D01*
X183014609Y-136208711D01*
X181174552Y-137926097D01*
X178195387Y-138174361D01*
X175810771Y-137421325D01*
X173913656Y-136662479D01*
X169616592Y-134640331D01*
X155815958Y-121979199D01*
X155583967Y-121051233D01*
X155926833Y-120479789D01*
X157382698Y-119266568D01*
X158189268Y-119497016D01*
G04 #@! TO.N,GND*
G36*
X116332000Y-99949000D02*
X116341667Y-99997601D01*
X116369197Y-100038803D01*
X116410399Y-100066333D01*
X116459000Y-100076000D01*
X127508000Y-100076000D01*
X127556601Y-100066333D01*
X127597803Y-100038803D01*
X127625333Y-99997601D01*
X127635000Y-99949000D01*
X127635000Y-98857120D01*
X134568001Y-98857120D01*
X134568001Y-99412882D01*
X134780681Y-99926338D01*
X135173664Y-100319321D01*
X135380514Y-100405001D01*
X135173664Y-100490681D01*
X134780681Y-100883664D01*
X134568001Y-101397120D01*
X134568001Y-101952882D01*
X134780681Y-102466338D01*
X135173664Y-102859321D01*
X135380514Y-102945001D01*
X135173664Y-103030681D01*
X134780681Y-103423664D01*
X134568001Y-103937120D01*
X134568001Y-104492882D01*
X134780681Y-105006338D01*
X135173664Y-105399321D01*
X135380514Y-105485001D01*
X135173664Y-105570681D01*
X134780681Y-105963664D01*
X134568001Y-106477120D01*
X134568001Y-107032882D01*
X134780681Y-107546338D01*
X135173664Y-107939321D01*
X135380514Y-108025001D01*
X135173664Y-108110681D01*
X134780681Y-108503664D01*
X134568001Y-109017120D01*
X134568001Y-109572882D01*
X134780681Y-110086338D01*
X135173664Y-110479321D01*
X135380514Y-110565001D01*
X135173664Y-110650681D01*
X134780681Y-111043664D01*
X134568001Y-111557120D01*
X134568001Y-112112882D01*
X134780681Y-112626338D01*
X135173664Y-113019321D01*
X135687120Y-113232001D01*
X136242882Y-113232001D01*
X136756338Y-113019321D01*
X137149321Y-112626338D01*
X137362001Y-112112882D01*
X137362001Y-111557120D01*
X137149321Y-111043664D01*
X136756338Y-110650681D01*
X136549488Y-110565001D01*
X136756338Y-110479321D01*
X137149321Y-110086338D01*
X137362001Y-109572882D01*
X137362001Y-109017120D01*
X137149321Y-108503664D01*
X136756338Y-108110681D01*
X136549488Y-108025001D01*
X136756338Y-107939321D01*
X137149321Y-107546338D01*
X137362001Y-107032882D01*
X137362001Y-106477120D01*
X137149321Y-105963664D01*
X136756338Y-105570681D01*
X136549488Y-105485001D01*
X136756338Y-105399321D01*
X137149321Y-105006338D01*
X137362001Y-104492882D01*
X137362001Y-103937120D01*
X137149321Y-103423664D01*
X136756338Y-103030681D01*
X136549488Y-102945001D01*
X136756338Y-102859321D01*
X137149321Y-102466338D01*
X137362001Y-101952882D01*
X137362001Y-101397120D01*
X137149321Y-100883664D01*
X136756338Y-100490681D01*
X136549488Y-100405001D01*
X136756338Y-100319321D01*
X137149321Y-99926338D01*
X137362001Y-99412882D01*
X137362001Y-98857120D01*
X137149321Y-98343664D01*
X136756338Y-97950681D01*
X136242882Y-97738001D01*
X135687120Y-97738001D01*
X135173664Y-97950681D01*
X134780681Y-98343664D01*
X134568001Y-98857120D01*
X127635000Y-98857120D01*
X127635000Y-94690000D01*
X139539131Y-94690000D01*
X139172233Y-94841974D01*
X138641974Y-95372233D01*
X138355000Y-96065050D01*
X138355000Y-96814950D01*
X138641974Y-97507767D01*
X139172233Y-98038026D01*
X139865050Y-98325000D01*
X140614950Y-98325000D01*
X141307767Y-98038026D01*
X141838026Y-97507767D01*
X142125000Y-96814950D01*
X142125000Y-96065050D01*
X141838026Y-95372233D01*
X141307767Y-94841974D01*
X140940869Y-94690000D01*
X152273000Y-94690000D01*
X152273000Y-144070000D01*
X137408810Y-144070000D01*
X137408810Y-137020000D01*
X116591191Y-137020000D01*
X116591191Y-144070000D01*
X107390000Y-144070000D01*
X107390000Y-140445866D01*
X110649000Y-140445866D01*
X110649000Y-141494134D01*
X111050155Y-142462608D01*
X111791392Y-143203845D01*
X112759866Y-143605000D01*
X113808134Y-143605000D01*
X114776608Y-143203845D01*
X115517845Y-142462608D01*
X115919000Y-141494134D01*
X115919000Y-140445866D01*
X115517845Y-139477392D01*
X114776608Y-138736155D01*
X113808134Y-138335000D01*
X112759866Y-138335000D01*
X111791392Y-138736155D01*
X111050155Y-139477392D01*
X110649000Y-140445866D01*
X107390000Y-140445866D01*
X107390000Y-135944077D01*
X107747120Y-136092001D01*
X108302882Y-136092001D01*
X108816338Y-135879321D01*
X109209321Y-135486338D01*
X109422001Y-134972882D01*
X109422001Y-134417120D01*
X134568001Y-134417120D01*
X134568001Y-134972882D01*
X134780681Y-135486338D01*
X135173664Y-135879321D01*
X135687120Y-136092001D01*
X136242882Y-136092001D01*
X136756338Y-135879321D01*
X137149321Y-135486338D01*
X137362001Y-134972882D01*
X137362001Y-134528887D01*
X142791000Y-134528887D01*
X142791000Y-135219113D01*
X143055138Y-135856799D01*
X143543201Y-136344862D01*
X144180887Y-136609000D01*
X144871113Y-136609000D01*
X145508799Y-136344862D01*
X145996862Y-135856799D01*
X146261000Y-135219113D01*
X146261000Y-134528887D01*
X145996862Y-133891201D01*
X145508799Y-133403138D01*
X144871113Y-133139000D01*
X144180887Y-133139000D01*
X143543201Y-133403138D01*
X143055138Y-133891201D01*
X142791000Y-134528887D01*
X137362001Y-134528887D01*
X137362001Y-134417120D01*
X137149321Y-133903664D01*
X136756338Y-133510681D01*
X136242882Y-133298001D01*
X135687120Y-133298001D01*
X135173664Y-133510681D01*
X134780681Y-133903664D01*
X134568001Y-134417120D01*
X109422001Y-134417120D01*
X109209321Y-133903664D01*
X108816338Y-133510681D01*
X108302882Y-133298001D01*
X107747120Y-133298001D01*
X107390000Y-133445925D01*
X107390000Y-130864077D01*
X107747120Y-131012001D01*
X108302882Y-131012001D01*
X108816338Y-130799321D01*
X109209321Y-130406338D01*
X109422001Y-129892882D01*
X109422001Y-129337120D01*
X109209321Y-128823664D01*
X108816338Y-128430681D01*
X108609488Y-128345001D01*
X108816338Y-128259321D01*
X109209321Y-127866338D01*
X109422001Y-127352882D01*
X109422001Y-126797120D01*
X109209321Y-126283664D01*
X108816338Y-125890681D01*
X108609488Y-125805001D01*
X108816338Y-125719321D01*
X109209321Y-125326338D01*
X109422001Y-124812882D01*
X109422001Y-124257120D01*
X109209321Y-123743664D01*
X108816338Y-123350681D01*
X108302882Y-123138001D01*
X107747120Y-123138001D01*
X107390000Y-123285925D01*
X107390000Y-121717120D01*
X134568001Y-121717120D01*
X134568001Y-122272882D01*
X134780681Y-122786338D01*
X135173664Y-123179321D01*
X135380514Y-123265001D01*
X135173664Y-123350681D01*
X134780681Y-123743664D01*
X134568001Y-124257120D01*
X134568001Y-124812882D01*
X134780681Y-125326338D01*
X135173664Y-125719321D01*
X135380514Y-125805001D01*
X135173664Y-125890681D01*
X134780681Y-126283664D01*
X134568001Y-126797120D01*
X134568001Y-127352882D01*
X134780681Y-127866338D01*
X135173664Y-128259321D01*
X135380514Y-128345001D01*
X135173664Y-128430681D01*
X134780681Y-128823664D01*
X134568001Y-129337120D01*
X134568001Y-129892882D01*
X134780681Y-130406338D01*
X135173664Y-130799321D01*
X135687120Y-131012001D01*
X136242882Y-131012001D01*
X136756338Y-130799321D01*
X137149321Y-130406338D01*
X137362001Y-129892882D01*
X137362001Y-129337120D01*
X137149321Y-128823664D01*
X136756338Y-128430681D01*
X136549488Y-128345001D01*
X136756338Y-128259321D01*
X137149321Y-127866338D01*
X137362001Y-127352882D01*
X137362001Y-126797120D01*
X137149321Y-126283664D01*
X136756338Y-125890681D01*
X136549488Y-125805001D01*
X136756338Y-125719321D01*
X137149321Y-125326338D01*
X137362001Y-124812882D01*
X137362001Y-124368887D01*
X142791000Y-124368887D01*
X142791000Y-125059113D01*
X143055138Y-125696799D01*
X143543201Y-126184862D01*
X144180887Y-126449000D01*
X144871113Y-126449000D01*
X145508799Y-126184862D01*
X145996862Y-125696799D01*
X146261000Y-125059113D01*
X146261000Y-124368887D01*
X145996862Y-123731201D01*
X145508799Y-123243138D01*
X144871113Y-122979000D01*
X144180887Y-122979000D01*
X143543201Y-123243138D01*
X143055138Y-123731201D01*
X142791000Y-124368887D01*
X137362001Y-124368887D01*
X137362001Y-124257120D01*
X137149321Y-123743664D01*
X136756338Y-123350681D01*
X136549488Y-123265001D01*
X136756338Y-123179321D01*
X137149321Y-122786338D01*
X137362001Y-122272882D01*
X137362001Y-121717120D01*
X137149321Y-121203664D01*
X136756338Y-120810681D01*
X136242882Y-120598001D01*
X135687120Y-120598001D01*
X135173664Y-120810681D01*
X134780681Y-121203664D01*
X134568001Y-121717120D01*
X107390000Y-121717120D01*
X107390000Y-120704077D01*
X107747120Y-120852001D01*
X108302882Y-120852001D01*
X108816338Y-120639321D01*
X109209321Y-120246338D01*
X109422001Y-119732882D01*
X109422001Y-119177120D01*
X109209321Y-118663664D01*
X108816338Y-118270681D01*
X108609488Y-118185001D01*
X108816338Y-118099321D01*
X109209321Y-117706338D01*
X109422001Y-117192882D01*
X109422001Y-116637120D01*
X134568001Y-116637120D01*
X134568001Y-117192882D01*
X134780681Y-117706338D01*
X135173664Y-118099321D01*
X135687120Y-118312001D01*
X136242882Y-118312001D01*
X136756338Y-118099321D01*
X137149321Y-117706338D01*
X137362001Y-117192882D01*
X137362001Y-116637120D01*
X137149321Y-116123664D01*
X136756338Y-115730681D01*
X136242882Y-115518001D01*
X135687120Y-115518001D01*
X135173664Y-115730681D01*
X134780681Y-116123664D01*
X134568001Y-116637120D01*
X109422001Y-116637120D01*
X109209321Y-116123664D01*
X108816338Y-115730681D01*
X108609488Y-115645001D01*
X108816338Y-115559321D01*
X109209321Y-115166338D01*
X109422001Y-114652882D01*
X109422001Y-114097120D01*
X109209321Y-113583664D01*
X108816338Y-113190681D01*
X108609488Y-113105001D01*
X108816338Y-113019321D01*
X109209321Y-112626338D01*
X109422001Y-112112882D01*
X109422001Y-111557120D01*
X109209321Y-111043664D01*
X108816338Y-110650681D01*
X108609488Y-110565001D01*
X108816338Y-110479321D01*
X109209321Y-110086338D01*
X109422001Y-109572882D01*
X109422001Y-109017120D01*
X109209321Y-108503664D01*
X108816338Y-108110681D01*
X108609488Y-108025001D01*
X108816338Y-107939321D01*
X109209321Y-107546338D01*
X109422001Y-107032882D01*
X109422001Y-106477120D01*
X109209321Y-105963664D01*
X108816338Y-105570681D01*
X108609488Y-105485001D01*
X108816338Y-105399321D01*
X109209321Y-105006338D01*
X109422001Y-104492882D01*
X109422001Y-103937120D01*
X109209321Y-103423664D01*
X108816338Y-103030681D01*
X108609488Y-102945001D01*
X108816338Y-102859321D01*
X109209321Y-102466338D01*
X109422001Y-101952882D01*
X109422001Y-101397120D01*
X109209321Y-100883664D01*
X108816338Y-100490681D01*
X108609488Y-100405001D01*
X108816338Y-100319321D01*
X109209321Y-99926338D01*
X109422001Y-99412882D01*
X109422001Y-98857120D01*
X109209321Y-98343664D01*
X108816338Y-97950681D01*
X108389468Y-97773866D01*
X110903000Y-97773866D01*
X110903000Y-98822134D01*
X111304155Y-99790608D01*
X112045392Y-100531845D01*
X113013866Y-100933000D01*
X114062134Y-100933000D01*
X115030608Y-100531845D01*
X115771845Y-99790608D01*
X116173000Y-98822134D01*
X116173000Y-97773866D01*
X115771845Y-96805392D01*
X115030608Y-96064155D01*
X114062134Y-95663000D01*
X113013866Y-95663000D01*
X112045392Y-96064155D01*
X111304155Y-96805392D01*
X110903000Y-97773866D01*
X108389468Y-97773866D01*
X108302882Y-97738001D01*
X107747120Y-97738001D01*
X107390000Y-97885925D01*
X107390000Y-94690000D01*
X116332000Y-94690000D01*
X116332000Y-99949000D01*
X116332000Y-99949000D01*
G37*
X116332000Y-99949000D02*
X116341667Y-99997601D01*
X116369197Y-100038803D01*
X116410399Y-100066333D01*
X116459000Y-100076000D01*
X127508000Y-100076000D01*
X127556601Y-100066333D01*
X127597803Y-100038803D01*
X127625333Y-99997601D01*
X127635000Y-99949000D01*
X127635000Y-98857120D01*
X134568001Y-98857120D01*
X134568001Y-99412882D01*
X134780681Y-99926338D01*
X135173664Y-100319321D01*
X135380514Y-100405001D01*
X135173664Y-100490681D01*
X134780681Y-100883664D01*
X134568001Y-101397120D01*
X134568001Y-101952882D01*
X134780681Y-102466338D01*
X135173664Y-102859321D01*
X135380514Y-102945001D01*
X135173664Y-103030681D01*
X134780681Y-103423664D01*
X134568001Y-103937120D01*
X134568001Y-104492882D01*
X134780681Y-105006338D01*
X135173664Y-105399321D01*
X135380514Y-105485001D01*
X135173664Y-105570681D01*
X134780681Y-105963664D01*
X134568001Y-106477120D01*
X134568001Y-107032882D01*
X134780681Y-107546338D01*
X135173664Y-107939321D01*
X135380514Y-108025001D01*
X135173664Y-108110681D01*
X134780681Y-108503664D01*
X134568001Y-109017120D01*
X134568001Y-109572882D01*
X134780681Y-110086338D01*
X135173664Y-110479321D01*
X135380514Y-110565001D01*
X135173664Y-110650681D01*
X134780681Y-111043664D01*
X134568001Y-111557120D01*
X134568001Y-112112882D01*
X134780681Y-112626338D01*
X135173664Y-113019321D01*
X135687120Y-113232001D01*
X136242882Y-113232001D01*
X136756338Y-113019321D01*
X137149321Y-112626338D01*
X137362001Y-112112882D01*
X137362001Y-111557120D01*
X137149321Y-111043664D01*
X136756338Y-110650681D01*
X136549488Y-110565001D01*
X136756338Y-110479321D01*
X137149321Y-110086338D01*
X137362001Y-109572882D01*
X137362001Y-109017120D01*
X137149321Y-108503664D01*
X136756338Y-108110681D01*
X136549488Y-108025001D01*
X136756338Y-107939321D01*
X137149321Y-107546338D01*
X137362001Y-107032882D01*
X137362001Y-106477120D01*
X137149321Y-105963664D01*
X136756338Y-105570681D01*
X136549488Y-105485001D01*
X136756338Y-105399321D01*
X137149321Y-105006338D01*
X137362001Y-104492882D01*
X137362001Y-103937120D01*
X137149321Y-103423664D01*
X136756338Y-103030681D01*
X136549488Y-102945001D01*
X136756338Y-102859321D01*
X137149321Y-102466338D01*
X137362001Y-101952882D01*
X137362001Y-101397120D01*
X137149321Y-100883664D01*
X136756338Y-100490681D01*
X136549488Y-100405001D01*
X136756338Y-100319321D01*
X137149321Y-99926338D01*
X137362001Y-99412882D01*
X137362001Y-98857120D01*
X137149321Y-98343664D01*
X136756338Y-97950681D01*
X136242882Y-97738001D01*
X135687120Y-97738001D01*
X135173664Y-97950681D01*
X134780681Y-98343664D01*
X134568001Y-98857120D01*
X127635000Y-98857120D01*
X127635000Y-94690000D01*
X139539131Y-94690000D01*
X139172233Y-94841974D01*
X138641974Y-95372233D01*
X138355000Y-96065050D01*
X138355000Y-96814950D01*
X138641974Y-97507767D01*
X139172233Y-98038026D01*
X139865050Y-98325000D01*
X140614950Y-98325000D01*
X141307767Y-98038026D01*
X141838026Y-97507767D01*
X142125000Y-96814950D01*
X142125000Y-96065050D01*
X141838026Y-95372233D01*
X141307767Y-94841974D01*
X140940869Y-94690000D01*
X152273000Y-94690000D01*
X152273000Y-144070000D01*
X137408810Y-144070000D01*
X137408810Y-137020000D01*
X116591191Y-137020000D01*
X116591191Y-144070000D01*
X107390000Y-144070000D01*
X107390000Y-140445866D01*
X110649000Y-140445866D01*
X110649000Y-141494134D01*
X111050155Y-142462608D01*
X111791392Y-143203845D01*
X112759866Y-143605000D01*
X113808134Y-143605000D01*
X114776608Y-143203845D01*
X115517845Y-142462608D01*
X115919000Y-141494134D01*
X115919000Y-140445866D01*
X115517845Y-139477392D01*
X114776608Y-138736155D01*
X113808134Y-138335000D01*
X112759866Y-138335000D01*
X111791392Y-138736155D01*
X111050155Y-139477392D01*
X110649000Y-140445866D01*
X107390000Y-140445866D01*
X107390000Y-135944077D01*
X107747120Y-136092001D01*
X108302882Y-136092001D01*
X108816338Y-135879321D01*
X109209321Y-135486338D01*
X109422001Y-134972882D01*
X109422001Y-134417120D01*
X134568001Y-134417120D01*
X134568001Y-134972882D01*
X134780681Y-135486338D01*
X135173664Y-135879321D01*
X135687120Y-136092001D01*
X136242882Y-136092001D01*
X136756338Y-135879321D01*
X137149321Y-135486338D01*
X137362001Y-134972882D01*
X137362001Y-134528887D01*
X142791000Y-134528887D01*
X142791000Y-135219113D01*
X143055138Y-135856799D01*
X143543201Y-136344862D01*
X144180887Y-136609000D01*
X144871113Y-136609000D01*
X145508799Y-136344862D01*
X145996862Y-135856799D01*
X146261000Y-135219113D01*
X146261000Y-134528887D01*
X145996862Y-133891201D01*
X145508799Y-133403138D01*
X144871113Y-133139000D01*
X144180887Y-133139000D01*
X143543201Y-133403138D01*
X143055138Y-133891201D01*
X142791000Y-134528887D01*
X137362001Y-134528887D01*
X137362001Y-134417120D01*
X137149321Y-133903664D01*
X136756338Y-133510681D01*
X136242882Y-133298001D01*
X135687120Y-133298001D01*
X135173664Y-133510681D01*
X134780681Y-133903664D01*
X134568001Y-134417120D01*
X109422001Y-134417120D01*
X109209321Y-133903664D01*
X108816338Y-133510681D01*
X108302882Y-133298001D01*
X107747120Y-133298001D01*
X107390000Y-133445925D01*
X107390000Y-130864077D01*
X107747120Y-131012001D01*
X108302882Y-131012001D01*
X108816338Y-130799321D01*
X109209321Y-130406338D01*
X109422001Y-129892882D01*
X109422001Y-129337120D01*
X109209321Y-128823664D01*
X108816338Y-128430681D01*
X108609488Y-128345001D01*
X108816338Y-128259321D01*
X109209321Y-127866338D01*
X109422001Y-127352882D01*
X109422001Y-126797120D01*
X109209321Y-126283664D01*
X108816338Y-125890681D01*
X108609488Y-125805001D01*
X108816338Y-125719321D01*
X109209321Y-125326338D01*
X109422001Y-124812882D01*
X109422001Y-124257120D01*
X109209321Y-123743664D01*
X108816338Y-123350681D01*
X108302882Y-123138001D01*
X107747120Y-123138001D01*
X107390000Y-123285925D01*
X107390000Y-121717120D01*
X134568001Y-121717120D01*
X134568001Y-122272882D01*
X134780681Y-122786338D01*
X135173664Y-123179321D01*
X135380514Y-123265001D01*
X135173664Y-123350681D01*
X134780681Y-123743664D01*
X134568001Y-124257120D01*
X134568001Y-124812882D01*
X134780681Y-125326338D01*
X135173664Y-125719321D01*
X135380514Y-125805001D01*
X135173664Y-125890681D01*
X134780681Y-126283664D01*
X134568001Y-126797120D01*
X134568001Y-127352882D01*
X134780681Y-127866338D01*
X135173664Y-128259321D01*
X135380514Y-128345001D01*
X135173664Y-128430681D01*
X134780681Y-128823664D01*
X134568001Y-129337120D01*
X134568001Y-129892882D01*
X134780681Y-130406338D01*
X135173664Y-130799321D01*
X135687120Y-131012001D01*
X136242882Y-131012001D01*
X136756338Y-130799321D01*
X137149321Y-130406338D01*
X137362001Y-129892882D01*
X137362001Y-129337120D01*
X137149321Y-128823664D01*
X136756338Y-128430681D01*
X136549488Y-128345001D01*
X136756338Y-128259321D01*
X137149321Y-127866338D01*
X137362001Y-127352882D01*
X137362001Y-126797120D01*
X137149321Y-126283664D01*
X136756338Y-125890681D01*
X136549488Y-125805001D01*
X136756338Y-125719321D01*
X137149321Y-125326338D01*
X137362001Y-124812882D01*
X137362001Y-124368887D01*
X142791000Y-124368887D01*
X142791000Y-125059113D01*
X143055138Y-125696799D01*
X143543201Y-126184862D01*
X144180887Y-126449000D01*
X144871113Y-126449000D01*
X145508799Y-126184862D01*
X145996862Y-125696799D01*
X146261000Y-125059113D01*
X146261000Y-124368887D01*
X145996862Y-123731201D01*
X145508799Y-123243138D01*
X144871113Y-122979000D01*
X144180887Y-122979000D01*
X143543201Y-123243138D01*
X143055138Y-123731201D01*
X142791000Y-124368887D01*
X137362001Y-124368887D01*
X137362001Y-124257120D01*
X137149321Y-123743664D01*
X136756338Y-123350681D01*
X136549488Y-123265001D01*
X136756338Y-123179321D01*
X137149321Y-122786338D01*
X137362001Y-122272882D01*
X137362001Y-121717120D01*
X137149321Y-121203664D01*
X136756338Y-120810681D01*
X136242882Y-120598001D01*
X135687120Y-120598001D01*
X135173664Y-120810681D01*
X134780681Y-121203664D01*
X134568001Y-121717120D01*
X107390000Y-121717120D01*
X107390000Y-120704077D01*
X107747120Y-120852001D01*
X108302882Y-120852001D01*
X108816338Y-120639321D01*
X109209321Y-120246338D01*
X109422001Y-119732882D01*
X109422001Y-119177120D01*
X109209321Y-118663664D01*
X108816338Y-118270681D01*
X108609488Y-118185001D01*
X108816338Y-118099321D01*
X109209321Y-117706338D01*
X109422001Y-117192882D01*
X109422001Y-116637120D01*
X134568001Y-116637120D01*
X134568001Y-117192882D01*
X134780681Y-117706338D01*
X135173664Y-118099321D01*
X135687120Y-118312001D01*
X136242882Y-118312001D01*
X136756338Y-118099321D01*
X137149321Y-117706338D01*
X137362001Y-117192882D01*
X137362001Y-116637120D01*
X137149321Y-116123664D01*
X136756338Y-115730681D01*
X136242882Y-115518001D01*
X135687120Y-115518001D01*
X135173664Y-115730681D01*
X134780681Y-116123664D01*
X134568001Y-116637120D01*
X109422001Y-116637120D01*
X109209321Y-116123664D01*
X108816338Y-115730681D01*
X108609488Y-115645001D01*
X108816338Y-115559321D01*
X109209321Y-115166338D01*
X109422001Y-114652882D01*
X109422001Y-114097120D01*
X109209321Y-113583664D01*
X108816338Y-113190681D01*
X108609488Y-113105001D01*
X108816338Y-113019321D01*
X109209321Y-112626338D01*
X109422001Y-112112882D01*
X109422001Y-111557120D01*
X109209321Y-111043664D01*
X108816338Y-110650681D01*
X108609488Y-110565001D01*
X108816338Y-110479321D01*
X109209321Y-110086338D01*
X109422001Y-109572882D01*
X109422001Y-109017120D01*
X109209321Y-108503664D01*
X108816338Y-108110681D01*
X108609488Y-108025001D01*
X108816338Y-107939321D01*
X109209321Y-107546338D01*
X109422001Y-107032882D01*
X109422001Y-106477120D01*
X109209321Y-105963664D01*
X108816338Y-105570681D01*
X108609488Y-105485001D01*
X108816338Y-105399321D01*
X109209321Y-105006338D01*
X109422001Y-104492882D01*
X109422001Y-103937120D01*
X109209321Y-103423664D01*
X108816338Y-103030681D01*
X108609488Y-102945001D01*
X108816338Y-102859321D01*
X109209321Y-102466338D01*
X109422001Y-101952882D01*
X109422001Y-101397120D01*
X109209321Y-100883664D01*
X108816338Y-100490681D01*
X108609488Y-100405001D01*
X108816338Y-100319321D01*
X109209321Y-99926338D01*
X109422001Y-99412882D01*
X109422001Y-98857120D01*
X109209321Y-98343664D01*
X108816338Y-97950681D01*
X108389468Y-97773866D01*
X110903000Y-97773866D01*
X110903000Y-98822134D01*
X111304155Y-99790608D01*
X112045392Y-100531845D01*
X113013866Y-100933000D01*
X114062134Y-100933000D01*
X115030608Y-100531845D01*
X115771845Y-99790608D01*
X116173000Y-98822134D01*
X116173000Y-97773866D01*
X115771845Y-96805392D01*
X115030608Y-96064155D01*
X114062134Y-95663000D01*
X113013866Y-95663000D01*
X112045392Y-96064155D01*
X111304155Y-96805392D01*
X110903000Y-97773866D01*
X108389468Y-97773866D01*
X108302882Y-97738001D01*
X107747120Y-97738001D01*
X107390000Y-97885925D01*
X107390000Y-94690000D01*
X116332000Y-94690000D01*
X116332000Y-99949000D01*
G04 #@! TD*
M02*
