M48
;DRILL file {KiCad 5.0.0-fee4fd1~66~ubuntu16.04.1} date Sun Dec  9 19:38:51 2018
;FORMAT={-:-/ absolute / inch / decimal}
FMAT,2
INCH,TZ
T1C0.0300
T2C0.0394
T3C0.0472
T4C0.0512
T5C0.0866
T6C0.0984
T7C0.1516
%
G90
G05
M72
T1
X4.253Y-3.903
X4.253Y-4.003
X4.253Y-4.103
X4.253Y-4.203
X4.253Y-4.303
X4.253Y-4.403
X4.253Y-4.503
X4.253Y-4.603
X4.253Y-4.703
X4.253Y-4.803
X4.253Y-4.903
X4.253Y-5.003
X4.253Y-5.103
X4.253Y-5.203
X4.253Y-5.303
X5.353Y-3.903
X5.353Y-4.003
X5.353Y-4.103
X5.353Y-4.203
X5.353Y-4.303
X5.353Y-4.403
X5.353Y-4.503
X5.353Y-4.603
X5.353Y-4.703
X5.353Y-4.803
X5.353Y-4.903
X5.353Y-5.003
X5.353Y-5.103
X5.353Y-5.203
X5.353Y-5.303
T2
X5.5213Y-3.7969
X5.5213Y-4.4031
X6.6787Y-4.0016
X6.6787Y-4.1984
X6.88Y-3.9447
X6.88Y-4.24
T3
X5.69Y-4.91
X5.69Y-5.31
X6.78Y-4.64
X6.78Y-5.59
X6.84Y-4.44
X7.1353Y-4.44
T4
X7.16Y-3.98
X7.16Y-4.18
T5
X6.19Y-4.76
X6.29Y-5.46
T6
X7.07Y-3.8
X7.05Y-5.6
X4.46Y-5.55
X4.47Y-3.87
T7
X7.08Y-4.92
X7.08Y-5.32
T0
M30
