G04 #@! TF.GenerationSoftware,KiCad,Pcbnew,5.0.0-fee4fd1~66~ubuntu16.04.1*
G04 #@! TF.CreationDate,2018-12-09T19:45:05+07:00*
G04 #@! TF.ProjectId,master_circuit,6D61737465725F636972637569742E6B,rev?*
G04 #@! TF.SameCoordinates,Original*
G04 #@! TF.FileFunction,Paste,Top*
G04 #@! TF.FilePolarity,Positive*
%FSLAX46Y46*%
G04 Gerber Fmt 4.6, Leading zero omitted, Abs format (unit mm)*
G04 Created by KiCad (PCBNEW 5.0.0-fee4fd1~66~ubuntu16.04.1) date Sun Dec  9 19:45:05 2018*
%MOMM*%
%LPD*%
G01*
G04 APERTURE LIST*
%ADD10R,2.500000X1.100000*%
%ADD11C,0.100000*%
%ADD12C,0.975000*%
%ADD13C,0.875000*%
%ADD14R,3.800000X2.000000*%
%ADD15R,1.500000X2.000000*%
G04 APERTURE END LIST*
D10*
G04 #@! TO.C,U1*
X149160000Y-62230000D03*
X149160000Y-64230000D03*
X149160000Y-66230000D03*
X149160000Y-68230000D03*
X149160000Y-70230000D03*
X149160000Y-72230000D03*
X149160000Y-74230000D03*
X149160000Y-76230000D03*
X164560000Y-76230000D03*
X164560000Y-74230000D03*
X164560000Y-72230000D03*
X164560000Y-70230000D03*
X164560000Y-68230000D03*
X164560000Y-66230000D03*
X164560000Y-64230000D03*
X164560000Y-62230000D03*
G04 #@! TD*
D11*
G04 #@! TO.C,C1*
G36*
X148054142Y-80969174D02*
X148077803Y-80972684D01*
X148101007Y-80978496D01*
X148123529Y-80986554D01*
X148145153Y-80996782D01*
X148165670Y-81009079D01*
X148184883Y-81023329D01*
X148202607Y-81039393D01*
X148218671Y-81057117D01*
X148232921Y-81076330D01*
X148245218Y-81096847D01*
X148255446Y-81118471D01*
X148263504Y-81140993D01*
X148269316Y-81164197D01*
X148272826Y-81187858D01*
X148274000Y-81211750D01*
X148274000Y-81699250D01*
X148272826Y-81723142D01*
X148269316Y-81746803D01*
X148263504Y-81770007D01*
X148255446Y-81792529D01*
X148245218Y-81814153D01*
X148232921Y-81834670D01*
X148218671Y-81853883D01*
X148202607Y-81871607D01*
X148184883Y-81887671D01*
X148165670Y-81901921D01*
X148145153Y-81914218D01*
X148123529Y-81924446D01*
X148101007Y-81932504D01*
X148077803Y-81938316D01*
X148054142Y-81941826D01*
X148030250Y-81943000D01*
X147117750Y-81943000D01*
X147093858Y-81941826D01*
X147070197Y-81938316D01*
X147046993Y-81932504D01*
X147024471Y-81924446D01*
X147002847Y-81914218D01*
X146982330Y-81901921D01*
X146963117Y-81887671D01*
X146945393Y-81871607D01*
X146929329Y-81853883D01*
X146915079Y-81834670D01*
X146902782Y-81814153D01*
X146892554Y-81792529D01*
X146884496Y-81770007D01*
X146878684Y-81746803D01*
X146875174Y-81723142D01*
X146874000Y-81699250D01*
X146874000Y-81211750D01*
X146875174Y-81187858D01*
X146878684Y-81164197D01*
X146884496Y-81140993D01*
X146892554Y-81118471D01*
X146902782Y-81096847D01*
X146915079Y-81076330D01*
X146929329Y-81057117D01*
X146945393Y-81039393D01*
X146963117Y-81023329D01*
X146982330Y-81009079D01*
X147002847Y-80996782D01*
X147024471Y-80986554D01*
X147046993Y-80978496D01*
X147070197Y-80972684D01*
X147093858Y-80969174D01*
X147117750Y-80968000D01*
X148030250Y-80968000D01*
X148054142Y-80969174D01*
X148054142Y-80969174D01*
G37*
D12*
X147574000Y-81455500D03*
D11*
G36*
X148054142Y-79094174D02*
X148077803Y-79097684D01*
X148101007Y-79103496D01*
X148123529Y-79111554D01*
X148145153Y-79121782D01*
X148165670Y-79134079D01*
X148184883Y-79148329D01*
X148202607Y-79164393D01*
X148218671Y-79182117D01*
X148232921Y-79201330D01*
X148245218Y-79221847D01*
X148255446Y-79243471D01*
X148263504Y-79265993D01*
X148269316Y-79289197D01*
X148272826Y-79312858D01*
X148274000Y-79336750D01*
X148274000Y-79824250D01*
X148272826Y-79848142D01*
X148269316Y-79871803D01*
X148263504Y-79895007D01*
X148255446Y-79917529D01*
X148245218Y-79939153D01*
X148232921Y-79959670D01*
X148218671Y-79978883D01*
X148202607Y-79996607D01*
X148184883Y-80012671D01*
X148165670Y-80026921D01*
X148145153Y-80039218D01*
X148123529Y-80049446D01*
X148101007Y-80057504D01*
X148077803Y-80063316D01*
X148054142Y-80066826D01*
X148030250Y-80068000D01*
X147117750Y-80068000D01*
X147093858Y-80066826D01*
X147070197Y-80063316D01*
X147046993Y-80057504D01*
X147024471Y-80049446D01*
X147002847Y-80039218D01*
X146982330Y-80026921D01*
X146963117Y-80012671D01*
X146945393Y-79996607D01*
X146929329Y-79978883D01*
X146915079Y-79959670D01*
X146902782Y-79939153D01*
X146892554Y-79917529D01*
X146884496Y-79895007D01*
X146878684Y-79871803D01*
X146875174Y-79848142D01*
X146874000Y-79824250D01*
X146874000Y-79336750D01*
X146875174Y-79312858D01*
X146878684Y-79289197D01*
X146884496Y-79265993D01*
X146892554Y-79243471D01*
X146902782Y-79221847D01*
X146915079Y-79201330D01*
X146929329Y-79182117D01*
X146945393Y-79164393D01*
X146963117Y-79148329D01*
X146982330Y-79134079D01*
X147002847Y-79121782D01*
X147024471Y-79111554D01*
X147046993Y-79103496D01*
X147070197Y-79097684D01*
X147093858Y-79094174D01*
X147117750Y-79093000D01*
X148030250Y-79093000D01*
X148054142Y-79094174D01*
X148054142Y-79094174D01*
G37*
D12*
X147574000Y-79580500D03*
G04 #@! TD*
D11*
G04 #@! TO.C,C2*
G36*
X146022142Y-79094174D02*
X146045803Y-79097684D01*
X146069007Y-79103496D01*
X146091529Y-79111554D01*
X146113153Y-79121782D01*
X146133670Y-79134079D01*
X146152883Y-79148329D01*
X146170607Y-79164393D01*
X146186671Y-79182117D01*
X146200921Y-79201330D01*
X146213218Y-79221847D01*
X146223446Y-79243471D01*
X146231504Y-79265993D01*
X146237316Y-79289197D01*
X146240826Y-79312858D01*
X146242000Y-79336750D01*
X146242000Y-79824250D01*
X146240826Y-79848142D01*
X146237316Y-79871803D01*
X146231504Y-79895007D01*
X146223446Y-79917529D01*
X146213218Y-79939153D01*
X146200921Y-79959670D01*
X146186671Y-79978883D01*
X146170607Y-79996607D01*
X146152883Y-80012671D01*
X146133670Y-80026921D01*
X146113153Y-80039218D01*
X146091529Y-80049446D01*
X146069007Y-80057504D01*
X146045803Y-80063316D01*
X146022142Y-80066826D01*
X145998250Y-80068000D01*
X145085750Y-80068000D01*
X145061858Y-80066826D01*
X145038197Y-80063316D01*
X145014993Y-80057504D01*
X144992471Y-80049446D01*
X144970847Y-80039218D01*
X144950330Y-80026921D01*
X144931117Y-80012671D01*
X144913393Y-79996607D01*
X144897329Y-79978883D01*
X144883079Y-79959670D01*
X144870782Y-79939153D01*
X144860554Y-79917529D01*
X144852496Y-79895007D01*
X144846684Y-79871803D01*
X144843174Y-79848142D01*
X144842000Y-79824250D01*
X144842000Y-79336750D01*
X144843174Y-79312858D01*
X144846684Y-79289197D01*
X144852496Y-79265993D01*
X144860554Y-79243471D01*
X144870782Y-79221847D01*
X144883079Y-79201330D01*
X144897329Y-79182117D01*
X144913393Y-79164393D01*
X144931117Y-79148329D01*
X144950330Y-79134079D01*
X144970847Y-79121782D01*
X144992471Y-79111554D01*
X145014993Y-79103496D01*
X145038197Y-79097684D01*
X145061858Y-79094174D01*
X145085750Y-79093000D01*
X145998250Y-79093000D01*
X146022142Y-79094174D01*
X146022142Y-79094174D01*
G37*
D12*
X145542000Y-79580500D03*
D11*
G36*
X146022142Y-80969174D02*
X146045803Y-80972684D01*
X146069007Y-80978496D01*
X146091529Y-80986554D01*
X146113153Y-80996782D01*
X146133670Y-81009079D01*
X146152883Y-81023329D01*
X146170607Y-81039393D01*
X146186671Y-81057117D01*
X146200921Y-81076330D01*
X146213218Y-81096847D01*
X146223446Y-81118471D01*
X146231504Y-81140993D01*
X146237316Y-81164197D01*
X146240826Y-81187858D01*
X146242000Y-81211750D01*
X146242000Y-81699250D01*
X146240826Y-81723142D01*
X146237316Y-81746803D01*
X146231504Y-81770007D01*
X146223446Y-81792529D01*
X146213218Y-81814153D01*
X146200921Y-81834670D01*
X146186671Y-81853883D01*
X146170607Y-81871607D01*
X146152883Y-81887671D01*
X146133670Y-81901921D01*
X146113153Y-81914218D01*
X146091529Y-81924446D01*
X146069007Y-81932504D01*
X146045803Y-81938316D01*
X146022142Y-81941826D01*
X145998250Y-81943000D01*
X145085750Y-81943000D01*
X145061858Y-81941826D01*
X145038197Y-81938316D01*
X145014993Y-81932504D01*
X144992471Y-81924446D01*
X144970847Y-81914218D01*
X144950330Y-81901921D01*
X144931117Y-81887671D01*
X144913393Y-81871607D01*
X144897329Y-81853883D01*
X144883079Y-81834670D01*
X144870782Y-81814153D01*
X144860554Y-81792529D01*
X144852496Y-81770007D01*
X144846684Y-81746803D01*
X144843174Y-81723142D01*
X144842000Y-81699250D01*
X144842000Y-81211750D01*
X144843174Y-81187858D01*
X144846684Y-81164197D01*
X144852496Y-81140993D01*
X144860554Y-81118471D01*
X144870782Y-81096847D01*
X144883079Y-81076330D01*
X144897329Y-81057117D01*
X144913393Y-81039393D01*
X144931117Y-81023329D01*
X144950330Y-81009079D01*
X144970847Y-80996782D01*
X144992471Y-80986554D01*
X145014993Y-80978496D01*
X145038197Y-80972684D01*
X145061858Y-80969174D01*
X145085750Y-80968000D01*
X145998250Y-80968000D01*
X146022142Y-80969174D01*
X146022142Y-80969174D01*
G37*
D12*
X145542000Y-81455500D03*
G04 #@! TD*
D11*
G04 #@! TO.C,C3*
G36*
X152931691Y-79014553D02*
X152952926Y-79017703D01*
X152973750Y-79022919D01*
X152993962Y-79030151D01*
X153013368Y-79039330D01*
X153031781Y-79050366D01*
X153049024Y-79063154D01*
X153064930Y-79077570D01*
X153079346Y-79093476D01*
X153092134Y-79110719D01*
X153103170Y-79129132D01*
X153112349Y-79148538D01*
X153119581Y-79168750D01*
X153124797Y-79189574D01*
X153127947Y-79210809D01*
X153129000Y-79232250D01*
X153129000Y-79669750D01*
X153127947Y-79691191D01*
X153124797Y-79712426D01*
X153119581Y-79733250D01*
X153112349Y-79753462D01*
X153103170Y-79772868D01*
X153092134Y-79791281D01*
X153079346Y-79808524D01*
X153064930Y-79824430D01*
X153049024Y-79838846D01*
X153031781Y-79851634D01*
X153013368Y-79862670D01*
X152993962Y-79871849D01*
X152973750Y-79879081D01*
X152952926Y-79884297D01*
X152931691Y-79887447D01*
X152910250Y-79888500D01*
X152397750Y-79888500D01*
X152376309Y-79887447D01*
X152355074Y-79884297D01*
X152334250Y-79879081D01*
X152314038Y-79871849D01*
X152294632Y-79862670D01*
X152276219Y-79851634D01*
X152258976Y-79838846D01*
X152243070Y-79824430D01*
X152228654Y-79808524D01*
X152215866Y-79791281D01*
X152204830Y-79772868D01*
X152195651Y-79753462D01*
X152188419Y-79733250D01*
X152183203Y-79712426D01*
X152180053Y-79691191D01*
X152179000Y-79669750D01*
X152179000Y-79232250D01*
X152180053Y-79210809D01*
X152183203Y-79189574D01*
X152188419Y-79168750D01*
X152195651Y-79148538D01*
X152204830Y-79129132D01*
X152215866Y-79110719D01*
X152228654Y-79093476D01*
X152243070Y-79077570D01*
X152258976Y-79063154D01*
X152276219Y-79050366D01*
X152294632Y-79039330D01*
X152314038Y-79030151D01*
X152334250Y-79022919D01*
X152355074Y-79017703D01*
X152376309Y-79014553D01*
X152397750Y-79013500D01*
X152910250Y-79013500D01*
X152931691Y-79014553D01*
X152931691Y-79014553D01*
G37*
D13*
X152654000Y-79451000D03*
D11*
G36*
X152931691Y-80589553D02*
X152952926Y-80592703D01*
X152973750Y-80597919D01*
X152993962Y-80605151D01*
X153013368Y-80614330D01*
X153031781Y-80625366D01*
X153049024Y-80638154D01*
X153064930Y-80652570D01*
X153079346Y-80668476D01*
X153092134Y-80685719D01*
X153103170Y-80704132D01*
X153112349Y-80723538D01*
X153119581Y-80743750D01*
X153124797Y-80764574D01*
X153127947Y-80785809D01*
X153129000Y-80807250D01*
X153129000Y-81244750D01*
X153127947Y-81266191D01*
X153124797Y-81287426D01*
X153119581Y-81308250D01*
X153112349Y-81328462D01*
X153103170Y-81347868D01*
X153092134Y-81366281D01*
X153079346Y-81383524D01*
X153064930Y-81399430D01*
X153049024Y-81413846D01*
X153031781Y-81426634D01*
X153013368Y-81437670D01*
X152993962Y-81446849D01*
X152973750Y-81454081D01*
X152952926Y-81459297D01*
X152931691Y-81462447D01*
X152910250Y-81463500D01*
X152397750Y-81463500D01*
X152376309Y-81462447D01*
X152355074Y-81459297D01*
X152334250Y-81454081D01*
X152314038Y-81446849D01*
X152294632Y-81437670D01*
X152276219Y-81426634D01*
X152258976Y-81413846D01*
X152243070Y-81399430D01*
X152228654Y-81383524D01*
X152215866Y-81366281D01*
X152204830Y-81347868D01*
X152195651Y-81328462D01*
X152188419Y-81308250D01*
X152183203Y-81287426D01*
X152180053Y-81266191D01*
X152179000Y-81244750D01*
X152179000Y-80807250D01*
X152180053Y-80785809D01*
X152183203Y-80764574D01*
X152188419Y-80743750D01*
X152195651Y-80723538D01*
X152204830Y-80704132D01*
X152215866Y-80685719D01*
X152228654Y-80668476D01*
X152243070Y-80652570D01*
X152258976Y-80638154D01*
X152276219Y-80625366D01*
X152294632Y-80614330D01*
X152314038Y-80605151D01*
X152334250Y-80597919D01*
X152355074Y-80592703D01*
X152376309Y-80589553D01*
X152397750Y-80588500D01*
X152910250Y-80588500D01*
X152931691Y-80589553D01*
X152931691Y-80589553D01*
G37*
D13*
X152654000Y-81026000D03*
G04 #@! TD*
D11*
G04 #@! TO.C,C4*
G36*
X158976142Y-84525174D02*
X158999803Y-84528684D01*
X159023007Y-84534496D01*
X159045529Y-84542554D01*
X159067153Y-84552782D01*
X159087670Y-84565079D01*
X159106883Y-84579329D01*
X159124607Y-84595393D01*
X159140671Y-84613117D01*
X159154921Y-84632330D01*
X159167218Y-84652847D01*
X159177446Y-84674471D01*
X159185504Y-84696993D01*
X159191316Y-84720197D01*
X159194826Y-84743858D01*
X159196000Y-84767750D01*
X159196000Y-85255250D01*
X159194826Y-85279142D01*
X159191316Y-85302803D01*
X159185504Y-85326007D01*
X159177446Y-85348529D01*
X159167218Y-85370153D01*
X159154921Y-85390670D01*
X159140671Y-85409883D01*
X159124607Y-85427607D01*
X159106883Y-85443671D01*
X159087670Y-85457921D01*
X159067153Y-85470218D01*
X159045529Y-85480446D01*
X159023007Y-85488504D01*
X158999803Y-85494316D01*
X158976142Y-85497826D01*
X158952250Y-85499000D01*
X158039750Y-85499000D01*
X158015858Y-85497826D01*
X157992197Y-85494316D01*
X157968993Y-85488504D01*
X157946471Y-85480446D01*
X157924847Y-85470218D01*
X157904330Y-85457921D01*
X157885117Y-85443671D01*
X157867393Y-85427607D01*
X157851329Y-85409883D01*
X157837079Y-85390670D01*
X157824782Y-85370153D01*
X157814554Y-85348529D01*
X157806496Y-85326007D01*
X157800684Y-85302803D01*
X157797174Y-85279142D01*
X157796000Y-85255250D01*
X157796000Y-84767750D01*
X157797174Y-84743858D01*
X157800684Y-84720197D01*
X157806496Y-84696993D01*
X157814554Y-84674471D01*
X157824782Y-84652847D01*
X157837079Y-84632330D01*
X157851329Y-84613117D01*
X157867393Y-84595393D01*
X157885117Y-84579329D01*
X157904330Y-84565079D01*
X157924847Y-84552782D01*
X157946471Y-84542554D01*
X157968993Y-84534496D01*
X157992197Y-84528684D01*
X158015858Y-84525174D01*
X158039750Y-84524000D01*
X158952250Y-84524000D01*
X158976142Y-84525174D01*
X158976142Y-84525174D01*
G37*
D12*
X158496000Y-85011500D03*
D11*
G36*
X158976142Y-82650174D02*
X158999803Y-82653684D01*
X159023007Y-82659496D01*
X159045529Y-82667554D01*
X159067153Y-82677782D01*
X159087670Y-82690079D01*
X159106883Y-82704329D01*
X159124607Y-82720393D01*
X159140671Y-82738117D01*
X159154921Y-82757330D01*
X159167218Y-82777847D01*
X159177446Y-82799471D01*
X159185504Y-82821993D01*
X159191316Y-82845197D01*
X159194826Y-82868858D01*
X159196000Y-82892750D01*
X159196000Y-83380250D01*
X159194826Y-83404142D01*
X159191316Y-83427803D01*
X159185504Y-83451007D01*
X159177446Y-83473529D01*
X159167218Y-83495153D01*
X159154921Y-83515670D01*
X159140671Y-83534883D01*
X159124607Y-83552607D01*
X159106883Y-83568671D01*
X159087670Y-83582921D01*
X159067153Y-83595218D01*
X159045529Y-83605446D01*
X159023007Y-83613504D01*
X158999803Y-83619316D01*
X158976142Y-83622826D01*
X158952250Y-83624000D01*
X158039750Y-83624000D01*
X158015858Y-83622826D01*
X157992197Y-83619316D01*
X157968993Y-83613504D01*
X157946471Y-83605446D01*
X157924847Y-83595218D01*
X157904330Y-83582921D01*
X157885117Y-83568671D01*
X157867393Y-83552607D01*
X157851329Y-83534883D01*
X157837079Y-83515670D01*
X157824782Y-83495153D01*
X157814554Y-83473529D01*
X157806496Y-83451007D01*
X157800684Y-83427803D01*
X157797174Y-83404142D01*
X157796000Y-83380250D01*
X157796000Y-82892750D01*
X157797174Y-82868858D01*
X157800684Y-82845197D01*
X157806496Y-82821993D01*
X157814554Y-82799471D01*
X157824782Y-82777847D01*
X157837079Y-82757330D01*
X157851329Y-82738117D01*
X157867393Y-82720393D01*
X157885117Y-82704329D01*
X157904330Y-82690079D01*
X157924847Y-82677782D01*
X157946471Y-82667554D01*
X157968993Y-82659496D01*
X157992197Y-82653684D01*
X158015858Y-82650174D01*
X158039750Y-82649000D01*
X158952250Y-82649000D01*
X158976142Y-82650174D01*
X158976142Y-82650174D01*
G37*
D12*
X158496000Y-83136500D03*
G04 #@! TD*
D11*
G04 #@! TO.C,C6*
G36*
X156182142Y-82650174D02*
X156205803Y-82653684D01*
X156229007Y-82659496D01*
X156251529Y-82667554D01*
X156273153Y-82677782D01*
X156293670Y-82690079D01*
X156312883Y-82704329D01*
X156330607Y-82720393D01*
X156346671Y-82738117D01*
X156360921Y-82757330D01*
X156373218Y-82777847D01*
X156383446Y-82799471D01*
X156391504Y-82821993D01*
X156397316Y-82845197D01*
X156400826Y-82868858D01*
X156402000Y-82892750D01*
X156402000Y-83380250D01*
X156400826Y-83404142D01*
X156397316Y-83427803D01*
X156391504Y-83451007D01*
X156383446Y-83473529D01*
X156373218Y-83495153D01*
X156360921Y-83515670D01*
X156346671Y-83534883D01*
X156330607Y-83552607D01*
X156312883Y-83568671D01*
X156293670Y-83582921D01*
X156273153Y-83595218D01*
X156251529Y-83605446D01*
X156229007Y-83613504D01*
X156205803Y-83619316D01*
X156182142Y-83622826D01*
X156158250Y-83624000D01*
X155245750Y-83624000D01*
X155221858Y-83622826D01*
X155198197Y-83619316D01*
X155174993Y-83613504D01*
X155152471Y-83605446D01*
X155130847Y-83595218D01*
X155110330Y-83582921D01*
X155091117Y-83568671D01*
X155073393Y-83552607D01*
X155057329Y-83534883D01*
X155043079Y-83515670D01*
X155030782Y-83495153D01*
X155020554Y-83473529D01*
X155012496Y-83451007D01*
X155006684Y-83427803D01*
X155003174Y-83404142D01*
X155002000Y-83380250D01*
X155002000Y-82892750D01*
X155003174Y-82868858D01*
X155006684Y-82845197D01*
X155012496Y-82821993D01*
X155020554Y-82799471D01*
X155030782Y-82777847D01*
X155043079Y-82757330D01*
X155057329Y-82738117D01*
X155073393Y-82720393D01*
X155091117Y-82704329D01*
X155110330Y-82690079D01*
X155130847Y-82677782D01*
X155152471Y-82667554D01*
X155174993Y-82659496D01*
X155198197Y-82653684D01*
X155221858Y-82650174D01*
X155245750Y-82649000D01*
X156158250Y-82649000D01*
X156182142Y-82650174D01*
X156182142Y-82650174D01*
G37*
D12*
X155702000Y-83136500D03*
D11*
G36*
X156182142Y-84525174D02*
X156205803Y-84528684D01*
X156229007Y-84534496D01*
X156251529Y-84542554D01*
X156273153Y-84552782D01*
X156293670Y-84565079D01*
X156312883Y-84579329D01*
X156330607Y-84595393D01*
X156346671Y-84613117D01*
X156360921Y-84632330D01*
X156373218Y-84652847D01*
X156383446Y-84674471D01*
X156391504Y-84696993D01*
X156397316Y-84720197D01*
X156400826Y-84743858D01*
X156402000Y-84767750D01*
X156402000Y-85255250D01*
X156400826Y-85279142D01*
X156397316Y-85302803D01*
X156391504Y-85326007D01*
X156383446Y-85348529D01*
X156373218Y-85370153D01*
X156360921Y-85390670D01*
X156346671Y-85409883D01*
X156330607Y-85427607D01*
X156312883Y-85443671D01*
X156293670Y-85457921D01*
X156273153Y-85470218D01*
X156251529Y-85480446D01*
X156229007Y-85488504D01*
X156205803Y-85494316D01*
X156182142Y-85497826D01*
X156158250Y-85499000D01*
X155245750Y-85499000D01*
X155221858Y-85497826D01*
X155198197Y-85494316D01*
X155174993Y-85488504D01*
X155152471Y-85480446D01*
X155130847Y-85470218D01*
X155110330Y-85457921D01*
X155091117Y-85443671D01*
X155073393Y-85427607D01*
X155057329Y-85409883D01*
X155043079Y-85390670D01*
X155030782Y-85370153D01*
X155020554Y-85348529D01*
X155012496Y-85326007D01*
X155006684Y-85302803D01*
X155003174Y-85279142D01*
X155002000Y-85255250D01*
X155002000Y-84767750D01*
X155003174Y-84743858D01*
X155006684Y-84720197D01*
X155012496Y-84696993D01*
X155020554Y-84674471D01*
X155030782Y-84652847D01*
X155043079Y-84632330D01*
X155057329Y-84613117D01*
X155073393Y-84595393D01*
X155091117Y-84579329D01*
X155110330Y-84565079D01*
X155130847Y-84552782D01*
X155152471Y-84542554D01*
X155174993Y-84534496D01*
X155198197Y-84528684D01*
X155221858Y-84525174D01*
X155245750Y-84524000D01*
X156158250Y-84524000D01*
X156182142Y-84525174D01*
X156182142Y-84525174D01*
G37*
D12*
X155702000Y-85011500D03*
G04 #@! TD*
D11*
G04 #@! TO.C,C7*
G36*
X146276142Y-84446674D02*
X146299803Y-84450184D01*
X146323007Y-84455996D01*
X146345529Y-84464054D01*
X146367153Y-84474282D01*
X146387670Y-84486579D01*
X146406883Y-84500829D01*
X146424607Y-84516893D01*
X146440671Y-84534617D01*
X146454921Y-84553830D01*
X146467218Y-84574347D01*
X146477446Y-84595971D01*
X146485504Y-84618493D01*
X146491316Y-84641697D01*
X146494826Y-84665358D01*
X146496000Y-84689250D01*
X146496000Y-85176750D01*
X146494826Y-85200642D01*
X146491316Y-85224303D01*
X146485504Y-85247507D01*
X146477446Y-85270029D01*
X146467218Y-85291653D01*
X146454921Y-85312170D01*
X146440671Y-85331383D01*
X146424607Y-85349107D01*
X146406883Y-85365171D01*
X146387670Y-85379421D01*
X146367153Y-85391718D01*
X146345529Y-85401946D01*
X146323007Y-85410004D01*
X146299803Y-85415816D01*
X146276142Y-85419326D01*
X146252250Y-85420500D01*
X145339750Y-85420500D01*
X145315858Y-85419326D01*
X145292197Y-85415816D01*
X145268993Y-85410004D01*
X145246471Y-85401946D01*
X145224847Y-85391718D01*
X145204330Y-85379421D01*
X145185117Y-85365171D01*
X145167393Y-85349107D01*
X145151329Y-85331383D01*
X145137079Y-85312170D01*
X145124782Y-85291653D01*
X145114554Y-85270029D01*
X145106496Y-85247507D01*
X145100684Y-85224303D01*
X145097174Y-85200642D01*
X145096000Y-85176750D01*
X145096000Y-84689250D01*
X145097174Y-84665358D01*
X145100684Y-84641697D01*
X145106496Y-84618493D01*
X145114554Y-84595971D01*
X145124782Y-84574347D01*
X145137079Y-84553830D01*
X145151329Y-84534617D01*
X145167393Y-84516893D01*
X145185117Y-84500829D01*
X145204330Y-84486579D01*
X145224847Y-84474282D01*
X145246471Y-84464054D01*
X145268993Y-84455996D01*
X145292197Y-84450184D01*
X145315858Y-84446674D01*
X145339750Y-84445500D01*
X146252250Y-84445500D01*
X146276142Y-84446674D01*
X146276142Y-84446674D01*
G37*
D12*
X145796000Y-84933000D03*
D11*
G36*
X146276142Y-82571674D02*
X146299803Y-82575184D01*
X146323007Y-82580996D01*
X146345529Y-82589054D01*
X146367153Y-82599282D01*
X146387670Y-82611579D01*
X146406883Y-82625829D01*
X146424607Y-82641893D01*
X146440671Y-82659617D01*
X146454921Y-82678830D01*
X146467218Y-82699347D01*
X146477446Y-82720971D01*
X146485504Y-82743493D01*
X146491316Y-82766697D01*
X146494826Y-82790358D01*
X146496000Y-82814250D01*
X146496000Y-83301750D01*
X146494826Y-83325642D01*
X146491316Y-83349303D01*
X146485504Y-83372507D01*
X146477446Y-83395029D01*
X146467218Y-83416653D01*
X146454921Y-83437170D01*
X146440671Y-83456383D01*
X146424607Y-83474107D01*
X146406883Y-83490171D01*
X146387670Y-83504421D01*
X146367153Y-83516718D01*
X146345529Y-83526946D01*
X146323007Y-83535004D01*
X146299803Y-83540816D01*
X146276142Y-83544326D01*
X146252250Y-83545500D01*
X145339750Y-83545500D01*
X145315858Y-83544326D01*
X145292197Y-83540816D01*
X145268993Y-83535004D01*
X145246471Y-83526946D01*
X145224847Y-83516718D01*
X145204330Y-83504421D01*
X145185117Y-83490171D01*
X145167393Y-83474107D01*
X145151329Y-83456383D01*
X145137079Y-83437170D01*
X145124782Y-83416653D01*
X145114554Y-83395029D01*
X145106496Y-83372507D01*
X145100684Y-83349303D01*
X145097174Y-83325642D01*
X145096000Y-83301750D01*
X145096000Y-82814250D01*
X145097174Y-82790358D01*
X145100684Y-82766697D01*
X145106496Y-82743493D01*
X145114554Y-82720971D01*
X145124782Y-82699347D01*
X145137079Y-82678830D01*
X145151329Y-82659617D01*
X145167393Y-82641893D01*
X145185117Y-82625829D01*
X145204330Y-82611579D01*
X145224847Y-82599282D01*
X145246471Y-82589054D01*
X145268993Y-82580996D01*
X145292197Y-82575184D01*
X145315858Y-82571674D01*
X145339750Y-82570500D01*
X146252250Y-82570500D01*
X146276142Y-82571674D01*
X146276142Y-82571674D01*
G37*
D12*
X145796000Y-83058000D03*
G04 #@! TD*
D11*
G04 #@! TO.C,D1*
G36*
X145819691Y-64308053D02*
X145840926Y-64311203D01*
X145861750Y-64316419D01*
X145881962Y-64323651D01*
X145901368Y-64332830D01*
X145919781Y-64343866D01*
X145937024Y-64356654D01*
X145952930Y-64371070D01*
X145967346Y-64386976D01*
X145980134Y-64404219D01*
X145991170Y-64422632D01*
X146000349Y-64442038D01*
X146007581Y-64462250D01*
X146012797Y-64483074D01*
X146015947Y-64504309D01*
X146017000Y-64525750D01*
X146017000Y-64963250D01*
X146015947Y-64984691D01*
X146012797Y-65005926D01*
X146007581Y-65026750D01*
X146000349Y-65046962D01*
X145991170Y-65066368D01*
X145980134Y-65084781D01*
X145967346Y-65102024D01*
X145952930Y-65117930D01*
X145937024Y-65132346D01*
X145919781Y-65145134D01*
X145901368Y-65156170D01*
X145881962Y-65165349D01*
X145861750Y-65172581D01*
X145840926Y-65177797D01*
X145819691Y-65180947D01*
X145798250Y-65182000D01*
X145285750Y-65182000D01*
X145264309Y-65180947D01*
X145243074Y-65177797D01*
X145222250Y-65172581D01*
X145202038Y-65165349D01*
X145182632Y-65156170D01*
X145164219Y-65145134D01*
X145146976Y-65132346D01*
X145131070Y-65117930D01*
X145116654Y-65102024D01*
X145103866Y-65084781D01*
X145092830Y-65066368D01*
X145083651Y-65046962D01*
X145076419Y-65026750D01*
X145071203Y-65005926D01*
X145068053Y-64984691D01*
X145067000Y-64963250D01*
X145067000Y-64525750D01*
X145068053Y-64504309D01*
X145071203Y-64483074D01*
X145076419Y-64462250D01*
X145083651Y-64442038D01*
X145092830Y-64422632D01*
X145103866Y-64404219D01*
X145116654Y-64386976D01*
X145131070Y-64371070D01*
X145146976Y-64356654D01*
X145164219Y-64343866D01*
X145182632Y-64332830D01*
X145202038Y-64323651D01*
X145222250Y-64316419D01*
X145243074Y-64311203D01*
X145264309Y-64308053D01*
X145285750Y-64307000D01*
X145798250Y-64307000D01*
X145819691Y-64308053D01*
X145819691Y-64308053D01*
G37*
D13*
X145542000Y-64744500D03*
D11*
G36*
X145819691Y-65883053D02*
X145840926Y-65886203D01*
X145861750Y-65891419D01*
X145881962Y-65898651D01*
X145901368Y-65907830D01*
X145919781Y-65918866D01*
X145937024Y-65931654D01*
X145952930Y-65946070D01*
X145967346Y-65961976D01*
X145980134Y-65979219D01*
X145991170Y-65997632D01*
X146000349Y-66017038D01*
X146007581Y-66037250D01*
X146012797Y-66058074D01*
X146015947Y-66079309D01*
X146017000Y-66100750D01*
X146017000Y-66538250D01*
X146015947Y-66559691D01*
X146012797Y-66580926D01*
X146007581Y-66601750D01*
X146000349Y-66621962D01*
X145991170Y-66641368D01*
X145980134Y-66659781D01*
X145967346Y-66677024D01*
X145952930Y-66692930D01*
X145937024Y-66707346D01*
X145919781Y-66720134D01*
X145901368Y-66731170D01*
X145881962Y-66740349D01*
X145861750Y-66747581D01*
X145840926Y-66752797D01*
X145819691Y-66755947D01*
X145798250Y-66757000D01*
X145285750Y-66757000D01*
X145264309Y-66755947D01*
X145243074Y-66752797D01*
X145222250Y-66747581D01*
X145202038Y-66740349D01*
X145182632Y-66731170D01*
X145164219Y-66720134D01*
X145146976Y-66707346D01*
X145131070Y-66692930D01*
X145116654Y-66677024D01*
X145103866Y-66659781D01*
X145092830Y-66641368D01*
X145083651Y-66621962D01*
X145076419Y-66601750D01*
X145071203Y-66580926D01*
X145068053Y-66559691D01*
X145067000Y-66538250D01*
X145067000Y-66100750D01*
X145068053Y-66079309D01*
X145071203Y-66058074D01*
X145076419Y-66037250D01*
X145083651Y-66017038D01*
X145092830Y-65997632D01*
X145103866Y-65979219D01*
X145116654Y-65961976D01*
X145131070Y-65946070D01*
X145146976Y-65931654D01*
X145164219Y-65918866D01*
X145182632Y-65907830D01*
X145202038Y-65898651D01*
X145222250Y-65891419D01*
X145243074Y-65886203D01*
X145264309Y-65883053D01*
X145285750Y-65882000D01*
X145798250Y-65882000D01*
X145819691Y-65883053D01*
X145819691Y-65883053D01*
G37*
D13*
X145542000Y-66319500D03*
G04 #@! TD*
D11*
G04 #@! TO.C,R1*
G36*
X145819691Y-61285553D02*
X145840926Y-61288703D01*
X145861750Y-61293919D01*
X145881962Y-61301151D01*
X145901368Y-61310330D01*
X145919781Y-61321366D01*
X145937024Y-61334154D01*
X145952930Y-61348570D01*
X145967346Y-61364476D01*
X145980134Y-61381719D01*
X145991170Y-61400132D01*
X146000349Y-61419538D01*
X146007581Y-61439750D01*
X146012797Y-61460574D01*
X146015947Y-61481809D01*
X146017000Y-61503250D01*
X146017000Y-61940750D01*
X146015947Y-61962191D01*
X146012797Y-61983426D01*
X146007581Y-62004250D01*
X146000349Y-62024462D01*
X145991170Y-62043868D01*
X145980134Y-62062281D01*
X145967346Y-62079524D01*
X145952930Y-62095430D01*
X145937024Y-62109846D01*
X145919781Y-62122634D01*
X145901368Y-62133670D01*
X145881962Y-62142849D01*
X145861750Y-62150081D01*
X145840926Y-62155297D01*
X145819691Y-62158447D01*
X145798250Y-62159500D01*
X145285750Y-62159500D01*
X145264309Y-62158447D01*
X145243074Y-62155297D01*
X145222250Y-62150081D01*
X145202038Y-62142849D01*
X145182632Y-62133670D01*
X145164219Y-62122634D01*
X145146976Y-62109846D01*
X145131070Y-62095430D01*
X145116654Y-62079524D01*
X145103866Y-62062281D01*
X145092830Y-62043868D01*
X145083651Y-62024462D01*
X145076419Y-62004250D01*
X145071203Y-61983426D01*
X145068053Y-61962191D01*
X145067000Y-61940750D01*
X145067000Y-61503250D01*
X145068053Y-61481809D01*
X145071203Y-61460574D01*
X145076419Y-61439750D01*
X145083651Y-61419538D01*
X145092830Y-61400132D01*
X145103866Y-61381719D01*
X145116654Y-61364476D01*
X145131070Y-61348570D01*
X145146976Y-61334154D01*
X145164219Y-61321366D01*
X145182632Y-61310330D01*
X145202038Y-61301151D01*
X145222250Y-61293919D01*
X145243074Y-61288703D01*
X145264309Y-61285553D01*
X145285750Y-61284500D01*
X145798250Y-61284500D01*
X145819691Y-61285553D01*
X145819691Y-61285553D01*
G37*
D13*
X145542000Y-61722000D03*
D11*
G36*
X145819691Y-62860553D02*
X145840926Y-62863703D01*
X145861750Y-62868919D01*
X145881962Y-62876151D01*
X145901368Y-62885330D01*
X145919781Y-62896366D01*
X145937024Y-62909154D01*
X145952930Y-62923570D01*
X145967346Y-62939476D01*
X145980134Y-62956719D01*
X145991170Y-62975132D01*
X146000349Y-62994538D01*
X146007581Y-63014750D01*
X146012797Y-63035574D01*
X146015947Y-63056809D01*
X146017000Y-63078250D01*
X146017000Y-63515750D01*
X146015947Y-63537191D01*
X146012797Y-63558426D01*
X146007581Y-63579250D01*
X146000349Y-63599462D01*
X145991170Y-63618868D01*
X145980134Y-63637281D01*
X145967346Y-63654524D01*
X145952930Y-63670430D01*
X145937024Y-63684846D01*
X145919781Y-63697634D01*
X145901368Y-63708670D01*
X145881962Y-63717849D01*
X145861750Y-63725081D01*
X145840926Y-63730297D01*
X145819691Y-63733447D01*
X145798250Y-63734500D01*
X145285750Y-63734500D01*
X145264309Y-63733447D01*
X145243074Y-63730297D01*
X145222250Y-63725081D01*
X145202038Y-63717849D01*
X145182632Y-63708670D01*
X145164219Y-63697634D01*
X145146976Y-63684846D01*
X145131070Y-63670430D01*
X145116654Y-63654524D01*
X145103866Y-63637281D01*
X145092830Y-63618868D01*
X145083651Y-63599462D01*
X145076419Y-63579250D01*
X145071203Y-63558426D01*
X145068053Y-63537191D01*
X145067000Y-63515750D01*
X145067000Y-63078250D01*
X145068053Y-63056809D01*
X145071203Y-63035574D01*
X145076419Y-63014750D01*
X145083651Y-62994538D01*
X145092830Y-62975132D01*
X145103866Y-62956719D01*
X145116654Y-62939476D01*
X145131070Y-62923570D01*
X145146976Y-62909154D01*
X145164219Y-62896366D01*
X145182632Y-62885330D01*
X145202038Y-62876151D01*
X145222250Y-62868919D01*
X145243074Y-62863703D01*
X145264309Y-62860553D01*
X145285750Y-62859500D01*
X145798250Y-62859500D01*
X145819691Y-62860553D01*
X145819691Y-62860553D01*
G37*
D13*
X145542000Y-63297000D03*
G04 #@! TD*
D11*
G04 #@! TO.C,R2*
G36*
X165250691Y-80742053D02*
X165271926Y-80745203D01*
X165292750Y-80750419D01*
X165312962Y-80757651D01*
X165332368Y-80766830D01*
X165350781Y-80777866D01*
X165368024Y-80790654D01*
X165383930Y-80805070D01*
X165398346Y-80820976D01*
X165411134Y-80838219D01*
X165422170Y-80856632D01*
X165431349Y-80876038D01*
X165438581Y-80896250D01*
X165443797Y-80917074D01*
X165446947Y-80938309D01*
X165448000Y-80959750D01*
X165448000Y-81397250D01*
X165446947Y-81418691D01*
X165443797Y-81439926D01*
X165438581Y-81460750D01*
X165431349Y-81480962D01*
X165422170Y-81500368D01*
X165411134Y-81518781D01*
X165398346Y-81536024D01*
X165383930Y-81551930D01*
X165368024Y-81566346D01*
X165350781Y-81579134D01*
X165332368Y-81590170D01*
X165312962Y-81599349D01*
X165292750Y-81606581D01*
X165271926Y-81611797D01*
X165250691Y-81614947D01*
X165229250Y-81616000D01*
X164716750Y-81616000D01*
X164695309Y-81614947D01*
X164674074Y-81611797D01*
X164653250Y-81606581D01*
X164633038Y-81599349D01*
X164613632Y-81590170D01*
X164595219Y-81579134D01*
X164577976Y-81566346D01*
X164562070Y-81551930D01*
X164547654Y-81536024D01*
X164534866Y-81518781D01*
X164523830Y-81500368D01*
X164514651Y-81480962D01*
X164507419Y-81460750D01*
X164502203Y-81439926D01*
X164499053Y-81418691D01*
X164498000Y-81397250D01*
X164498000Y-80959750D01*
X164499053Y-80938309D01*
X164502203Y-80917074D01*
X164507419Y-80896250D01*
X164514651Y-80876038D01*
X164523830Y-80856632D01*
X164534866Y-80838219D01*
X164547654Y-80820976D01*
X164562070Y-80805070D01*
X164577976Y-80790654D01*
X164595219Y-80777866D01*
X164613632Y-80766830D01*
X164633038Y-80757651D01*
X164653250Y-80750419D01*
X164674074Y-80745203D01*
X164695309Y-80742053D01*
X164716750Y-80741000D01*
X165229250Y-80741000D01*
X165250691Y-80742053D01*
X165250691Y-80742053D01*
G37*
D13*
X164973000Y-81178500D03*
D11*
G36*
X165250691Y-79167053D02*
X165271926Y-79170203D01*
X165292750Y-79175419D01*
X165312962Y-79182651D01*
X165332368Y-79191830D01*
X165350781Y-79202866D01*
X165368024Y-79215654D01*
X165383930Y-79230070D01*
X165398346Y-79245976D01*
X165411134Y-79263219D01*
X165422170Y-79281632D01*
X165431349Y-79301038D01*
X165438581Y-79321250D01*
X165443797Y-79342074D01*
X165446947Y-79363309D01*
X165448000Y-79384750D01*
X165448000Y-79822250D01*
X165446947Y-79843691D01*
X165443797Y-79864926D01*
X165438581Y-79885750D01*
X165431349Y-79905962D01*
X165422170Y-79925368D01*
X165411134Y-79943781D01*
X165398346Y-79961024D01*
X165383930Y-79976930D01*
X165368024Y-79991346D01*
X165350781Y-80004134D01*
X165332368Y-80015170D01*
X165312962Y-80024349D01*
X165292750Y-80031581D01*
X165271926Y-80036797D01*
X165250691Y-80039947D01*
X165229250Y-80041000D01*
X164716750Y-80041000D01*
X164695309Y-80039947D01*
X164674074Y-80036797D01*
X164653250Y-80031581D01*
X164633038Y-80024349D01*
X164613632Y-80015170D01*
X164595219Y-80004134D01*
X164577976Y-79991346D01*
X164562070Y-79976930D01*
X164547654Y-79961024D01*
X164534866Y-79943781D01*
X164523830Y-79925368D01*
X164514651Y-79905962D01*
X164507419Y-79885750D01*
X164502203Y-79864926D01*
X164499053Y-79843691D01*
X164498000Y-79822250D01*
X164498000Y-79384750D01*
X164499053Y-79363309D01*
X164502203Y-79342074D01*
X164507419Y-79321250D01*
X164514651Y-79301038D01*
X164523830Y-79281632D01*
X164534866Y-79263219D01*
X164547654Y-79245976D01*
X164562070Y-79230070D01*
X164577976Y-79215654D01*
X164595219Y-79202866D01*
X164613632Y-79191830D01*
X164633038Y-79182651D01*
X164653250Y-79175419D01*
X164674074Y-79170203D01*
X164695309Y-79167053D01*
X164716750Y-79166000D01*
X165229250Y-79166000D01*
X165250691Y-79167053D01*
X165250691Y-79167053D01*
G37*
D13*
X164973000Y-79603500D03*
G04 #@! TD*
D11*
G04 #@! TO.C,R3*
G36*
X163726691Y-79167053D02*
X163747926Y-79170203D01*
X163768750Y-79175419D01*
X163788962Y-79182651D01*
X163808368Y-79191830D01*
X163826781Y-79202866D01*
X163844024Y-79215654D01*
X163859930Y-79230070D01*
X163874346Y-79245976D01*
X163887134Y-79263219D01*
X163898170Y-79281632D01*
X163907349Y-79301038D01*
X163914581Y-79321250D01*
X163919797Y-79342074D01*
X163922947Y-79363309D01*
X163924000Y-79384750D01*
X163924000Y-79822250D01*
X163922947Y-79843691D01*
X163919797Y-79864926D01*
X163914581Y-79885750D01*
X163907349Y-79905962D01*
X163898170Y-79925368D01*
X163887134Y-79943781D01*
X163874346Y-79961024D01*
X163859930Y-79976930D01*
X163844024Y-79991346D01*
X163826781Y-80004134D01*
X163808368Y-80015170D01*
X163788962Y-80024349D01*
X163768750Y-80031581D01*
X163747926Y-80036797D01*
X163726691Y-80039947D01*
X163705250Y-80041000D01*
X163192750Y-80041000D01*
X163171309Y-80039947D01*
X163150074Y-80036797D01*
X163129250Y-80031581D01*
X163109038Y-80024349D01*
X163089632Y-80015170D01*
X163071219Y-80004134D01*
X163053976Y-79991346D01*
X163038070Y-79976930D01*
X163023654Y-79961024D01*
X163010866Y-79943781D01*
X162999830Y-79925368D01*
X162990651Y-79905962D01*
X162983419Y-79885750D01*
X162978203Y-79864926D01*
X162975053Y-79843691D01*
X162974000Y-79822250D01*
X162974000Y-79384750D01*
X162975053Y-79363309D01*
X162978203Y-79342074D01*
X162983419Y-79321250D01*
X162990651Y-79301038D01*
X162999830Y-79281632D01*
X163010866Y-79263219D01*
X163023654Y-79245976D01*
X163038070Y-79230070D01*
X163053976Y-79215654D01*
X163071219Y-79202866D01*
X163089632Y-79191830D01*
X163109038Y-79182651D01*
X163129250Y-79175419D01*
X163150074Y-79170203D01*
X163171309Y-79167053D01*
X163192750Y-79166000D01*
X163705250Y-79166000D01*
X163726691Y-79167053D01*
X163726691Y-79167053D01*
G37*
D13*
X163449000Y-79603500D03*
D11*
G36*
X163726691Y-80742053D02*
X163747926Y-80745203D01*
X163768750Y-80750419D01*
X163788962Y-80757651D01*
X163808368Y-80766830D01*
X163826781Y-80777866D01*
X163844024Y-80790654D01*
X163859930Y-80805070D01*
X163874346Y-80820976D01*
X163887134Y-80838219D01*
X163898170Y-80856632D01*
X163907349Y-80876038D01*
X163914581Y-80896250D01*
X163919797Y-80917074D01*
X163922947Y-80938309D01*
X163924000Y-80959750D01*
X163924000Y-81397250D01*
X163922947Y-81418691D01*
X163919797Y-81439926D01*
X163914581Y-81460750D01*
X163907349Y-81480962D01*
X163898170Y-81500368D01*
X163887134Y-81518781D01*
X163874346Y-81536024D01*
X163859930Y-81551930D01*
X163844024Y-81566346D01*
X163826781Y-81579134D01*
X163808368Y-81590170D01*
X163788962Y-81599349D01*
X163768750Y-81606581D01*
X163747926Y-81611797D01*
X163726691Y-81614947D01*
X163705250Y-81616000D01*
X163192750Y-81616000D01*
X163171309Y-81614947D01*
X163150074Y-81611797D01*
X163129250Y-81606581D01*
X163109038Y-81599349D01*
X163089632Y-81590170D01*
X163071219Y-81579134D01*
X163053976Y-81566346D01*
X163038070Y-81551930D01*
X163023654Y-81536024D01*
X163010866Y-81518781D01*
X162999830Y-81500368D01*
X162990651Y-81480962D01*
X162983419Y-81460750D01*
X162978203Y-81439926D01*
X162975053Y-81418691D01*
X162974000Y-81397250D01*
X162974000Y-80959750D01*
X162975053Y-80938309D01*
X162978203Y-80917074D01*
X162983419Y-80896250D01*
X162990651Y-80876038D01*
X162999830Y-80856632D01*
X163010866Y-80838219D01*
X163023654Y-80820976D01*
X163038070Y-80805070D01*
X163053976Y-80790654D01*
X163071219Y-80777866D01*
X163089632Y-80766830D01*
X163109038Y-80757651D01*
X163129250Y-80750419D01*
X163150074Y-80745203D01*
X163171309Y-80742053D01*
X163192750Y-80741000D01*
X163705250Y-80741000D01*
X163726691Y-80742053D01*
X163726691Y-80742053D01*
G37*
D13*
X163449000Y-81178500D03*
G04 #@! TD*
D11*
G04 #@! TO.C,R4*
G36*
X151407691Y-80589553D02*
X151428926Y-80592703D01*
X151449750Y-80597919D01*
X151469962Y-80605151D01*
X151489368Y-80614330D01*
X151507781Y-80625366D01*
X151525024Y-80638154D01*
X151540930Y-80652570D01*
X151555346Y-80668476D01*
X151568134Y-80685719D01*
X151579170Y-80704132D01*
X151588349Y-80723538D01*
X151595581Y-80743750D01*
X151600797Y-80764574D01*
X151603947Y-80785809D01*
X151605000Y-80807250D01*
X151605000Y-81244750D01*
X151603947Y-81266191D01*
X151600797Y-81287426D01*
X151595581Y-81308250D01*
X151588349Y-81328462D01*
X151579170Y-81347868D01*
X151568134Y-81366281D01*
X151555346Y-81383524D01*
X151540930Y-81399430D01*
X151525024Y-81413846D01*
X151507781Y-81426634D01*
X151489368Y-81437670D01*
X151469962Y-81446849D01*
X151449750Y-81454081D01*
X151428926Y-81459297D01*
X151407691Y-81462447D01*
X151386250Y-81463500D01*
X150873750Y-81463500D01*
X150852309Y-81462447D01*
X150831074Y-81459297D01*
X150810250Y-81454081D01*
X150790038Y-81446849D01*
X150770632Y-81437670D01*
X150752219Y-81426634D01*
X150734976Y-81413846D01*
X150719070Y-81399430D01*
X150704654Y-81383524D01*
X150691866Y-81366281D01*
X150680830Y-81347868D01*
X150671651Y-81328462D01*
X150664419Y-81308250D01*
X150659203Y-81287426D01*
X150656053Y-81266191D01*
X150655000Y-81244750D01*
X150655000Y-80807250D01*
X150656053Y-80785809D01*
X150659203Y-80764574D01*
X150664419Y-80743750D01*
X150671651Y-80723538D01*
X150680830Y-80704132D01*
X150691866Y-80685719D01*
X150704654Y-80668476D01*
X150719070Y-80652570D01*
X150734976Y-80638154D01*
X150752219Y-80625366D01*
X150770632Y-80614330D01*
X150790038Y-80605151D01*
X150810250Y-80597919D01*
X150831074Y-80592703D01*
X150852309Y-80589553D01*
X150873750Y-80588500D01*
X151386250Y-80588500D01*
X151407691Y-80589553D01*
X151407691Y-80589553D01*
G37*
D13*
X151130000Y-81026000D03*
D11*
G36*
X151407691Y-79014553D02*
X151428926Y-79017703D01*
X151449750Y-79022919D01*
X151469962Y-79030151D01*
X151489368Y-79039330D01*
X151507781Y-79050366D01*
X151525024Y-79063154D01*
X151540930Y-79077570D01*
X151555346Y-79093476D01*
X151568134Y-79110719D01*
X151579170Y-79129132D01*
X151588349Y-79148538D01*
X151595581Y-79168750D01*
X151600797Y-79189574D01*
X151603947Y-79210809D01*
X151605000Y-79232250D01*
X151605000Y-79669750D01*
X151603947Y-79691191D01*
X151600797Y-79712426D01*
X151595581Y-79733250D01*
X151588349Y-79753462D01*
X151579170Y-79772868D01*
X151568134Y-79791281D01*
X151555346Y-79808524D01*
X151540930Y-79824430D01*
X151525024Y-79838846D01*
X151507781Y-79851634D01*
X151489368Y-79862670D01*
X151469962Y-79871849D01*
X151449750Y-79879081D01*
X151428926Y-79884297D01*
X151407691Y-79887447D01*
X151386250Y-79888500D01*
X150873750Y-79888500D01*
X150852309Y-79887447D01*
X150831074Y-79884297D01*
X150810250Y-79879081D01*
X150790038Y-79871849D01*
X150770632Y-79862670D01*
X150752219Y-79851634D01*
X150734976Y-79838846D01*
X150719070Y-79824430D01*
X150704654Y-79808524D01*
X150691866Y-79791281D01*
X150680830Y-79772868D01*
X150671651Y-79753462D01*
X150664419Y-79733250D01*
X150659203Y-79712426D01*
X150656053Y-79691191D01*
X150655000Y-79669750D01*
X150655000Y-79232250D01*
X150656053Y-79210809D01*
X150659203Y-79189574D01*
X150664419Y-79168750D01*
X150671651Y-79148538D01*
X150680830Y-79129132D01*
X150691866Y-79110719D01*
X150704654Y-79093476D01*
X150719070Y-79077570D01*
X150734976Y-79063154D01*
X150752219Y-79050366D01*
X150770632Y-79039330D01*
X150790038Y-79030151D01*
X150810250Y-79022919D01*
X150831074Y-79017703D01*
X150852309Y-79014553D01*
X150873750Y-79013500D01*
X151386250Y-79013500D01*
X151407691Y-79014553D01*
X151407691Y-79014553D01*
G37*
D13*
X151130000Y-79451000D03*
G04 #@! TD*
D11*
G04 #@! TO.C,R5*
G36*
X162202691Y-79167053D02*
X162223926Y-79170203D01*
X162244750Y-79175419D01*
X162264962Y-79182651D01*
X162284368Y-79191830D01*
X162302781Y-79202866D01*
X162320024Y-79215654D01*
X162335930Y-79230070D01*
X162350346Y-79245976D01*
X162363134Y-79263219D01*
X162374170Y-79281632D01*
X162383349Y-79301038D01*
X162390581Y-79321250D01*
X162395797Y-79342074D01*
X162398947Y-79363309D01*
X162400000Y-79384750D01*
X162400000Y-79822250D01*
X162398947Y-79843691D01*
X162395797Y-79864926D01*
X162390581Y-79885750D01*
X162383349Y-79905962D01*
X162374170Y-79925368D01*
X162363134Y-79943781D01*
X162350346Y-79961024D01*
X162335930Y-79976930D01*
X162320024Y-79991346D01*
X162302781Y-80004134D01*
X162284368Y-80015170D01*
X162264962Y-80024349D01*
X162244750Y-80031581D01*
X162223926Y-80036797D01*
X162202691Y-80039947D01*
X162181250Y-80041000D01*
X161668750Y-80041000D01*
X161647309Y-80039947D01*
X161626074Y-80036797D01*
X161605250Y-80031581D01*
X161585038Y-80024349D01*
X161565632Y-80015170D01*
X161547219Y-80004134D01*
X161529976Y-79991346D01*
X161514070Y-79976930D01*
X161499654Y-79961024D01*
X161486866Y-79943781D01*
X161475830Y-79925368D01*
X161466651Y-79905962D01*
X161459419Y-79885750D01*
X161454203Y-79864926D01*
X161451053Y-79843691D01*
X161450000Y-79822250D01*
X161450000Y-79384750D01*
X161451053Y-79363309D01*
X161454203Y-79342074D01*
X161459419Y-79321250D01*
X161466651Y-79301038D01*
X161475830Y-79281632D01*
X161486866Y-79263219D01*
X161499654Y-79245976D01*
X161514070Y-79230070D01*
X161529976Y-79215654D01*
X161547219Y-79202866D01*
X161565632Y-79191830D01*
X161585038Y-79182651D01*
X161605250Y-79175419D01*
X161626074Y-79170203D01*
X161647309Y-79167053D01*
X161668750Y-79166000D01*
X162181250Y-79166000D01*
X162202691Y-79167053D01*
X162202691Y-79167053D01*
G37*
D13*
X161925000Y-79603500D03*
D11*
G36*
X162202691Y-80742053D02*
X162223926Y-80745203D01*
X162244750Y-80750419D01*
X162264962Y-80757651D01*
X162284368Y-80766830D01*
X162302781Y-80777866D01*
X162320024Y-80790654D01*
X162335930Y-80805070D01*
X162350346Y-80820976D01*
X162363134Y-80838219D01*
X162374170Y-80856632D01*
X162383349Y-80876038D01*
X162390581Y-80896250D01*
X162395797Y-80917074D01*
X162398947Y-80938309D01*
X162400000Y-80959750D01*
X162400000Y-81397250D01*
X162398947Y-81418691D01*
X162395797Y-81439926D01*
X162390581Y-81460750D01*
X162383349Y-81480962D01*
X162374170Y-81500368D01*
X162363134Y-81518781D01*
X162350346Y-81536024D01*
X162335930Y-81551930D01*
X162320024Y-81566346D01*
X162302781Y-81579134D01*
X162284368Y-81590170D01*
X162264962Y-81599349D01*
X162244750Y-81606581D01*
X162223926Y-81611797D01*
X162202691Y-81614947D01*
X162181250Y-81616000D01*
X161668750Y-81616000D01*
X161647309Y-81614947D01*
X161626074Y-81611797D01*
X161605250Y-81606581D01*
X161585038Y-81599349D01*
X161565632Y-81590170D01*
X161547219Y-81579134D01*
X161529976Y-81566346D01*
X161514070Y-81551930D01*
X161499654Y-81536024D01*
X161486866Y-81518781D01*
X161475830Y-81500368D01*
X161466651Y-81480962D01*
X161459419Y-81460750D01*
X161454203Y-81439926D01*
X161451053Y-81418691D01*
X161450000Y-81397250D01*
X161450000Y-80959750D01*
X161451053Y-80938309D01*
X161454203Y-80917074D01*
X161459419Y-80896250D01*
X161466651Y-80876038D01*
X161475830Y-80856632D01*
X161486866Y-80838219D01*
X161499654Y-80820976D01*
X161514070Y-80805070D01*
X161529976Y-80790654D01*
X161547219Y-80777866D01*
X161565632Y-80766830D01*
X161585038Y-80757651D01*
X161605250Y-80750419D01*
X161626074Y-80745203D01*
X161647309Y-80742053D01*
X161668750Y-80741000D01*
X162181250Y-80741000D01*
X162202691Y-80742053D01*
X162202691Y-80742053D01*
G37*
D13*
X161925000Y-81178500D03*
G04 #@! TD*
D11*
G04 #@! TO.C,R6*
G36*
X166774691Y-80716553D02*
X166795926Y-80719703D01*
X166816750Y-80724919D01*
X166836962Y-80732151D01*
X166856368Y-80741330D01*
X166874781Y-80752366D01*
X166892024Y-80765154D01*
X166907930Y-80779570D01*
X166922346Y-80795476D01*
X166935134Y-80812719D01*
X166946170Y-80831132D01*
X166955349Y-80850538D01*
X166962581Y-80870750D01*
X166967797Y-80891574D01*
X166970947Y-80912809D01*
X166972000Y-80934250D01*
X166972000Y-81371750D01*
X166970947Y-81393191D01*
X166967797Y-81414426D01*
X166962581Y-81435250D01*
X166955349Y-81455462D01*
X166946170Y-81474868D01*
X166935134Y-81493281D01*
X166922346Y-81510524D01*
X166907930Y-81526430D01*
X166892024Y-81540846D01*
X166874781Y-81553634D01*
X166856368Y-81564670D01*
X166836962Y-81573849D01*
X166816750Y-81581081D01*
X166795926Y-81586297D01*
X166774691Y-81589447D01*
X166753250Y-81590500D01*
X166240750Y-81590500D01*
X166219309Y-81589447D01*
X166198074Y-81586297D01*
X166177250Y-81581081D01*
X166157038Y-81573849D01*
X166137632Y-81564670D01*
X166119219Y-81553634D01*
X166101976Y-81540846D01*
X166086070Y-81526430D01*
X166071654Y-81510524D01*
X166058866Y-81493281D01*
X166047830Y-81474868D01*
X166038651Y-81455462D01*
X166031419Y-81435250D01*
X166026203Y-81414426D01*
X166023053Y-81393191D01*
X166022000Y-81371750D01*
X166022000Y-80934250D01*
X166023053Y-80912809D01*
X166026203Y-80891574D01*
X166031419Y-80870750D01*
X166038651Y-80850538D01*
X166047830Y-80831132D01*
X166058866Y-80812719D01*
X166071654Y-80795476D01*
X166086070Y-80779570D01*
X166101976Y-80765154D01*
X166119219Y-80752366D01*
X166137632Y-80741330D01*
X166157038Y-80732151D01*
X166177250Y-80724919D01*
X166198074Y-80719703D01*
X166219309Y-80716553D01*
X166240750Y-80715500D01*
X166753250Y-80715500D01*
X166774691Y-80716553D01*
X166774691Y-80716553D01*
G37*
D13*
X166497000Y-81153000D03*
D11*
G36*
X166774691Y-79141553D02*
X166795926Y-79144703D01*
X166816750Y-79149919D01*
X166836962Y-79157151D01*
X166856368Y-79166330D01*
X166874781Y-79177366D01*
X166892024Y-79190154D01*
X166907930Y-79204570D01*
X166922346Y-79220476D01*
X166935134Y-79237719D01*
X166946170Y-79256132D01*
X166955349Y-79275538D01*
X166962581Y-79295750D01*
X166967797Y-79316574D01*
X166970947Y-79337809D01*
X166972000Y-79359250D01*
X166972000Y-79796750D01*
X166970947Y-79818191D01*
X166967797Y-79839426D01*
X166962581Y-79860250D01*
X166955349Y-79880462D01*
X166946170Y-79899868D01*
X166935134Y-79918281D01*
X166922346Y-79935524D01*
X166907930Y-79951430D01*
X166892024Y-79965846D01*
X166874781Y-79978634D01*
X166856368Y-79989670D01*
X166836962Y-79998849D01*
X166816750Y-80006081D01*
X166795926Y-80011297D01*
X166774691Y-80014447D01*
X166753250Y-80015500D01*
X166240750Y-80015500D01*
X166219309Y-80014447D01*
X166198074Y-80011297D01*
X166177250Y-80006081D01*
X166157038Y-79998849D01*
X166137632Y-79989670D01*
X166119219Y-79978634D01*
X166101976Y-79965846D01*
X166086070Y-79951430D01*
X166071654Y-79935524D01*
X166058866Y-79918281D01*
X166047830Y-79899868D01*
X166038651Y-79880462D01*
X166031419Y-79860250D01*
X166026203Y-79839426D01*
X166023053Y-79818191D01*
X166022000Y-79796750D01*
X166022000Y-79359250D01*
X166023053Y-79337809D01*
X166026203Y-79316574D01*
X166031419Y-79295750D01*
X166038651Y-79275538D01*
X166047830Y-79256132D01*
X166058866Y-79237719D01*
X166071654Y-79220476D01*
X166086070Y-79204570D01*
X166101976Y-79190154D01*
X166119219Y-79177366D01*
X166137632Y-79166330D01*
X166157038Y-79157151D01*
X166177250Y-79149919D01*
X166198074Y-79144703D01*
X166219309Y-79141553D01*
X166240750Y-79140500D01*
X166753250Y-79140500D01*
X166774691Y-79141553D01*
X166774691Y-79141553D01*
G37*
D13*
X166497000Y-79578000D03*
G04 #@! TD*
D11*
G04 #@! TO.C,R7*
G36*
X149883691Y-79040053D02*
X149904926Y-79043203D01*
X149925750Y-79048419D01*
X149945962Y-79055651D01*
X149965368Y-79064830D01*
X149983781Y-79075866D01*
X150001024Y-79088654D01*
X150016930Y-79103070D01*
X150031346Y-79118976D01*
X150044134Y-79136219D01*
X150055170Y-79154632D01*
X150064349Y-79174038D01*
X150071581Y-79194250D01*
X150076797Y-79215074D01*
X150079947Y-79236309D01*
X150081000Y-79257750D01*
X150081000Y-79695250D01*
X150079947Y-79716691D01*
X150076797Y-79737926D01*
X150071581Y-79758750D01*
X150064349Y-79778962D01*
X150055170Y-79798368D01*
X150044134Y-79816781D01*
X150031346Y-79834024D01*
X150016930Y-79849930D01*
X150001024Y-79864346D01*
X149983781Y-79877134D01*
X149965368Y-79888170D01*
X149945962Y-79897349D01*
X149925750Y-79904581D01*
X149904926Y-79909797D01*
X149883691Y-79912947D01*
X149862250Y-79914000D01*
X149349750Y-79914000D01*
X149328309Y-79912947D01*
X149307074Y-79909797D01*
X149286250Y-79904581D01*
X149266038Y-79897349D01*
X149246632Y-79888170D01*
X149228219Y-79877134D01*
X149210976Y-79864346D01*
X149195070Y-79849930D01*
X149180654Y-79834024D01*
X149167866Y-79816781D01*
X149156830Y-79798368D01*
X149147651Y-79778962D01*
X149140419Y-79758750D01*
X149135203Y-79737926D01*
X149132053Y-79716691D01*
X149131000Y-79695250D01*
X149131000Y-79257750D01*
X149132053Y-79236309D01*
X149135203Y-79215074D01*
X149140419Y-79194250D01*
X149147651Y-79174038D01*
X149156830Y-79154632D01*
X149167866Y-79136219D01*
X149180654Y-79118976D01*
X149195070Y-79103070D01*
X149210976Y-79088654D01*
X149228219Y-79075866D01*
X149246632Y-79064830D01*
X149266038Y-79055651D01*
X149286250Y-79048419D01*
X149307074Y-79043203D01*
X149328309Y-79040053D01*
X149349750Y-79039000D01*
X149862250Y-79039000D01*
X149883691Y-79040053D01*
X149883691Y-79040053D01*
G37*
D13*
X149606000Y-79476500D03*
D11*
G36*
X149883691Y-80615053D02*
X149904926Y-80618203D01*
X149925750Y-80623419D01*
X149945962Y-80630651D01*
X149965368Y-80639830D01*
X149983781Y-80650866D01*
X150001024Y-80663654D01*
X150016930Y-80678070D01*
X150031346Y-80693976D01*
X150044134Y-80711219D01*
X150055170Y-80729632D01*
X150064349Y-80749038D01*
X150071581Y-80769250D01*
X150076797Y-80790074D01*
X150079947Y-80811309D01*
X150081000Y-80832750D01*
X150081000Y-81270250D01*
X150079947Y-81291691D01*
X150076797Y-81312926D01*
X150071581Y-81333750D01*
X150064349Y-81353962D01*
X150055170Y-81373368D01*
X150044134Y-81391781D01*
X150031346Y-81409024D01*
X150016930Y-81424930D01*
X150001024Y-81439346D01*
X149983781Y-81452134D01*
X149965368Y-81463170D01*
X149945962Y-81472349D01*
X149925750Y-81479581D01*
X149904926Y-81484797D01*
X149883691Y-81487947D01*
X149862250Y-81489000D01*
X149349750Y-81489000D01*
X149328309Y-81487947D01*
X149307074Y-81484797D01*
X149286250Y-81479581D01*
X149266038Y-81472349D01*
X149246632Y-81463170D01*
X149228219Y-81452134D01*
X149210976Y-81439346D01*
X149195070Y-81424930D01*
X149180654Y-81409024D01*
X149167866Y-81391781D01*
X149156830Y-81373368D01*
X149147651Y-81353962D01*
X149140419Y-81333750D01*
X149135203Y-81312926D01*
X149132053Y-81291691D01*
X149131000Y-81270250D01*
X149131000Y-80832750D01*
X149132053Y-80811309D01*
X149135203Y-80790074D01*
X149140419Y-80769250D01*
X149147651Y-80749038D01*
X149156830Y-80729632D01*
X149167866Y-80711219D01*
X149180654Y-80693976D01*
X149195070Y-80678070D01*
X149210976Y-80663654D01*
X149228219Y-80650866D01*
X149246632Y-80639830D01*
X149266038Y-80630651D01*
X149286250Y-80623419D01*
X149307074Y-80618203D01*
X149328309Y-80615053D01*
X149349750Y-80614000D01*
X149862250Y-80614000D01*
X149883691Y-80615053D01*
X149883691Y-80615053D01*
G37*
D13*
X149606000Y-81051500D03*
G04 #@! TD*
D14*
G04 #@! TO.C,U2*
X163830000Y-83464000D03*
D15*
X163830000Y-89764000D03*
X166130000Y-89764000D03*
X161530000Y-89764000D03*
G04 #@! TD*
G04 #@! TO.C,U3*
X148322000Y-89764000D03*
X152922000Y-89764000D03*
X150622000Y-89764000D03*
D14*
X150622000Y-83464000D03*
G04 #@! TD*
M02*
