M48
;DRILL file {KiCad 5.0.0-fee4fd1~66~ubuntu16.04.1} date Sun Dec  9 19:45:03 2018
;FORMAT={-:-/ absolute / inch / decimal}
FMAT,2
INCH,TZ
T1C0.0157
T2C0.0197
T3C0.0276
T4C0.0394
%
G90
G05
M72
T1
X5.78Y-2.425
X5.84Y-3.385
X5.885Y-3.365
T2
X5.84Y-3.505
X5.84Y-3.555
X5.89Y-3.215
X5.9005Y-3.1105
X5.93Y-2.61
X5.93Y-3.4553
X5.9479Y-3.21
X5.965Y-2.945
X6.0656Y-2.9776
X6.12Y-3.345
X6.195Y-3.015
X6.325Y-3.5
X6.325Y-3.55
X6.3494Y-3.01
X6.38Y-3.5
X6.38Y-3.55
X6.45Y-3.05
X6.5Y-3.05
X6.58Y-3.225
X6.58Y-3.275
X6.58Y-3.325
T3
X5.79Y-3.345
X5.825Y-3.095
T4
X6.14Y-3.53
X6.24Y-3.53
X6.16Y-3.16
X6.26Y-3.16
X5.74Y-2.69
X5.74Y-2.79
X5.74Y-2.89
X6.63Y-2.5
X6.63Y-2.6
X6.63Y-2.7
X6.63Y-2.8
X6.63Y-2.9
X6.63Y-3.
T0
M30
