G04 #@! TF.GenerationSoftware,KiCad,Pcbnew,5.0.0-fee4fd1~66~ubuntu16.04.1*
G04 #@! TF.CreationDate,2018-12-09T19:45:05+07:00*
G04 #@! TF.ProjectId,master_circuit,6D61737465725F636972637569742E6B,rev?*
G04 #@! TF.SameCoordinates,Original*
G04 #@! TF.FileFunction,Copper,L2,Bot,Signal*
G04 #@! TF.FilePolarity,Positive*
%FSLAX46Y46*%
G04 Gerber Fmt 4.6, Leading zero omitted, Abs format (unit mm)*
G04 Created by KiCad (PCBNEW 5.0.0-fee4fd1~66~ubuntu16.04.1) date Sun Dec  9 19:45:05 2018*
%MOMM*%
%LPD*%
G01*
G04 APERTURE LIST*
G04 #@! TA.AperFunction,ComponentPad*
%ADD10R,1.700000X1.700000*%
G04 #@! TD*
G04 #@! TA.AperFunction,ComponentPad*
%ADD11O,1.700000X1.700000*%
G04 #@! TD*
G04 #@! TA.AperFunction,ViaPad*
%ADD12C,1.000000*%
G04 #@! TD*
G04 #@! TA.AperFunction,ViaPad*
%ADD13C,0.800000*%
G04 #@! TD*
G04 #@! TA.AperFunction,ViaPad*
%ADD14C,1.200000*%
G04 #@! TD*
G04 #@! TA.AperFunction,Conductor*
%ADD15C,0.300000*%
G04 #@! TD*
G04 #@! TA.AperFunction,Conductor*
%ADD16C,0.500000*%
G04 #@! TD*
G04 #@! TA.AperFunction,Conductor*
%ADD17C,1.000000*%
G04 #@! TD*
G04 #@! TA.AperFunction,Conductor*
%ADD18C,0.254000*%
G04 #@! TD*
G04 APERTURE END LIST*
D10*
G04 #@! TO.P,J1,1*
G04 #@! TO.N,+3V3*
X168402000Y-63500000D03*
D11*
G04 #@! TO.P,J1,2*
G04 #@! TO.N,GND*
X168402000Y-66040000D03*
G04 #@! TO.P,J1,3*
G04 #@! TO.N,TXD*
X168402000Y-68580000D03*
G04 #@! TO.P,J1,4*
G04 #@! TO.N,RXD*
X168402000Y-71120000D03*
G04 #@! TO.P,J1,5*
G04 #@! TO.N,IO0*
X168402000Y-73660000D03*
G04 #@! TO.P,J1,6*
G04 #@! TO.N,EN*
X168402000Y-76200000D03*
G04 #@! TD*
D10*
G04 #@! TO.P,J2,1*
G04 #@! TO.N,+5V*
X145796000Y-68326000D03*
D11*
G04 #@! TO.P,J2,2*
G04 #@! TO.N,IO16*
X145796000Y-70866000D03*
G04 #@! TO.P,J2,3*
G04 #@! TO.N,GND*
X145796000Y-73406000D03*
G04 #@! TD*
D10*
G04 #@! TO.P,J3,1*
G04 #@! TO.N,+3V3*
X155956000Y-89662000D03*
D11*
G04 #@! TO.P,J3,2*
G04 #@! TO.N,ADC*
X158496000Y-89662000D03*
G04 #@! TD*
D10*
G04 #@! TO.P,J4,1*
G04 #@! TO.N,BAT*
X159004000Y-80264000D03*
D11*
G04 #@! TO.P,J4,2*
G04 #@! TO.N,GND*
X156464000Y-80264000D03*
G04 #@! TD*
D12*
G04 #@! TO.N,GND*
X148336000Y-90297000D03*
X160655000Y-88900000D03*
X162052000Y-88900000D03*
X149606000Y-81661000D03*
X160655000Y-90170000D03*
X162052000Y-90170000D03*
X163830000Y-77470000D03*
X165100000Y-77470000D03*
X167132000Y-81915000D03*
X167132000Y-83185000D03*
X167132000Y-84455000D03*
D13*
X146812000Y-61595000D03*
D12*
X148336000Y-89027000D03*
D13*
X149479000Y-85471000D03*
X148336000Y-85979000D03*
D12*
G04 #@! TO.N,+3V3*
X150622000Y-87764000D03*
D14*
X147955000Y-78613000D03*
X147066000Y-84963000D03*
D12*
X157353000Y-76581000D03*
X151075991Y-81534000D03*
X151511000Y-74803000D03*
G04 #@! TO.N,+5V*
X155448000Y-84963000D03*
G04 #@! TO.N,EN*
X150622000Y-66294000D03*
X154066010Y-75631000D03*
X161274990Y-76454000D03*
G04 #@! TO.N,ADC*
X149871443Y-79005443D03*
G04 #@! TD*
D15*
G04 #@! TO.N,GND*
X163830000Y-77470000D02*
X165100000Y-77470000D01*
D16*
G04 #@! TO.N,+3V3*
X155956000Y-89408000D02*
X155956000Y-89662000D01*
X154312000Y-87764000D02*
X155956000Y-89408000D01*
X150622000Y-87764000D02*
X154312000Y-87764000D01*
D17*
X147066000Y-79502000D02*
X147066000Y-84963000D01*
X147955000Y-78613000D02*
X147066000Y-79502000D01*
D16*
X157353000Y-75873894D02*
X157353000Y-76581000D01*
X168402000Y-63500000D02*
X167052000Y-63500000D01*
X157353000Y-73199000D02*
X157353000Y-75873894D01*
X167052000Y-63500000D02*
X157353000Y-73199000D01*
D15*
X150622000Y-87764000D02*
X150622000Y-81987991D01*
X150622000Y-81987991D02*
X151075991Y-81534000D01*
D16*
X152010999Y-75302999D02*
X151511000Y-74803000D01*
X153788999Y-77080999D02*
X152010999Y-75302999D01*
X156853001Y-77080999D02*
X153788999Y-77080999D01*
X157353000Y-76581000D02*
X156853001Y-77080999D01*
G04 #@! TO.N,+5V*
X155448000Y-84255894D02*
X155448000Y-84963000D01*
X147828000Y-69008000D02*
X147828000Y-75476076D01*
X147146000Y-68326000D02*
X147828000Y-69008000D01*
X147828000Y-75476076D02*
X155448000Y-83096076D01*
X145796000Y-68326000D02*
X147146000Y-68326000D01*
X155448000Y-83096076D02*
X155448000Y-84255894D01*
D15*
G04 #@! TO.N,EN*
X153566011Y-75131001D02*
X154066010Y-75631000D01*
X150622000Y-66294000D02*
X150622000Y-72186990D01*
X150622000Y-72186990D02*
X153566011Y-75131001D01*
X161528990Y-76200000D02*
X161274990Y-76454000D01*
X168402000Y-76200000D02*
X161528990Y-76200000D01*
G04 #@! TO.N,ADC*
X151980001Y-81114001D02*
X150371442Y-79505442D01*
X158496000Y-89662000D02*
X155702000Y-86868000D01*
X152908000Y-86868000D02*
X151980001Y-85940001D01*
X155702000Y-86868000D02*
X152908000Y-86868000D01*
X151980001Y-85940001D02*
X151980001Y-81114001D01*
X150371442Y-79505442D02*
X149871443Y-79005443D01*
G04 #@! TD*
D18*
G04 #@! TO.N,GND*
G36*
X146943001Y-75388911D02*
X146925663Y-75476076D01*
X146994348Y-75821385D01*
X147140576Y-76040230D01*
X147140578Y-76040232D01*
X147189952Y-76114125D01*
X147263845Y-76163499D01*
X149186049Y-78085704D01*
X149106352Y-78165401D01*
X149001982Y-77913429D01*
X148654571Y-77566018D01*
X148200657Y-77378000D01*
X147709343Y-77378000D01*
X147255429Y-77566018D01*
X146908018Y-77913429D01*
X146808017Y-78154851D01*
X146342481Y-78620387D01*
X146247711Y-78683711D01*
X146032737Y-79005443D01*
X145996854Y-79059146D01*
X145908765Y-79502000D01*
X145931000Y-79613783D01*
X145931001Y-84475920D01*
X145831000Y-84717343D01*
X145831000Y-85208657D01*
X146019018Y-85662571D01*
X146366429Y-86009982D01*
X146820343Y-86198000D01*
X147311657Y-86198000D01*
X147765571Y-86009982D01*
X148112982Y-85662571D01*
X148301000Y-85208657D01*
X148301000Y-84717343D01*
X148201000Y-84475922D01*
X148201000Y-79972131D01*
X148413149Y-79759983D01*
X148654571Y-79659982D01*
X148838048Y-79476505D01*
X148909236Y-79648369D01*
X149228517Y-79967650D01*
X149645677Y-80140443D01*
X149896286Y-80140443D01*
X150380350Y-80624508D01*
X150113784Y-80891074D01*
X149940991Y-81308234D01*
X149940991Y-81594231D01*
X149882546Y-81681700D01*
X149821622Y-81987991D01*
X149837001Y-82065308D01*
X149837000Y-86943867D01*
X149659793Y-87121074D01*
X149487000Y-87538234D01*
X149487000Y-87989766D01*
X149659793Y-88406926D01*
X149979074Y-88726207D01*
X150396234Y-88899000D01*
X150847766Y-88899000D01*
X151264926Y-88726207D01*
X151342133Y-88649000D01*
X153945422Y-88649000D01*
X154458560Y-89162138D01*
X154458560Y-90512000D01*
X154501922Y-90730000D01*
X147299627Y-90730000D01*
X144982000Y-84704170D01*
X144982000Y-72108096D01*
X145216582Y-72264839D01*
X145649744Y-72351000D01*
X145942256Y-72351000D01*
X146375418Y-72264839D01*
X146866625Y-71936625D01*
X146943000Y-71822321D01*
X146943001Y-75388911D01*
X146943001Y-75388911D01*
G37*
X146943001Y-75388911D02*
X146925663Y-75476076D01*
X146994348Y-75821385D01*
X147140576Y-76040230D01*
X147140578Y-76040232D01*
X147189952Y-76114125D01*
X147263845Y-76163499D01*
X149186049Y-78085704D01*
X149106352Y-78165401D01*
X149001982Y-77913429D01*
X148654571Y-77566018D01*
X148200657Y-77378000D01*
X147709343Y-77378000D01*
X147255429Y-77566018D01*
X146908018Y-77913429D01*
X146808017Y-78154851D01*
X146342481Y-78620387D01*
X146247711Y-78683711D01*
X146032737Y-79005443D01*
X145996854Y-79059146D01*
X145908765Y-79502000D01*
X145931000Y-79613783D01*
X145931001Y-84475920D01*
X145831000Y-84717343D01*
X145831000Y-85208657D01*
X146019018Y-85662571D01*
X146366429Y-86009982D01*
X146820343Y-86198000D01*
X147311657Y-86198000D01*
X147765571Y-86009982D01*
X148112982Y-85662571D01*
X148301000Y-85208657D01*
X148301000Y-84717343D01*
X148201000Y-84475922D01*
X148201000Y-79972131D01*
X148413149Y-79759983D01*
X148654571Y-79659982D01*
X148838048Y-79476505D01*
X148909236Y-79648369D01*
X149228517Y-79967650D01*
X149645677Y-80140443D01*
X149896286Y-80140443D01*
X150380350Y-80624508D01*
X150113784Y-80891074D01*
X149940991Y-81308234D01*
X149940991Y-81594231D01*
X149882546Y-81681700D01*
X149821622Y-81987991D01*
X149837001Y-82065308D01*
X149837000Y-86943867D01*
X149659793Y-87121074D01*
X149487000Y-87538234D01*
X149487000Y-87989766D01*
X149659793Y-88406926D01*
X149979074Y-88726207D01*
X150396234Y-88899000D01*
X150847766Y-88899000D01*
X151264926Y-88726207D01*
X151342133Y-88649000D01*
X153945422Y-88649000D01*
X154458560Y-89162138D01*
X154458560Y-90512000D01*
X154501922Y-90730000D01*
X147299627Y-90730000D01*
X144982000Y-84704170D01*
X144982000Y-72108096D01*
X145216582Y-72264839D01*
X145649744Y-72351000D01*
X145942256Y-72351000D01*
X146375418Y-72264839D01*
X146866625Y-71936625D01*
X146943000Y-71822321D01*
X146943001Y-75388911D01*
G36*
X150495000Y-65159000D02*
X150396234Y-65159000D01*
X149979074Y-65331793D01*
X149659793Y-65651074D01*
X149487000Y-66068234D01*
X149487000Y-66519766D01*
X149659793Y-66936926D01*
X149837000Y-67114133D01*
X149837001Y-72109673D01*
X149821622Y-72186990D01*
X149882546Y-72493281D01*
X150012251Y-72687398D01*
X150012254Y-72687401D01*
X150056048Y-72752943D01*
X150121590Y-72796737D01*
X151078489Y-73753636D01*
X150868074Y-73840793D01*
X150548793Y-74160074D01*
X150376000Y-74577234D01*
X150376000Y-75028766D01*
X150548793Y-75445926D01*
X150868074Y-75765207D01*
X151285234Y-75938000D01*
X151394422Y-75938000D01*
X153101576Y-77645155D01*
X153150950Y-77719048D01*
X153224843Y-77768422D01*
X153224844Y-77768423D01*
X153377527Y-77870443D01*
X153443689Y-77914651D01*
X153701834Y-77965999D01*
X153701838Y-77965999D01*
X153788999Y-77983336D01*
X153876160Y-77965999D01*
X156765840Y-77965999D01*
X156853001Y-77983336D01*
X156940162Y-77965999D01*
X156940166Y-77965999D01*
X157198311Y-77914651D01*
X157491050Y-77719048D01*
X157493087Y-77716000D01*
X157578766Y-77716000D01*
X157995926Y-77543207D01*
X158315207Y-77223926D01*
X158488000Y-76806766D01*
X158488000Y-76355234D01*
X158315207Y-75938074D01*
X158238000Y-75860867D01*
X158238000Y-73565578D01*
X167054769Y-64748810D01*
X167094191Y-64807809D01*
X167304235Y-64948157D01*
X167552000Y-64997440D01*
X169252000Y-64997440D01*
X169470000Y-64954078D01*
X169470000Y-67507621D01*
X168981418Y-67181161D01*
X168548256Y-67095000D01*
X168255744Y-67095000D01*
X167822582Y-67181161D01*
X167331375Y-67509375D01*
X167003161Y-68000582D01*
X166887908Y-68580000D01*
X167003161Y-69159418D01*
X167331375Y-69650625D01*
X167629761Y-69850000D01*
X167331375Y-70049375D01*
X167003161Y-70540582D01*
X166887908Y-71120000D01*
X167003161Y-71699418D01*
X167331375Y-72190625D01*
X167629761Y-72390000D01*
X167331375Y-72589375D01*
X167003161Y-73080582D01*
X166887908Y-73660000D01*
X167003161Y-74239418D01*
X167331375Y-74730625D01*
X167629761Y-74930000D01*
X167331375Y-75129375D01*
X167140526Y-75415000D01*
X161732521Y-75415000D01*
X161500756Y-75319000D01*
X161049224Y-75319000D01*
X160632064Y-75491793D01*
X160312783Y-75811074D01*
X160139990Y-76228234D01*
X160139990Y-76679766D01*
X160312783Y-77096926D01*
X160632064Y-77416207D01*
X161049224Y-77589000D01*
X161500756Y-77589000D01*
X161917916Y-77416207D01*
X162237197Y-77096926D01*
X162283558Y-76985000D01*
X167140526Y-76985000D01*
X167331375Y-77270625D01*
X167822582Y-77598839D01*
X168255744Y-77685000D01*
X168548256Y-77685000D01*
X168981418Y-77598839D01*
X169470001Y-77272379D01*
X169470001Y-84442918D01*
X166908598Y-90730000D01*
X159568379Y-90730000D01*
X159894839Y-90241418D01*
X160010092Y-89662000D01*
X159894839Y-89082582D01*
X159566625Y-88591375D01*
X159075418Y-88263161D01*
X158642256Y-88177000D01*
X158349744Y-88177000D01*
X158159082Y-88214925D01*
X156311749Y-86367592D01*
X156267953Y-86302047D01*
X156008292Y-86128546D01*
X155779316Y-86083000D01*
X155779312Y-86083000D01*
X155732472Y-86073683D01*
X156090926Y-85925207D01*
X156410207Y-85605926D01*
X156583000Y-85188766D01*
X156583000Y-84737234D01*
X156410207Y-84320074D01*
X156333000Y-84242867D01*
X156333000Y-83183235D01*
X156350337Y-83096075D01*
X156333000Y-83008915D01*
X156333000Y-83008911D01*
X156281652Y-82750766D01*
X156086049Y-82458027D01*
X156012156Y-82408654D01*
X153017502Y-79414000D01*
X157506560Y-79414000D01*
X157506560Y-81114000D01*
X157555843Y-81361765D01*
X157696191Y-81571809D01*
X157906235Y-81712157D01*
X158154000Y-81761440D01*
X159854000Y-81761440D01*
X160101765Y-81712157D01*
X160311809Y-81571809D01*
X160452157Y-81361765D01*
X160501440Y-81114000D01*
X160501440Y-79414000D01*
X160452157Y-79166235D01*
X160311809Y-78956191D01*
X160101765Y-78815843D01*
X159854000Y-78766560D01*
X158154000Y-78766560D01*
X157906235Y-78815843D01*
X157696191Y-78956191D01*
X157555843Y-79166235D01*
X157506560Y-79414000D01*
X153017502Y-79414000D01*
X148713000Y-75109498D01*
X148713000Y-69095161D01*
X148730337Y-69008000D01*
X148713000Y-68920839D01*
X148713000Y-68920835D01*
X148661652Y-68662690D01*
X148466049Y-68369951D01*
X148392156Y-68320577D01*
X147833425Y-67761847D01*
X147784049Y-67687951D01*
X147491310Y-67492348D01*
X147288674Y-67452041D01*
X147244157Y-67228235D01*
X147103809Y-67018191D01*
X146893765Y-66877843D01*
X146646000Y-66828560D01*
X144982000Y-66828560D01*
X144982000Y-61162000D01*
X150495000Y-61162000D01*
X150495000Y-65159000D01*
X150495000Y-65159000D01*
G37*
X150495000Y-65159000D02*
X150396234Y-65159000D01*
X149979074Y-65331793D01*
X149659793Y-65651074D01*
X149487000Y-66068234D01*
X149487000Y-66519766D01*
X149659793Y-66936926D01*
X149837000Y-67114133D01*
X149837001Y-72109673D01*
X149821622Y-72186990D01*
X149882546Y-72493281D01*
X150012251Y-72687398D01*
X150012254Y-72687401D01*
X150056048Y-72752943D01*
X150121590Y-72796737D01*
X151078489Y-73753636D01*
X150868074Y-73840793D01*
X150548793Y-74160074D01*
X150376000Y-74577234D01*
X150376000Y-75028766D01*
X150548793Y-75445926D01*
X150868074Y-75765207D01*
X151285234Y-75938000D01*
X151394422Y-75938000D01*
X153101576Y-77645155D01*
X153150950Y-77719048D01*
X153224843Y-77768422D01*
X153224844Y-77768423D01*
X153377527Y-77870443D01*
X153443689Y-77914651D01*
X153701834Y-77965999D01*
X153701838Y-77965999D01*
X153788999Y-77983336D01*
X153876160Y-77965999D01*
X156765840Y-77965999D01*
X156853001Y-77983336D01*
X156940162Y-77965999D01*
X156940166Y-77965999D01*
X157198311Y-77914651D01*
X157491050Y-77719048D01*
X157493087Y-77716000D01*
X157578766Y-77716000D01*
X157995926Y-77543207D01*
X158315207Y-77223926D01*
X158488000Y-76806766D01*
X158488000Y-76355234D01*
X158315207Y-75938074D01*
X158238000Y-75860867D01*
X158238000Y-73565578D01*
X167054769Y-64748810D01*
X167094191Y-64807809D01*
X167304235Y-64948157D01*
X167552000Y-64997440D01*
X169252000Y-64997440D01*
X169470000Y-64954078D01*
X169470000Y-67507621D01*
X168981418Y-67181161D01*
X168548256Y-67095000D01*
X168255744Y-67095000D01*
X167822582Y-67181161D01*
X167331375Y-67509375D01*
X167003161Y-68000582D01*
X166887908Y-68580000D01*
X167003161Y-69159418D01*
X167331375Y-69650625D01*
X167629761Y-69850000D01*
X167331375Y-70049375D01*
X167003161Y-70540582D01*
X166887908Y-71120000D01*
X167003161Y-71699418D01*
X167331375Y-72190625D01*
X167629761Y-72390000D01*
X167331375Y-72589375D01*
X167003161Y-73080582D01*
X166887908Y-73660000D01*
X167003161Y-74239418D01*
X167331375Y-74730625D01*
X167629761Y-74930000D01*
X167331375Y-75129375D01*
X167140526Y-75415000D01*
X161732521Y-75415000D01*
X161500756Y-75319000D01*
X161049224Y-75319000D01*
X160632064Y-75491793D01*
X160312783Y-75811074D01*
X160139990Y-76228234D01*
X160139990Y-76679766D01*
X160312783Y-77096926D01*
X160632064Y-77416207D01*
X161049224Y-77589000D01*
X161500756Y-77589000D01*
X161917916Y-77416207D01*
X162237197Y-77096926D01*
X162283558Y-76985000D01*
X167140526Y-76985000D01*
X167331375Y-77270625D01*
X167822582Y-77598839D01*
X168255744Y-77685000D01*
X168548256Y-77685000D01*
X168981418Y-77598839D01*
X169470001Y-77272379D01*
X169470001Y-84442918D01*
X166908598Y-90730000D01*
X159568379Y-90730000D01*
X159894839Y-90241418D01*
X160010092Y-89662000D01*
X159894839Y-89082582D01*
X159566625Y-88591375D01*
X159075418Y-88263161D01*
X158642256Y-88177000D01*
X158349744Y-88177000D01*
X158159082Y-88214925D01*
X156311749Y-86367592D01*
X156267953Y-86302047D01*
X156008292Y-86128546D01*
X155779316Y-86083000D01*
X155779312Y-86083000D01*
X155732472Y-86073683D01*
X156090926Y-85925207D01*
X156410207Y-85605926D01*
X156583000Y-85188766D01*
X156583000Y-84737234D01*
X156410207Y-84320074D01*
X156333000Y-84242867D01*
X156333000Y-83183235D01*
X156350337Y-83096075D01*
X156333000Y-83008915D01*
X156333000Y-83008911D01*
X156281652Y-82750766D01*
X156086049Y-82458027D01*
X156012156Y-82408654D01*
X153017502Y-79414000D01*
X157506560Y-79414000D01*
X157506560Y-81114000D01*
X157555843Y-81361765D01*
X157696191Y-81571809D01*
X157906235Y-81712157D01*
X158154000Y-81761440D01*
X159854000Y-81761440D01*
X160101765Y-81712157D01*
X160311809Y-81571809D01*
X160452157Y-81361765D01*
X160501440Y-81114000D01*
X160501440Y-79414000D01*
X160452157Y-79166235D01*
X160311809Y-78956191D01*
X160101765Y-78815843D01*
X159854000Y-78766560D01*
X158154000Y-78766560D01*
X157906235Y-78815843D01*
X157696191Y-78956191D01*
X157555843Y-79166235D01*
X157506560Y-79414000D01*
X153017502Y-79414000D01*
X148713000Y-75109498D01*
X148713000Y-69095161D01*
X148730337Y-69008000D01*
X148713000Y-68920839D01*
X148713000Y-68920835D01*
X148661652Y-68662690D01*
X148466049Y-68369951D01*
X148392156Y-68320577D01*
X147833425Y-67761847D01*
X147784049Y-67687951D01*
X147491310Y-67492348D01*
X147288674Y-67452041D01*
X147244157Y-67228235D01*
X147103809Y-67018191D01*
X146893765Y-66877843D01*
X146646000Y-66828560D01*
X144982000Y-66828560D01*
X144982000Y-61162000D01*
X150495000Y-61162000D01*
X150495000Y-65159000D01*
G04 #@! TD*
M02*
