G04 #@! TF.GenerationSoftware,KiCad,Pcbnew,5.0.0-fee4fd1~66~ubuntu16.04.1*
G04 #@! TF.CreationDate,2018-12-09T19:45:05+07:00*
G04 #@! TF.ProjectId,master_circuit,6D61737465725F636972637569742E6B,rev?*
G04 #@! TF.SameCoordinates,Original*
G04 #@! TF.FileFunction,Legend,Top*
G04 #@! TF.FilePolarity,Positive*
%FSLAX46Y46*%
G04 Gerber Fmt 4.6, Leading zero omitted, Abs format (unit mm)*
G04 Created by KiCad (PCBNEW 5.0.0-fee4fd1~66~ubuntu16.04.1) date Sun Dec  9 19:45:05 2018*
%MOMM*%
%LPD*%
G01*
G04 APERTURE LIST*
%ADD10C,0.152400*%
%ADD11C,0.120000*%
G04 APERTURE END LIST*
D10*
G04 #@! TO.C,U1*
X148844000Y-77089000D02*
X148844000Y-77851000D01*
X148844000Y-77851000D02*
X164846000Y-77851000D01*
X164846000Y-77851000D02*
X164846000Y-77089000D01*
D11*
G04 #@! TO.C,C1*
X146864000Y-80259422D02*
X146864000Y-80776578D01*
X148284000Y-80259422D02*
X148284000Y-80776578D01*
G04 #@! TO.C,C2*
X146252000Y-80259422D02*
X146252000Y-80776578D01*
X144832000Y-80259422D02*
X144832000Y-80776578D01*
G04 #@! TO.C,C3*
X153164000Y-80075721D02*
X153164000Y-80401279D01*
X152144000Y-80075721D02*
X152144000Y-80401279D01*
G04 #@! TO.C,C4*
X157786000Y-83815422D02*
X157786000Y-84332578D01*
X159206000Y-83815422D02*
X159206000Y-84332578D01*
G04 #@! TO.C,C6*
X156412000Y-84332578D02*
X156412000Y-83815422D01*
X154992000Y-84332578D02*
X154992000Y-83815422D01*
G04 #@! TO.C,C7*
X145086000Y-84254078D02*
X145086000Y-83736922D01*
X146506000Y-84254078D02*
X146506000Y-83736922D01*
G04 #@! TO.C,D1*
X146277000Y-66332000D02*
X146277000Y-64047000D01*
X146277000Y-64047000D02*
X144807000Y-64047000D01*
X144807000Y-64047000D02*
X144807000Y-66332000D01*
G04 #@! TO.C,J1*
X167072000Y-77530000D02*
X169732000Y-77530000D01*
X167072000Y-64770000D02*
X167072000Y-77530000D01*
X169732000Y-64770000D02*
X169732000Y-77530000D01*
X167072000Y-64770000D02*
X169732000Y-64770000D01*
X167072000Y-63500000D02*
X167072000Y-62170000D01*
X167072000Y-62170000D02*
X168402000Y-62170000D01*
G04 #@! TO.C,J2*
X144466000Y-74736000D02*
X147126000Y-74736000D01*
X144466000Y-69596000D02*
X144466000Y-74736000D01*
X147126000Y-69596000D02*
X147126000Y-74736000D01*
X144466000Y-69596000D02*
X147126000Y-69596000D01*
X144466000Y-68326000D02*
X144466000Y-66996000D01*
X144466000Y-66996000D02*
X145796000Y-66996000D01*
G04 #@! TO.C,J3*
X159826000Y-90992000D02*
X159826000Y-88332000D01*
X157226000Y-90992000D02*
X159826000Y-90992000D01*
X157226000Y-88332000D02*
X159826000Y-88332000D01*
X157226000Y-90992000D02*
X157226000Y-88332000D01*
X155956000Y-90992000D02*
X154626000Y-90992000D01*
X154626000Y-90992000D02*
X154626000Y-89662000D01*
G04 #@! TO.C,J4*
X155134000Y-78934000D02*
X155134000Y-81594000D01*
X157734000Y-78934000D02*
X155134000Y-78934000D01*
X157734000Y-81594000D02*
X155134000Y-81594000D01*
X157734000Y-78934000D02*
X157734000Y-81594000D01*
X159004000Y-78934000D02*
X160334000Y-78934000D01*
X160334000Y-78934000D02*
X160334000Y-80264000D01*
G04 #@! TO.C,R1*
X146052000Y-62346721D02*
X146052000Y-62672279D01*
X145032000Y-62346721D02*
X145032000Y-62672279D01*
G04 #@! TO.C,R2*
X164463000Y-80228221D02*
X164463000Y-80553779D01*
X165483000Y-80228221D02*
X165483000Y-80553779D01*
G04 #@! TO.C,R3*
X163959000Y-80228221D02*
X163959000Y-80553779D01*
X162939000Y-80228221D02*
X162939000Y-80553779D01*
G04 #@! TO.C,R4*
X150620000Y-80075721D02*
X150620000Y-80401279D01*
X151640000Y-80075721D02*
X151640000Y-80401279D01*
G04 #@! TO.C,R5*
X162435000Y-80228221D02*
X162435000Y-80553779D01*
X161415000Y-80228221D02*
X161415000Y-80553779D01*
G04 #@! TO.C,R6*
X165987000Y-80202721D02*
X165987000Y-80528279D01*
X167007000Y-80202721D02*
X167007000Y-80528279D01*
G04 #@! TO.C,R7*
X150116000Y-80101221D02*
X150116000Y-80426779D01*
X149096000Y-80101221D02*
X149096000Y-80426779D01*
G04 #@! TO.C,U2*
X167240000Y-84704000D02*
X165980000Y-84704000D01*
X160420000Y-84704000D02*
X161680000Y-84704000D01*
X167240000Y-88464000D02*
X167240000Y-84704000D01*
X160420000Y-90714000D02*
X160420000Y-84704000D01*
G04 #@! TO.C,U3*
X147212000Y-90714000D02*
X147212000Y-84704000D01*
X154032000Y-88464000D02*
X154032000Y-84704000D01*
X147212000Y-84704000D02*
X148472000Y-84704000D01*
X154032000Y-84704000D02*
X152772000Y-84704000D01*
G04 #@! TD*
M02*
